<svg width="68" height="42" viewBox="0 0 68 42" fill="none" xmlns="http://www.w3.org/2000/svg">
<path d="M9.71698 28.1046C4.70641 22.7891 4.94543 14.3831 10.2641 9.36955C14.5335 5.34502 21.0487 4.62829 26.1014 7.62197C26.3222 7.75049 26.45 7.99174 26.4428 8.23539C26.4353 8.49185 26.2941 8.71221 26.0661 8.82733C25.0693 9.34304 24.1522 9.98312 23.3604 10.7296C18.6026 15.2144 18.3827 22.7417 22.8705 27.5025C23.6174 28.2949 24.4827 28.9881 25.4606 29.5628C25.6814 29.6913 25.8091 29.9325 25.802 30.1762C25.7945 30.4326 25.6533 30.653 25.4253 30.7681C20.2001 33.4614 13.7448 32.3511 9.71772 28.0789L9.71698 28.1046Z" fill="url(#paint0_linear_8_530)"/>
<path d="M46.9999 41.4399C52.8899 41.4399 57.6599 36.6699 57.6599 30.7799C57.6599 24.8899 52.8899 20.1199 46.9999 20.1199C46.9599 20.1199 46.9299 20.1199 46.8899 20.1199C45.9399 11.6199 38.7299 4.99988 29.9799 4.99988C23.0599 4.99988 17.1199 9.12987 14.4499 15.0499C14.3699 15.0499 14.2799 15.0499 14.1999 15.0499C6.90989 15.0499 0.999878 20.9599 0.999878 28.2499C0.999878 35.5399 6.90989 41.4499 14.1999 41.4499" fill="#A1CFEE"/>
<path d="M61.2199 41.4399C64.9199 41.4399 67.9199 38.4399 67.9199 34.7399C67.9199 31.0399 64.9199 28.0399 61.2199 28.0399C61.1999 28.0399 61.1699 28.0399 61.1499 28.0399C60.5499 22.6999 56.0299 18.5499 50.5299 18.5499C46.1899 18.5499 42.4499 21.1399 40.7799 24.8599C40.7299 24.8599 40.6699 24.8599 40.6199 24.8599C36.0399 24.8599 32.33 28.5699 32.33 33.1499C32.33 37.7299 36.0399 41.4399 40.6199 41.4399" fill="url(#paint1_linear_8_530)"/>
<defs>
<linearGradient id="paint0_linear_8_530" x1="6.11773" y1="18.6279" x2="26.1222" y2="19.2121" gradientUnits="userSpaceOnUse">
<stop stop-color="#00AEEF"/>
<stop offset="1" stop-color="#00BDF2"/>
</linearGradient>
<linearGradient id="paint1_linear_8_530" x1="39.7499" y1="43.9999" x2="60.07" y2="23.67" gradientUnits="userSpaceOnUse">
<stop stop-color="#D0E8F8"/>
<stop offset="1" stop-color="#E1EEF9"/>
</linearGradient>
</defs>
</svg>
