<svg width="40" height="40" viewBox="0 0 40 40" fill="none" xmlns="http://www.w3.org/2000/svg">
<path d="M20.3963 40C9.1582 40 0 30.8618 0 19.6169C0 10.5903 6.07289 2.54032 14.7563 0.0430131C15.1332 -0.0685986 15.5381 0.0430165 15.8033 0.308094C16.0825 0.587124 16.1802 0.977764 16.0685 1.35445C15.5938 3.01468 15.3427 4.71674 15.3427 6.39091C15.3427 16.4499 23.5374 24.6394 33.6029 24.6394C35.2781 24.6394 36.9673 24.4023 38.6426 23.914C39.0195 23.8024 39.4244 23.9139 39.6896 24.179C39.9688 24.4581 40.0664 24.8487 39.9548 25.2254C37.4558 33.9171 29.4008 39.9721 20.3684 39.9721L20.3963 40Z" fill="url(#paint0_linear_8_548)"/>
<defs>
<linearGradient id="paint0_linear_8_548" x1="5.98903" y1="34.0288" x2="27.7533" y2="12.2505" gradientUnits="userSpaceOnUse">
<stop stop-color="#00AEEF"/>
<stop offset="1" stop-color="#00BDF2"/>
</linearGradient>
</defs>
</svg>
