<svg width="37" height="36" viewBox="0 0 37 36" fill="none" xmlns="http://www.w3.org/2000/svg">
<path d="M19.0567 36C8.94233 36 0.699951 27.7756 0.699951 17.6552C0.699951 9.53129 6.16555 2.28629 13.9806 0.0387118C14.3198 -0.0617387 14.6842 0.0387149 14.9229 0.277285C15.1742 0.528411 15.2621 0.879988 15.1616 1.21901C14.7344 2.71321 14.5084 4.24506 14.5084 5.75182C14.5084 14.8049 21.8836 22.1755 30.9425 22.1755C32.4503 22.1755 33.9705 21.962 35.4783 21.5226C35.8175 21.4221 36.1819 21.5226 36.4206 21.7611C36.6719 22.0122 36.7598 22.3638 36.6592 22.7028C34.4102 30.5254 27.1607 35.9749 19.0315 35.9749L19.0567 36Z" fill="url(#paint0_linear_8_548)"/>
<defs>
<linearGradient id="paint0_linear_8_548" x1="6.09008" y1="30.6259" x2="25.6779" y2="11.0254" gradientUnits="userSpaceOnUse">
<stop stop-color="#00AEEF"/>
<stop offset="1" stop-color="#00BDF2"/>
</linearGradient>
</defs>
</svg>
