<svg width="67" height="37" viewBox="0 0 67 37" fill="none" xmlns="http://www.w3.org/2000/svg">
<path d="M54.2576 26C46.9528 26 41 20.0602 41 12.751C41 6.88371 44.9474 1.65121 50.5916 0.0279585C50.8366 -0.0445891 51.0997 0.0279608 51.2722 0.200261C51.4536 0.38163 51.5171 0.635547 51.4445 0.880395C51.136 1.95954 50.9727 3.06588 50.9727 4.15409C50.9727 10.6924 56.2993 16.0156 62.8419 16.0156C63.9308 16.0156 65.0288 15.8615 66.1177 15.5441C66.3627 15.4715 66.6258 15.5441 66.7982 15.7164C66.9797 15.8977 67.0432 16.1517 66.9706 16.3965C65.3463 22.0461 60.1105 25.9819 54.2395 25.9819L54.2576 26Z" fill="url(#paint0_linear_8_542)"/>
<path d="M46 36.44C51.89 36.44 56.66 31.67 56.66 25.78C56.66 19.89 51.89 15.12 46 15.12C45.96 15.12 45.93 15.12 45.89 15.12C44.94 6.62 37.73 0 28.98 0C22.06 0 16.12 4.12999 13.45 10.05C13.37 10.05 13.28 10.05 13.2 10.05C5.91001 10.05 0 15.96 0 23.25C0 30.54 5.91001 36.45 13.2 36.45" fill="#A1CFEE"/>
<path d="M60.22 36.4401C63.92 36.4401 66.92 33.4401 66.92 29.7401C66.92 26.0401 63.92 23.0401 60.22 23.0401C60.2 23.0401 60.17 23.0401 60.15 23.0401C59.55 17.7001 55.03 13.55 49.53 13.55C45.19 13.55 41.45 16.1401 39.78 19.8601C39.73 19.8601 39.6701 19.8601 39.6201 19.8601C35.0401 19.8601 31.3301 23.5701 31.3301 28.1501C31.3301 32.7301 35.0401 36.4401 39.6201 36.4401" fill="url(#paint1_linear_8_542)"/>
<defs>
<linearGradient id="paint0_linear_8_542" x1="44.8929" y1="22.1187" x2="59.0396" y2="7.96282" gradientUnits="userSpaceOnUse">
<stop stop-color="#00AEEF"/>
<stop offset="1" stop-color="#00BDF2"/>
</linearGradient>
<linearGradient id="paint1_linear_8_542" x1="38.7501" y1="39.0001" x2="59.0701" y2="18.6701" gradientUnits="userSpaceOnUse">
<stop stop-color="#D0E8F8"/>
<stop offset="1" stop-color="#E1EEF9"/>
</linearGradient>
</defs>
</svg>
