<svg width="67" height="61" viewBox="0 0 67 61" fill="none" xmlns="http://www.w3.org/2000/svg">
<path d="M46 36.44C51.89 36.44 56.66 31.67 56.66 25.78C56.66 19.89 51.89 15.12 46 15.12C45.96 15.12 45.93 15.12 45.89 15.12C44.94 6.62 37.73 0 28.98 0C22.06 0 16.12 4.12999 13.45 10.05C13.37 10.05 13.28 10.05 13.2 10.05C5.91001 10.05 0 15.96 0 23.25C0 30.54 5.91001 36.45 13.2 36.45" fill="#A1CFEE"/>
<path d="M60.22 36.4401C63.92 36.4401 66.92 33.4401 66.92 29.7401C66.92 26.0401 63.92 23.0401 60.22 23.0401C60.2 23.0401 60.17 23.0401 60.15 23.0401C59.55 17.7001 55.03 13.55 49.53 13.55C45.19 13.55 41.45 16.1401 39.78 19.8601C39.73 19.8601 39.6701 19.8601 39.6201 19.8601C35.0401 19.8601 31.3301 23.5701 31.3301 28.1501C31.3301 32.7301 35.0401 36.4401 39.6201 36.4401" fill="url(#paint0_linear_8_688)"/>
<path d="M50 44C51.1046 44 52 43.1046 52 42C52 40.8954 51.1046 40 50 40C48.8954 40 48 40.8954 48 42C48 43.1046 48.8954 44 50 44Z" fill="url(#paint1_linear_8_688)"/>
<path d="M59 44C60.1046 44 61 43.1046 61 42C61 40.8954 60.1046 40 59 40C57.8954 40 57 40.8954 57 42C57 43.1046 57.8954 44 59 44Z" fill="url(#paint2_linear_8_688)"/>
<path d="M36 52C37.1046 52 38 51.1046 38 50C38 48.8954 37.1046 48 36 48C34.8954 48 34 48.8954 34 50C34 51.1046 34.8954 52 36 52Z" fill="url(#paint3_linear_8_688)"/>
<path d="M41 44C42.1046 44 43 43.1046 43 42C43 40.8954 42.1046 40 41 40C39.8954 40 39 40.8954 39 42C39 43.1046 39.8954 44 41 44Z" fill="url(#paint4_linear_8_688)"/>
<path d="M31 60C32.1046 60 33 59.1046 33 58C33 56.8954 32.1046 56 31 56C29.8954 56 29 56.8954 29 58C29 59.1046 29.8954 60 31 60Z" fill="url(#paint5_linear_8_688)"/>
<path d="M41 60C42.1046 60 43 59.1046 43 58C43 56.8954 42.1046 56 41 56C39.8954 56 39 56.8954 39 58C39 59.1046 39.8954 60 41 60Z" fill="url(#paint6_linear_8_688)"/>
<path d="M51 60C52.1046 60 53 59.1046 53 58C53 56.8954 52.1046 56 51 56C49.8954 56 49 56.8954 49 58C49 59.1046 49.8954 60 51 60Z" fill="url(#paint7_linear_8_688)"/>
<path d="M45 52.28C46.1046 52.28 47 51.3846 47 50.28C47 49.1755 46.1046 48.28 45 48.28C43.8954 48.28 43 49.1755 43 50.28C43 51.3846 43.8954 52.28 45 52.28Z" fill="url(#paint8_linear_8_688)"/>
<path d="M54 52.28C55.1046 52.28 56 51.3846 56 50.28C56 49.1755 55.1046 48.28 54 48.28C52.8954 48.28 52 49.1755 52 50.28C52 51.3846 52.8954 52.28 54 52.28Z" fill="url(#paint9_linear_8_688)"/>
<path d="M6.99852 49.003C6.65852 49.003 6.31852 48.913 5.99852 48.733C5.03852 48.183 4.71854 46.953 5.26854 46.003L8.15853 41.003C8.70853 40.043 9.92854 39.713 10.8885 40.273C11.8485 40.823 12.1685 42.053 11.6185 43.003L8.72853 48.003C8.35853 48.643 7.68852 49.003 6.99852 49.003Z" fill="url(#paint10_linear_8_688)"/>
<path d="M19.9985 58.003C19.6585 58.003 19.3185 57.913 18.9985 57.733C18.0385 57.183 17.7185 55.953 18.2685 55.003L21.1585 50.003C21.7085 49.043 22.9285 48.713 23.8885 49.273C24.8485 49.823 25.1685 51.053 24.6185 52.003L21.7285 57.003C21.3585 57.643 20.6885 58.003 19.9985 58.003Z" fill="url(#paint11_linear_8_688)"/>
<path d="M28.9985 49.003C28.6585 49.003 28.3185 48.913 27.9985 48.733C27.0385 48.183 26.7185 46.953 27.2685 46.003L30.1585 41.003C30.7085 40.043 31.9285 39.713 32.8885 40.273C33.8485 40.823 34.1685 42.053 33.6185 43.003L30.7285 48.003C30.3585 48.643 29.6885 49.003 28.9985 49.003Z" fill="url(#paint12_linear_8_688)"/>
<path d="M17.9985 49.003C17.6585 49.003 17.3185 48.913 16.9985 48.733C16.0385 48.183 15.7185 46.953 16.2685 46.003L19.1585 41.003C19.7085 40.043 20.9285 39.713 21.8885 40.273C22.8485 40.823 23.1685 42.053 22.6185 43.003L19.7285 48.003C19.3585 48.643 18.6885 49.003 17.9985 49.003Z" fill="url(#paint13_linear_8_688)"/>
<path d="M9.99852 60.003C9.65852 60.003 9.31852 59.913 8.99852 59.733C8.03852 59.183 7.71854 57.953 8.26854 57.003L11.1585 52.003C11.7085 51.043 12.9285 50.713 13.8885 51.273C14.8485 51.823 15.1685 53.053 14.6185 54.003L11.7285 59.003C11.3585 59.643 10.6885 60.003 9.99852 60.003Z" fill="url(#paint14_linear_8_688)"/>
<defs>
<linearGradient id="paint0_linear_8_688" x1="38.7501" y1="39.0001" x2="59.0701" y2="18.6701" gradientUnits="userSpaceOnUse">
<stop stop-color="#D0E8F8"/>
<stop offset="1" stop-color="#E1EEF9"/>
</linearGradient>
<linearGradient id="paint1_linear_8_688" x1="48" y1="42" x2="52" y2="42" gradientUnits="userSpaceOnUse">
<stop stop-color="#A1CFEE"/>
<stop offset="1" stop-color="#E1EEF9"/>
</linearGradient>
<linearGradient id="paint2_linear_8_688" x1="57" y1="42" x2="61" y2="42" gradientUnits="userSpaceOnUse">
<stop stop-color="#A1CFEE"/>
<stop offset="1" stop-color="#E1EEF9"/>
</linearGradient>
<linearGradient id="paint3_linear_8_688" x1="34" y1="50" x2="38" y2="50" gradientUnits="userSpaceOnUse">
<stop stop-color="#A1CFEE"/>
<stop offset="1" stop-color="#E1EEF9"/>
</linearGradient>
<linearGradient id="paint4_linear_8_688" x1="39" y1="42" x2="43" y2="42" gradientUnits="userSpaceOnUse">
<stop stop-color="#A1CFEE"/>
<stop offset="1" stop-color="#E1EEF9"/>
</linearGradient>
<linearGradient id="paint5_linear_8_688" x1="29" y1="58" x2="33" y2="58" gradientUnits="userSpaceOnUse">
<stop stop-color="#A1CFEE"/>
<stop offset="1" stop-color="#E1EEF9"/>
</linearGradient>
<linearGradient id="paint6_linear_8_688" x1="39" y1="58" x2="43" y2="58" gradientUnits="userSpaceOnUse">
<stop stop-color="#A1CFEE"/>
<stop offset="1" stop-color="#E1EEF9"/>
</linearGradient>
<linearGradient id="paint7_linear_8_688" x1="49" y1="58" x2="53" y2="58" gradientUnits="userSpaceOnUse">
<stop stop-color="#A1CFEE"/>
<stop offset="1" stop-color="#E1EEF9"/>
</linearGradient>
<linearGradient id="paint8_linear_8_688" x1="43" y1="50.28" x2="47" y2="50.28" gradientUnits="userSpaceOnUse">
<stop stop-color="#A1CFEE"/>
<stop offset="1" stop-color="#E1EEF9"/>
</linearGradient>
<linearGradient id="paint9_linear_8_688" x1="52" y1="50.28" x2="56" y2="50.28" gradientUnits="userSpaceOnUse">
<stop stop-color="#A1CFEE"/>
<stop offset="1" stop-color="#E1EEF9"/>
</linearGradient>
<linearGradient id="paint10_linear_8_688" x1="4.99854" y1="44.503" x2="11.8885" y2="44.503" gradientUnits="userSpaceOnUse">
<stop stop-color="#00AEEF"/>
<stop offset="1" stop-color="#00BDF2"/>
</linearGradient>
<linearGradient id="paint11_linear_8_688" x1="17.9985" y1="53.503" x2="24.8885" y2="53.503" gradientUnits="userSpaceOnUse">
<stop stop-color="#00AEEF"/>
<stop offset="1" stop-color="#00BDF2"/>
</linearGradient>
<linearGradient id="paint12_linear_8_688" x1="26.9985" y1="44.503" x2="33.8885" y2="44.503" gradientUnits="userSpaceOnUse">
<stop stop-color="#00AEEF"/>
<stop offset="1" stop-color="#00BDF2"/>
</linearGradient>
<linearGradient id="paint13_linear_8_688" x1="15.9985" y1="44.503" x2="22.8885" y2="44.503" gradientUnits="userSpaceOnUse">
<stop stop-color="#00AEEF"/>
<stop offset="1" stop-color="#00BDF2"/>
</linearGradient>
<linearGradient id="paint14_linear_8_688" x1="7.99854" y1="55.503" x2="14.8885" y2="55.503" gradientUnits="userSpaceOnUse">
<stop stop-color="#00AEEF"/>
<stop offset="1" stop-color="#00BDF2"/>
</linearGradient>
</defs>
</svg>
