<svg width="67" height="61" viewBox="0 0 67 61" fill="none" xmlns="http://www.w3.org/2000/svg">
<path d="M54.2576 26C46.9528 26 41 20.0602 41 12.751C41 6.88371 44.9474 1.65121 50.5916 0.0279585C50.8366 -0.0445891 51.0997 0.0279608 51.2722 0.200261C51.4536 0.38163 51.5171 0.635547 51.4445 0.880395C51.136 1.95954 50.9727 3.06588 50.9727 4.15409C50.9727 10.6924 56.2993 16.0156 62.8419 16.0156C63.9308 16.0156 65.0288 15.8615 66.1177 15.5441C66.3627 15.4715 66.6258 15.5441 66.7982 15.7164C66.9797 15.8977 67.0432 16.1517 66.9706 16.3965C65.3463 22.0461 60.1105 25.9819 54.2395 25.9819L54.2576 26Z" fill="url(#paint0_linear_8_651)"/>
<path d="M46 36.44C51.89 36.44 56.66 31.67 56.66 25.78C56.66 19.89 51.89 15.12 46 15.12C45.96 15.12 45.93 15.12 45.89 15.12C44.94 6.62 37.73 0 28.98 0C22.06 0 16.12 4.12999 13.45 10.05C13.37 10.05 13.28 10.05 13.2 10.05C5.91001 10.05 0 15.96 0 23.25C0 30.54 5.91001 36.45 13.2 36.45" fill="#A1CFEE"/>
<path d="M60.22 36.4401C63.92 36.4401 66.92 33.4401 66.92 29.7401C66.92 26.0401 63.92 23.0401 60.22 23.0401C60.2 23.0401 60.17 23.0401 60.15 23.0401C59.55 17.7001 55.03 13.55 49.53 13.55C45.19 13.55 41.45 16.1401 39.78 19.8601C39.73 19.8601 39.6701 19.8601 39.6201 19.8601C35.0401 19.8601 31.3301 23.5701 31.3301 28.1501C31.3301 32.7301 35.0401 36.4401 39.6201 36.4401" fill="url(#paint1_linear_8_651)"/>
<path d="M11 44C12.1046 44 13 43.1046 13 42C13 40.8954 12.1046 40 11 40C9.89543 40 9 40.8954 9 42C9 43.1046 9.89543 44 11 44Z" fill="url(#paint2_linear_8_651)"/>
<path d="M21 44C22.1046 44 23 43.1046 23 42C23 40.8954 22.1046 40 21 40C19.8954 40 19 40.8954 19 42C19 43.1046 19.8954 44 21 44Z" fill="url(#paint3_linear_8_651)"/>
<path d="M31 44C32.1046 44 33 43.1046 33 42C33 40.8954 32.1046 40 31 40C29.8954 40 29 40.8954 29 42C29 43.1046 29.8954 44 31 44Z" fill="url(#paint4_linear_8_651)"/>
<path d="M11 60.28C12.1046 60.28 13 59.3846 13 58.28C13 57.1755 12.1046 56.28 11 56.28C9.89543 56.28 9 57.1755 9 58.28C9 59.3846 9.89543 60.28 11 60.28Z" fill="url(#paint5_linear_8_651)"/>
<path d="M21 60.28C22.1046 60.28 23 59.3846 23 58.28C23 57.1755 22.1046 56.28 21 56.28C19.8954 56.28 19 57.1755 19 58.28C19 59.3846 19.8954 60.28 21 60.28Z" fill="url(#paint6_linear_8_651)"/>
<path d="M16 52.28C17.1046 52.28 18 51.3846 18 50.28C18 49.1755 17.1046 48.28 16 48.28C14.8954 48.28 14 49.1755 14 50.28C14 51.3846 14.8954 52.28 16 52.28Z" fill="url(#paint7_linear_8_651)"/>
<path d="M26 52.28C27.1046 52.28 28 51.3846 28 50.28C28 49.1755 27.1046 48.28 26 48.28C24.8954 48.28 24 49.1755 24 50.28C24 51.3846 24.8954 52.28 26 52.28Z" fill="url(#paint8_linear_8_651)"/>
<path d="M41 44C42.1046 44 43 43.1046 43 42C43 40.8954 42.1046 40 41 40C39.8954 40 39 40.8954 39 42C39 43.1046 39.8954 44 41 44Z" fill="url(#paint9_linear_8_651)"/>
<path d="M51 44C52.1046 44 53 43.1046 53 42C53 40.8954 52.1046 40 51 40C49.8954 40 49 40.8954 49 42C49 43.1046 49.8954 44 51 44Z" fill="url(#paint10_linear_8_651)"/>
<path d="M61 44C62.1046 44 63 43.1046 63 42C63 40.8954 62.1046 40 61 40C59.8954 40 59 40.8954 59 42C59 43.1046 59.8954 44 61 44Z" fill="url(#paint11_linear_8_651)"/>
<path d="M41 60.28C42.1046 60.28 43 59.3846 43 58.28C43 57.1755 42.1046 56.28 41 56.28C39.8954 56.28 39 57.1755 39 58.28C39 59.3846 39.8954 60.28 41 60.28Z" fill="url(#paint12_linear_8_651)"/>
<path d="M31 60C32.1046 60 33 59.1046 33 58C33 56.8954 32.1046 56 31 56C29.8954 56 29 56.8954 29 58C29 59.1046 29.8954 60 31 60Z" fill="url(#paint13_linear_8_651)"/>
<path d="M51 60.28C52.1046 60.28 53 59.3846 53 58.28C53 57.1755 52.1046 56.28 51 56.28C49.8954 56.28 49 57.1755 49 58.28C49 59.3846 49.8954 60.28 51 60.28Z" fill="url(#paint14_linear_8_651)"/>
<path d="M46 52.28C47.1046 52.28 48 51.3846 48 50.28C48 49.1755 47.1046 48.28 46 48.28C44.8954 48.28 44 49.1755 44 50.28C44 51.3846 44.8954 52.28 46 52.28Z" fill="url(#paint15_linear_8_651)"/>
<path d="M36 52C37.1046 52 38 51.1046 38 50C38 48.8954 37.1046 48 36 48C34.8954 48 34 48.8954 34 50C34 51.1046 34.8954 52 36 52Z" fill="url(#paint16_linear_8_651)"/>
<path d="M56 52.28C57.1046 52.28 58 51.3846 58 50.28C58 49.1755 57.1046 48.28 56 48.28C54.8954 48.28 54 49.1755 54 50.28C54 51.3846 54.8954 52.28 56 52.28Z" fill="url(#paint17_linear_8_651)"/>
<defs>
<linearGradient id="paint0_linear_8_651" x1="44.8929" y1="22.1187" x2="59.0396" y2="7.96282" gradientUnits="userSpaceOnUse">
<stop stop-color="#00AEEF"/>
<stop offset="1" stop-color="#00BDF2"/>
</linearGradient>
<linearGradient id="paint1_linear_8_651" x1="38.7501" y1="39.0001" x2="59.0701" y2="18.6701" gradientUnits="userSpaceOnUse">
<stop stop-color="#D0E8F8"/>
<stop offset="1" stop-color="#E1EEF9"/>
</linearGradient>
<linearGradient id="paint2_linear_8_651" x1="9" y1="42" x2="13" y2="42" gradientUnits="userSpaceOnUse">
<stop stop-color="#A1CFEE"/>
<stop offset="1" stop-color="#E1EEF9"/>
</linearGradient>
<linearGradient id="paint3_linear_8_651" x1="19" y1="42" x2="23" y2="42" gradientUnits="userSpaceOnUse">
<stop stop-color="#A1CFEE"/>
<stop offset="1" stop-color="#E1EEF9"/>
</linearGradient>
<linearGradient id="paint4_linear_8_651" x1="29" y1="42" x2="33" y2="42" gradientUnits="userSpaceOnUse">
<stop stop-color="#A1CFEE"/>
<stop offset="1" stop-color="#E1EEF9"/>
</linearGradient>
<linearGradient id="paint5_linear_8_651" x1="9" y1="58.28" x2="13" y2="58.28" gradientUnits="userSpaceOnUse">
<stop stop-color="#A1CFEE"/>
<stop offset="1" stop-color="#E1EEF9"/>
</linearGradient>
<linearGradient id="paint6_linear_8_651" x1="19" y1="58.28" x2="23" y2="58.28" gradientUnits="userSpaceOnUse">
<stop stop-color="#A1CFEE"/>
<stop offset="1" stop-color="#E1EEF9"/>
</linearGradient>
<linearGradient id="paint7_linear_8_651" x1="14" y1="50.28" x2="18" y2="50.28" gradientUnits="userSpaceOnUse">
<stop stop-color="#A1CFEE"/>
<stop offset="1" stop-color="#E1EEF9"/>
</linearGradient>
<linearGradient id="paint8_linear_8_651" x1="24" y1="50.28" x2="28" y2="50.28" gradientUnits="userSpaceOnUse">
<stop stop-color="#A1CFEE"/>
<stop offset="1" stop-color="#E1EEF9"/>
</linearGradient>
<linearGradient id="paint9_linear_8_651" x1="39" y1="42" x2="43" y2="42" gradientUnits="userSpaceOnUse">
<stop stop-color="#A1CFEE"/>
<stop offset="1" stop-color="#E1EEF9"/>
</linearGradient>
<linearGradient id="paint10_linear_8_651" x1="49" y1="42" x2="53" y2="42" gradientUnits="userSpaceOnUse">
<stop stop-color="#A1CFEE"/>
<stop offset="1" stop-color="#E1EEF9"/>
</linearGradient>
<linearGradient id="paint11_linear_8_651" x1="59" y1="42" x2="63" y2="42" gradientUnits="userSpaceOnUse">
<stop stop-color="#A1CFEE"/>
<stop offset="1" stop-color="#E1EEF9"/>
</linearGradient>
<linearGradient id="paint12_linear_8_651" x1="39" y1="58.28" x2="43" y2="58.28" gradientUnits="userSpaceOnUse">
<stop stop-color="#A1CFEE"/>
<stop offset="1" stop-color="#E1EEF9"/>
</linearGradient>
<linearGradient id="paint13_linear_8_651" x1="29" y1="58" x2="33" y2="58" gradientUnits="userSpaceOnUse">
<stop stop-color="#A1CFEE"/>
<stop offset="1" stop-color="#E1EEF9"/>
</linearGradient>
<linearGradient id="paint14_linear_8_651" x1="49" y1="58.28" x2="53" y2="58.28" gradientUnits="userSpaceOnUse">
<stop stop-color="#A1CFEE"/>
<stop offset="1" stop-color="#E1EEF9"/>
</linearGradient>
<linearGradient id="paint15_linear_8_651" x1="44" y1="50.28" x2="48" y2="50.28" gradientUnits="userSpaceOnUse">
<stop stop-color="#A1CFEE"/>
<stop offset="1" stop-color="#E1EEF9"/>
</linearGradient>
<linearGradient id="paint16_linear_8_651" x1="34" y1="50" x2="38" y2="50" gradientUnits="userSpaceOnUse">
<stop stop-color="#A1CFEE"/>
<stop offset="1" stop-color="#E1EEF9"/>
</linearGradient>
<linearGradient id="paint17_linear_8_651" x1="54" y1="50.28" x2="58" y2="50.28" gradientUnits="userSpaceOnUse">
<stop stop-color="#A1CFEE"/>
<stop offset="1" stop-color="#E1EEF9"/>
</linearGradient>
</defs>
</svg>
