<svg width="67" height="59" viewBox="0 0 67 59" fill="none" xmlns="http://www.w3.org/2000/svg">
<path d="M51.1028 30C49.2926 30 47.0764 31.2874 46.1658 32.861L40.3842 42.8965C39.4845 44.4701 40.2196 45.6475 42.0188 45.5155L46.7363 45.1633C48.5466 45.0313 49.3145 46.2307 48.4478 47.8263L43.1927 57.5207C42.326 59.1163 42.7649 59.4794 44.1582 58.324L63.138 42.6655C64.5313 41.5101 64.2022 40.6407 62.392 40.7398L55.1401 41.1139C53.3299 41.2019 52.5948 39.9915 53.4944 38.429L56.687 32.883C57.5867 31.3095 56.8516 30.022 55.0414 30.022H51.0809L51.1028 30Z" fill="url(#paint0_linear_8_904)"/>
<path d="M46 36.44C51.89 36.44 56.66 31.67 56.66 25.78C56.66 19.89 51.89 15.12 46 15.12C45.96 15.12 45.93 15.12 45.89 15.12C44.94 6.62 37.73 0 28.98 0C22.06 0 16.12 4.12999 13.45 10.05C13.37 10.05 13.28 10.05 13.2 10.05C5.91001 10.05 0 15.96 0 23.25C0 30.54 5.91001 36.45 13.2 36.45" fill="#A1CFEE"/>
<path d="M60.22 36.4401C63.92 36.4401 66.92 33.4401 66.92 29.7401C66.92 26.0401 63.92 23.0401 60.22 23.0401C60.2 23.0401 60.17 23.0401 60.15 23.0401C59.55 17.7001 55.03 13.55 49.53 13.55C45.19 13.55 41.45 16.1401 39.78 19.8601C39.73 19.8601 39.6701 19.8601 39.6201 19.8601C35.0401 19.8601 31.3301 23.5701 31.3301 28.1501C31.3301 32.7301 35.0401 36.4401 39.6201 36.4401" fill="url(#paint1_linear_8_904)"/>
<defs>
<linearGradient id="paint0_linear_8_904" x1="38.1461" y1="54.2306" x2="59.2844" y2="33.1554" gradientUnits="userSpaceOnUse">
<stop stop-color="#FDB728"/>
<stop offset="1" stop-color="#FFCD23"/>
</linearGradient>
<linearGradient id="paint1_linear_8_904" x1="38.7501" y1="39.0001" x2="59.0701" y2="18.6701" gradientUnits="userSpaceOnUse">
<stop stop-color="#D0E8F8"/>
<stop offset="1" stop-color="#E1EEF9"/>
</linearGradient>
</defs>
</svg>
