<svg width="67" height="59" viewBox="0 0 67 59" fill="none" xmlns="http://www.w3.org/2000/svg">
<path d="M56.2523 35C54.7438 35 52.897 36.0655 52.1382 37.3677L47.3201 45.673C46.5704 46.9752 47.183 47.9497 48.6824 47.8404L52.6136 47.549C54.1221 47.4397 54.7621 48.4323 54.0398 49.7528L49.6606 57.7758C48.9384 59.0962 49.3041 59.3968 50.4652 58.4406L66.2817 45.4818C67.4428 44.5256 67.1685 43.8061 65.66 43.8881L59.6167 44.1977C58.1082 44.2706 57.4957 43.2688 58.2454 41.9757L60.9059 37.3859C61.6556 36.0837 61.043 35.0182 59.5345 35.0182H56.2341L56.2523 35Z" fill="url(#paint0_linear_8_884)"/>
<path d="M46 36.44C51.89 36.44 56.66 31.67 56.66 25.78C56.66 19.89 51.89 15.12 46 15.12C45.96 15.12 45.93 15.12 45.89 15.12C44.94 6.62 37.73 0 28.98 0C22.06 0 16.12 4.12999 13.45 10.05C13.37 10.05 13.28 10.05 13.2 10.05C5.91001 10.05 0 15.96 0 23.25C0 30.54 5.91001 36.45 13.2 36.45" fill="#A1CFEE"/>
<path d="M60.22 36.4401C63.92 36.4401 66.92 33.4401 66.92 29.7401C66.92 26.0401 63.92 23.0401 60.22 23.0401C60.2 23.0401 60.17 23.0401 60.15 23.0401C59.55 17.7001 55.03 13.55 49.53 13.55C45.19 13.55 41.45 16.1401 39.78 19.8601C39.73 19.8601 39.6701 19.8601 39.6201 19.8601C35.0401 19.8601 31.3301 23.5701 31.3301 28.1501C31.3301 32.7301 35.0401 36.4401 39.6201 36.4401" fill="url(#paint1_linear_8_884)"/>
<defs>
<linearGradient id="paint0_linear_8_884" x1="45.4551" y1="55.0529" x2="62.9488" y2="37.4903" gradientUnits="userSpaceOnUse">
<stop stop-color="#FDB728"/>
<stop offset="1" stop-color="#FFCD23"/>
</linearGradient>
<linearGradient id="paint1_linear_8_884" x1="38.7501" y1="39.0001" x2="59.0701" y2="18.6701" gradientUnits="userSpaceOnUse">
<stop stop-color="#D0E8F8"/>
<stop offset="1" stop-color="#E1EEF9"/>
</linearGradient>
</defs>
</svg>
