<svg width="67" height="60" viewBox="0 0 67 60" fill="none" xmlns="http://www.w3.org/2000/svg">
<path d="M54.2576 26C46.9528 26 41 20.0602 41 12.751C41 6.88371 44.9474 1.65121 50.5916 0.0279585C50.8366 -0.0445891 51.0997 0.0279608 51.2722 0.200261C51.4536 0.38163 51.5171 0.635547 51.4445 0.880395C51.136 1.95954 50.9727 3.06588 50.9727 4.15409C50.9727 10.6924 56.2993 16.0156 62.8419 16.0156C63.9308 16.0156 65.0288 15.8615 66.1177 15.5441C66.3627 15.4715 66.6258 15.5441 66.7982 15.7164C66.9797 15.8977 67.0432 16.1517 66.9706 16.3965C65.3463 22.0461 60.1105 25.9819 54.2395 25.9819L54.2576 26Z" fill="url(#paint0_linear_8_943)"/>
<path d="M40.6 32.7C38.95 32.7 36.93 33.8699 36.1 35.2999L30.83 44.4199C30.01 45.8499 30.68 46.9199 32.32 46.7999L36.62 46.4799C38.27 46.3599 38.97 47.4499 38.18 48.8999L33.39 57.7099C32.6 59.1599 33 59.49 34.27 58.44L51.57 44.2099C52.84 43.1599 52.54 42.3699 50.89 42.4599L44.28 42.7999C42.63 42.8799 41.96 41.7799 42.78 40.3599L45.69 35.3199C46.51 33.8899 45.84 32.72 44.19 32.72H40.58L40.6 32.7Z" fill="url(#paint1_linear_8_943)"/>
<path d="M46 36.44C51.89 36.44 56.66 31.67 56.66 25.78C56.66 19.89 51.89 15.12 46 15.12C45.96 15.12 45.93 15.12 45.89 15.12C44.94 6.62 37.73 0 28.98 0C22.06 0 16.12 4.12999 13.45 10.05C13.37 10.05 13.28 10.05 13.2 10.05C5.91001 10.05 0 15.96 0 23.25C0 30.54 5.91001 36.45 13.2 36.45" fill="#A1CFEE"/>
<path d="M60.22 36.4401C63.92 36.4401 66.92 33.4401 66.92 29.7401C66.92 26.0401 63.92 23.0401 60.22 23.0401C60.2 23.0401 60.17 23.0401 60.15 23.0401C59.55 17.7001 55.03 13.55 49.53 13.55C45.19 13.55 41.45 16.1401 39.78 19.8601C39.73 19.8601 39.6701 19.8601 39.6201 19.8601C35.0401 19.8601 31.3301 23.5701 31.3301 28.1501C31.3301 32.7301 35.0401 36.4401 39.6201 36.4401" fill="url(#paint2_linear_8_943)"/>
<path d="M5.81005 58.9499C5.47005 58.9499 5.13005 58.8599 4.81005 58.6799C3.85005 58.1299 3.53007 56.8999 4.08007 55.9499L10.5801 44.69C11.1301 43.73 12.36 43.4099 13.31 43.9599C14.27 44.5099 14.59 45.74 14.04 46.69L7.54003 57.9499C7.17003 58.5899 6.50005 58.9499 5.81005 58.9499Z" fill="url(#paint3_linear_8_943)"/>
<path d="M16.0943 59C15.738 59 15.3817 58.9115 15.0464 58.7346C14.0404 58.1939 13.705 56.9847 14.2814 56.0508L21.0928 44.9816C21.6692 44.0379 22.9581 43.7233 23.9536 44.264C24.9596 44.8047 25.2949 46.0138 24.7186 46.9477L17.9072 58.0169C17.5195 58.6461 16.8174 59 16.0943 59Z" fill="url(#paint4_linear_8_943)"/>
<defs>
<linearGradient id="paint0_linear_8_943" x1="44.8929" y1="22.1187" x2="59.0396" y2="7.96282" gradientUnits="userSpaceOnUse">
<stop stop-color="#00AEEF"/>
<stop offset="1" stop-color="#00BDF2"/>
</linearGradient>
<linearGradient id="paint1_linear_8_943" x1="28.79" y1="54.72" x2="48" y2="35.51" gradientUnits="userSpaceOnUse">
<stop stop-color="#FDB728"/>
<stop offset="1" stop-color="#FFCD23"/>
</linearGradient>
<linearGradient id="paint2_linear_8_943" x1="38.7501" y1="39.0001" x2="59.0701" y2="18.6701" gradientUnits="userSpaceOnUse">
<stop stop-color="#D0E8F8"/>
<stop offset="1" stop-color="#E1EEF9"/>
</linearGradient>
<linearGradient id="paint3_linear_8_943" x1="3.82006" y1="51.3299" x2="14.32" y2="51.3299" gradientUnits="userSpaceOnUse">
<stop stop-color="#00AEEF"/>
<stop offset="1" stop-color="#00BDF2"/>
</linearGradient>
<linearGradient id="paint4_linear_8_943" x1="13.9985" y1="51.5091" x2="25.0015" y2="51.5091" gradientUnits="userSpaceOnUse">
<stop stop-color="#00AEEF"/>
<stop offset="1" stop-color="#00BDF2"/>
</linearGradient>
</defs>
</svg>
