<?xml version="1.0" encoding="UTF-8"?><svg id="Layer_1" xmlns="http://www.w3.org/2000/svg" xmlns:xlink="http://www.w3.org/1999/xlink" viewBox="0 0 387 206.67"><defs><clipPath id="clippath"><rect x="74.18" width="312.82" height="181.33" style="fill:none;"/></clipPath><clipPath id="clippath-1"><rect y="25.33" width="312.84" height="181.33" style="fill:none;"/></clipPath></defs><g style="clip-path:url(#clippath);"><path d="M190.01,.06c-2.27,0-4.54,.11-6.79,.33-2.26,.22-4.51,.55-6.73,.99-2.22,.44-4.42,.99-6.6,1.65-2.17,.66-4.31,1.42-6.4,2.29-2.1,.86-4.15,1.83-6.15,2.91-2.01,1.07-3.95,2.23-5.84,3.49-1.89,1.26-3.71,2.61-5.46,4.05s-3.43,2.96-5.04,4.56c-1.6,1.6-3.13,3.28-4.57,5.04-1.44,1.75-2.79,3.57-4.05,5.46s-2.43,3.83-3.49,5.82c-1.07,2-2.04,4.05-2.91,6.15-.87,2.09-1.63,4.22-2.29,6.4-.66,2.17-1.21,4.36-1.65,6.59s-.78,4.46-1,6.72c-.22,2.26-.33,4.52-.33,6.78,.02,2.57,.17,5.12,.47,7.67-26.15,4.69-45.76,25.78-45.76,51.24,0,28.93,25.32,52.21,56.77,52.21h202.55c28.96,0,52.28-21.65,52.28-48.54s-23.03-48.25-51.74-48.52c-.22-1.79-.53-3.57-.92-5.33-.39-1.77-.85-3.51-1.4-5.23-.55-1.72-1.17-3.42-1.86-5.08-.7-1.66-1.47-3.29-2.32-4.89-.85-1.59-1.77-3.15-2.76-4.66-.98-1.51-2.04-2.98-3.16-4.4s-2.3-2.78-3.55-4.09-2.54-2.56-3.9-3.76c-1.35-1.2-2.76-2.33-4.22-3.4-1.46-1.06-2.96-2.06-4.52-2.99-1.55-.93-3.14-1.79-4.76-2.58-1.63-.79-3.29-1.5-4.98-2.14-1.69-.64-3.41-1.2-5.15-1.68-1.74-.48-3.5-.89-5.28-1.21-1.78-.33-3.57-.57-5.37-.73-1.8-.16-3.6-.24-5.41-.24-8.64,.02-16.89,1.81-24.74,5.37-1.48-2.72-3.14-5.34-4.97-7.85s-3.83-4.88-5.98-7.11c-2.15-2.24-4.44-4.32-6.88-6.26-2.43-1.93-4.98-3.69-7.65-5.28-2.67-1.59-5.43-2.99-8.29-4.21s-5.79-2.23-8.78-3.06c-3-.82-6.04-1.44-9.11-1.85-3.08-.42-6.17-.63-9.28-.63Z" style="fill:#86a3bf;"/></g><g style="clip-path:url(#clippath-1);"><path d="M114.64,26.11c-2.27,0-4.54,.11-6.79,.33-2.26,.22-4.51,.56-6.73,1-2.23,.44-4.43,.99-6.6,1.65-2.17,.66-4.31,1.42-6.4,2.29-2.1,.87-4.15,1.84-6.15,2.91-2.01,1.07-3.95,2.23-5.83,3.49-1.89,1.26-3.71,2.61-5.47,4.05-1.76,1.44-3.43,2.96-5.04,4.56-1.61,1.6-3.13,3.28-4.57,5.03-1.44,1.76-2.79,3.57-4.05,5.46s-2.43,3.83-3.49,5.83c-1.07,2-2.04,4.05-2.91,6.14-.86,2.09-1.63,4.23-2.29,6.4-.66,2.17-1.21,4.37-1.65,6.59-.44,2.22-.78,4.47-1,6.72-.22,2.26-.33,4.52-.33,6.79,.02,2.56,.17,5.11,.47,7.66C19.65,107.69,.03,128.78,.03,154.24c0,28.93,25.32,52.21,56.77,52.21h202.55c28.96,0,52.28-21.65,52.28-48.53s-23.03-48.26-51.74-48.52c-.22-1.79-.53-3.57-.92-5.33-.39-1.77-.85-3.51-1.4-5.23-.55-1.72-1.17-3.42-1.86-5.08-.7-1.67-1.47-3.3-2.32-4.9-.85-1.59-1.77-3.15-2.75-4.66-.99-1.51-2.04-2.98-3.16-4.4s-2.3-2.78-3.55-4.09c-1.24-1.31-2.54-2.56-3.9-3.76-1.36-1.19-2.77-2.32-4.22-3.39s-2.96-2.07-4.52-3c-1.55-.93-3.14-1.79-4.76-2.58-1.63-.79-3.29-1.5-4.98-2.14-1.69-.64-3.41-1.2-5.15-1.68-1.74-.48-3.5-.89-5.28-1.21-1.78-.32-3.57-.57-5.37-.73-1.8-.17-3.6-.24-5.41-.24-8.64,.01-16.89,1.8-24.74,5.37-1.48-2.73-3.14-5.35-4.97-7.85s-3.83-4.88-5.98-7.11-4.44-4.32-6.88-6.26c-2.44-1.93-4.98-3.69-7.66-5.28s-5.43-2.99-8.29-4.21c-2.86-1.21-5.79-2.23-8.78-3.06-3-.82-6.04-1.44-9.11-1.86s-6.17-.63-9.28-.63Z" style="fill:#c6e0f7;"/></g></svg>