<?xml version="1.0" encoding="UTF-8"?><svg id="Layer_1" xmlns="http://www.w3.org/2000/svg" xmlns:xlink="http://www.w3.org/1999/xlink" viewBox="0 0 454.7 420.71"><defs><linearGradient id="New_Gradient_Swatch_copy_2" x1="62.08" y1="296.48" x2="89.26" y2="296.48" gradientUnits="userSpaceOnUse"><stop offset="0" stop-color="#cfe7f7"/><stop offset="1" stop-color="#e1edf8"/></linearGradient><linearGradient id="New_Gradient_Swatch_copy_2-2" x1="130.03" x2="157.21" xlink:href="#New_Gradient_Swatch_copy_2"/><linearGradient id="New_Gradient_Swatch_copy_2-3" x1="197.98" x2="225.16" xlink:href="#New_Gradient_Swatch_copy_2"/><linearGradient id="New_Gradient_Swatch_copy_2-4" y1="407.12" y2="407.12" xlink:href="#New_Gradient_Swatch_copy_2"/><linearGradient id="New_Gradient_Swatch_copy_2-5" x1="130.03" y1="407.12" x2="157.21" y2="407.12" xlink:href="#New_Gradient_Swatch_copy_2"/><linearGradient id="New_Gradient_Swatch_copy_2-6" x1="96.05" y1="352.76" x2="123.23" y2="352.76" xlink:href="#New_Gradient_Swatch_copy_2"/><linearGradient id="New_Gradient_Swatch_copy_2-7" x1="164" y1="352.76" x2="191.18" y2="352.76" xlink:href="#New_Gradient_Swatch_copy_2"/><linearGradient id="New_Gradient_Swatch_copy_2-8" x1="0" y1="123.8" x2="385.05" y2="123.8" xlink:href="#New_Gradient_Swatch_copy_2"/><linearGradient id="New_Gradient_Swatch_copy_2-9" x1="263.28" y1="264.98" x2="401.39" y2="126.87" xlink:href="#New_Gradient_Swatch_copy_2"/><linearGradient id="New_Gradient_Swatch_copy_2-10" x1="281.89" x2="309.07" xlink:href="#New_Gradient_Swatch_copy_2"/><linearGradient id="New_Gradient_Swatch_copy_2-11" x1="201.58" y1="388.84" x2="228.76" y2="388.84" xlink:href="#New_Gradient_Swatch_copy_2"/><linearGradient id="New_Gradient_Swatch_copy_2-12" x1="235.55" y1="334.48" x2="262.73" y2="334.48" xlink:href="#New_Gradient_Swatch_copy_2"/><linearGradient id="New_Gradient_Swatch_copy_2-13" x1="357.95" y1="297.44" x2="385.13" y2="297.44" xlink:href="#New_Gradient_Swatch_copy_2"/><linearGradient id="New_Gradient_Swatch_copy_2-14" x1="268.3" y1="388.84" x2="295.48" y2="388.84" xlink:href="#New_Gradient_Swatch_copy_2"/><linearGradient id="New_Gradient_Swatch_copy_2-15" x1="310.39" y1="340.13" x2="337.57" y2="340.13" xlink:href="#New_Gradient_Swatch_copy_2"/></defs><g id="Blizzard"><circle cx="75.67" cy="296.48" r="13.59" style="fill:url(#New_Gradient_Swatch_copy_2);"/><circle cx="143.62" cy="296.48" r="13.59" style="fill:url(#New_Gradient_Swatch_copy_2-2);"/><circle cx="211.57" cy="296.48" r="13.59" style="fill:url(#New_Gradient_Swatch_copy_2-3);"/><circle cx="75.67" cy="407.12" r="13.59" style="fill:url(#New_Gradient_Swatch_copy_2-4);"/><circle cx="143.62" cy="407.12" r="13.59" style="fill:url(#New_Gradient_Swatch_copy_2-5);"/><circle cx="109.64" cy="352.76" r="13.59" style="fill:url(#New_Gradient_Swatch_copy_2-6);"/><circle cx="177.59" cy="352.76" r="13.59" style="fill:url(#New_Gradient_Swatch_copy_2-7);"/><path d="M312.59,247.6c40.02,0,72.46-32.44,72.46-72.46s-32.44-72.46-72.46-72.46c-.25,0-.49,.03-.74,.04C305.41,44.93,256.42,0,196.91,0c-46.99,0-87.41,28.04-105.52,68.28-.57-.01-1.14-.04-1.71-.04C40.15,68.24,0,108.39,0,157.92s40.15,89.68,89.68,89.68" style="fill:url(#New_Gradient_Swatch_copy_2-8);"/><path d="M409.2,247.6c25.13,0,45.5-20.37,45.5-45.5s-20.37-45.5-45.5-45.5c-.16,0-.31,.02-.47,.02-4.05-36.28-34.81-64.5-72.17-64.5-29.51,0-54.89,17.61-66.26,42.88-.36,0-.72-.03-1.08-.03-31.1,0-56.32,25.21-56.32,56.32s25.21,56.32,56.32,56.32" style="fill:url(#New_Gradient_Swatch_copy_2-9);"/><circle cx="295.48" cy="296.48" r="13.59" style="fill:url(#New_Gradient_Swatch_copy_2-10);"/><circle cx="215.17" cy="388.84" r="13.59" style="fill:url(#New_Gradient_Swatch_copy_2-11);"/><circle cx="249.14" cy="334.48" r="13.59" style="fill:url(#New_Gradient_Swatch_copy_2-12);"/><circle cx="371.54" cy="297.44" r="13.59" style="fill:url(#New_Gradient_Swatch_copy_2-13);"/><circle cx="281.89" cy="388.84" r="13.59" style="fill:url(#New_Gradient_Swatch_copy_2-14);"/><circle cx="323.98" cy="340.13" r="13.59" style="fill:url(#New_Gradient_Swatch_copy_2-15);"/></g></svg>