<?xml version="1.0" encoding="UTF-8"?><svg id="Layer_1" xmlns="http://www.w3.org/2000/svg" xmlns:xlink="http://www.w3.org/1999/xlink" viewBox="0 0 451.05 438.85"><defs><linearGradient id="New_Gradient_Swatch_copy_2" x1="0" y1="122.81" x2="381.96" y2="122.81" gradientUnits="userSpaceOnUse"><stop offset="0" stop-color="#cfe7f7"/><stop offset="1" stop-color="#e1edf8"/></linearGradient><linearGradient id="New_Gradient_Swatch_copy_2-2" x1="261.17" y1="262.86" x2="398.17" y2="125.85" xlink:href="#New_Gradient_Swatch_copy_2"/><linearGradient id="New_Gradient_Swatch_copy" x1="32.46" y1="346.55" x2="103.23" y2="346.55" gradientUnits="userSpaceOnUse"><stop offset="0" stop-color="#00adee"/><stop offset="1" stop-color="#00bcf1"/></linearGradient><linearGradient id="New_Gradient_Swatch_copy-2" x1="80.59" y1="366.99" x2="174.96" y2="366.99" xlink:href="#New_Gradient_Swatch_copy"/><linearGradient id="New_Gradient_Swatch_copy-3" x1="247.62" y1="343.64" x2="315.03" y2="343.64" xlink:href="#New_Gradient_Swatch_copy"/><linearGradient id="New_Gradient_Swatch_copy-4" x1="167.47" y1="355.31" x2="248.36" y2="355.31" xlink:href="#New_Gradient_Swatch_copy"/><linearGradient id="New_Gradient_Swatch_copy-5" x1="323.72" y1="331.35" x2="391.13" y2="331.35" xlink:href="#New_Gradient_Swatch_copy"/></defs><g id="Heavy_Rain"><path d="M310.08,245.62c39.7,0,71.88-32.18,71.88-71.88s-32.18-71.88-71.88-71.88c-.25,0-.49,.03-.74,.04C302.95,44.57,254.36,0,195.33,0c-46.61,0-86.71,27.81-104.67,67.73-.57-.01-1.13-.04-1.7-.04C39.83,67.69,0,107.52,0,156.65s39.83,88.96,88.96,88.96" style="fill:url(#New_Gradient_Swatch_copy_2);"/><path d="M405.92,245.62c24.93,0,45.14-20.21,45.14-45.14s-20.21-45.14-45.14-45.14c-.16,0-.31,.02-.46,.02-4.01-35.99-34.53-63.98-71.59-63.98-29.27,0-54.45,17.46-65.73,42.53-.36,0-.71-.03-1.07-.03-30.85,0-55.86,25.01-55.86,55.86s25.01,55.86,55.86,55.86" style="fill:url(#New_Gradient_Swatch_copy_2-2);"/><path d="M45.93,397.97c-2.29,0-4.6-.58-6.73-1.81-6.45-3.72-8.66-11.97-4.93-18.41l43.81-75.87c3.72-6.45,11.97-8.66,18.41-4.93,6.45,3.72,8.66,11.97,4.93,18.41l-43.81,75.87c-2.49,4.32-7.03,6.74-11.69,6.74Z" style="fill:url(#New_Gradient_Swatch_copy);"/><path d="M94.05,438.85c-2.29,0-4.6-.58-6.73-1.81-6.45-3.72-8.66-11.97-4.93-18.41l67.41-116.75c3.72-6.45,11.97-8.66,18.41-4.93,6.45,3.72,8.66,11.97,4.93,18.41l-67.41,116.75c-2.49,4.32-7.03,6.74-11.69,6.74Z" style="fill:url(#New_Gradient_Swatch_copy-2);"/><path d="M261.09,392.15c-2.29,0-4.6-.58-6.73-1.81-6.45-3.72-8.66-11.97-4.93-18.41l40.44-70.05c3.72-6.45,11.96-8.66,18.41-4.93,6.45,3.72,8.66,11.97,4.93,18.41l-40.44,70.05c-2.49,4.32-7.03,6.74-11.69,6.74Z" style="fill:url(#New_Gradient_Swatch_copy-3);"/><path d="M180.94,415.49c-2.29,0-4.6-.58-6.73-1.81-6.45-3.72-8.66-11.97-4.93-18.41l53.92-93.4c3.72-6.45,11.97-8.66,18.41-4.93,6.45,3.72,8.66,11.97,4.93,18.41l-53.92,93.4c-2.49,4.32-7.03,6.74-11.69,6.74Z" style="fill:url(#New_Gradient_Swatch_copy-4);"/><path d="M337.19,379.86c-2.29,0-4.6-.58-6.73-1.81-6.45-3.72-8.66-11.97-4.93-18.41l40.44-70.05c3.72-6.45,11.96-8.66,18.41-4.93,6.45,3.72,8.66,11.97,4.93,18.41l-40.44,70.05c-2.49,4.32-7.03,6.74-11.69,6.74Z" style="fill:url(#New_Gradient_Swatch_copy-5);"/></g></svg>