<?xml version="1.0" encoding="UTF-8"?><svg id="Layer_1" xmlns="http://www.w3.org/2000/svg" xmlns:xlink="http://www.w3.org/1999/xlink" viewBox="0 0 478.15 442.22"><defs><linearGradient id="New_Gradient_Swatch_copy_2" x1="0" y1="130.19" x2="404.91" y2="130.19" gradientUnits="userSpaceOnUse"><stop offset="0" stop-color="#cfe7f7"/><stop offset="1" stop-color="#e1edf8"/></linearGradient><linearGradient id="New_Gradient_Swatch_copy_2-2" x1="276.85" y1="278.65" x2="422.08" y2="133.41" xlink:href="#New_Gradient_Swatch_copy_2"/><linearGradient id="New_Gradient_Swatch_copy_2-3" x1="73.44" y1="354.07" x2="142.47" y2="354.07" xlink:href="#New_Gradient_Swatch_copy_2"/><linearGradient id="New_Gradient_Swatch_copy_2-4" x1="273.63" y1="369.49" x2="342.66" y2="369.49" xlink:href="#New_Gradient_Swatch_copy_2"/><linearGradient id="New_Gradient_Swatch_copy_2-5" x1="357.72" y1="300.45" x2="426.75" y2="300.45" xlink:href="#New_Gradient_Swatch_copy_2"/><linearGradient id="New_Gradient_Swatch_copy_2-6" x1="189.37" y1="312.19" x2="258.41" y2="312.19" xlink:href="#New_Gradient_Swatch_copy_2"/><linearGradient id="New_Gradient_Swatch_copy_2-7" x1="167.94" y1="407.71" x2="236.97" y2="407.71" xlink:href="#New_Gradient_Swatch_copy_2"/></defs><g id="Hail"><path d="M328.71,260.37c42.08,0,76.2-34.11,76.2-76.2s-34.11-76.2-76.2-76.2c-.26,0-.52,.04-.78,.04C321.15,47.25,269.64,0,207.07,0c-49.41,0-91.92,29.48-110.96,71.8-.6-.01-1.2-.05-1.8-.05C42.22,71.76,0,113.98,0,166.06s42.22,94.31,94.31,94.31" style="fill:url(#New_Gradient_Swatch_copy_2);"/><path d="M430.3,260.37c26.43,0,47.85-21.42,47.85-47.85s-21.42-47.85-47.85-47.85c-.17,0-.32,.02-.49,.02-4.26-38.16-36.6-67.83-75.9-67.83-31.03,0-57.72,18.51-69.67,45.09-.38,0-.75-.03-1.13-.03-32.71,0-59.22,26.51-59.22,59.22s26.51,59.22,59.22,59.22" style="fill:url(#New_Gradient_Swatch_copy_2-2);"/><circle cx="107.96" cy="354.07" r="34.52" style="fill:url(#New_Gradient_Swatch_copy_2-3);"/><circle cx="308.15" cy="369.49" r="34.52" style="fill:url(#New_Gradient_Swatch_copy_2-4);"/><circle cx="392.23" cy="300.45" r="34.52" style="fill:url(#New_Gradient_Swatch_copy_2-5);"/><circle cx="223.89" cy="312.19" r="34.52" style="fill:url(#New_Gradient_Swatch_copy_2-6);"/><circle cx="202.45" cy="407.71" r="34.52" style="fill:url(#New_Gradient_Swatch_copy_2-7);"/></g></svg>