<?xml version="1.0" encoding="UTF-8"?><svg id="Layer_1" xmlns="http://www.w3.org/2000/svg" xmlns:xlink="http://www.w3.org/1999/xlink" viewBox="0 0 478.6 428.89"><defs><linearGradient id="New_Gradient_Swatch_copy_2" x1="0" y1="130.31" x2="405.29" y2="130.31" gradientUnits="userSpaceOnUse"><stop offset="0" stop-color="#cfe7f7"/><stop offset="1" stop-color="#e1edf8"/></linearGradient><linearGradient id="New_Gradient_Swatch_copy_2-2" x1="224.1" y1="178.79" x2="478.6" y2="178.79" xlink:href="#New_Gradient_Swatch_copy_2"/><linearGradient id="New_Gradient_Swatch_copy" x1="54.67" y1="345.35" x2="103.93" y2="345.35" gradientUnits="userSpaceOnUse"><stop offset="0" stop-color="#00adee"/><stop offset="1" stop-color="#00bcf1"/></linearGradient><linearGradient id="New_Gradient_Swatch_copy-2" x1="169.9" x2="219.16" xlink:href="#New_Gradient_Swatch_copy"/><linearGradient id="New_Gradient_Swatch_copy-3" x1="285.14" x2="334.4" xlink:href="#New_Gradient_Swatch_copy"/><linearGradient id="New_Gradient_Swatch_copy-4" x1="90.43" y1="396.7" x2="139.69" y2="396.7" xlink:href="#New_Gradient_Swatch_copy"/><linearGradient id="New_Gradient_Swatch_copy-5" x1="209.24" y1="396.7" x2="258.5" y2="396.7" xlink:href="#New_Gradient_Swatch_copy"/><linearGradient id="New_Gradient_Swatch_copy-6" x1="328.05" y1="396.7" x2="377.31" y2="396.7" xlink:href="#New_Gradient_Swatch_copy"/></defs><g id="Drizzle"><path d="M329.02,260.62c42.12,0,76.27-34.15,76.27-76.27s-34.15-76.27-76.27-76.27c-.26,0-.52,.04-.78,.04C321.46,47.3,269.89,0,207.26,0c-49.46,0-92,29.51-111.06,71.87-.6-.01-1.2-.05-1.8-.05C42.26,71.82,0,114.09,0,166.22s42.26,94.4,94.4,94.4" style="fill:url(#New_Gradient_Swatch_copy_2);"/><path d="M430.71,260.62c26.45,0,47.89-21.44,47.89-47.89s-21.44-47.89-47.89-47.89c-.17,0-.32,.02-.49,.02-4.26-38.19-36.64-67.89-75.97-67.89-31.06,0-57.77,18.53-69.74,45.13-.38,0-.75-.03-1.13-.03-32.74,0-59.28,26.54-59.28,59.28s26.54,59.28,59.28,59.28" style="fill:url(#New_Gradient_Swatch_copy_2-2);"/><path d="M68.96,377.54c-2.42,0-4.88-.62-7.14-1.92-6.84-3.95-9.18-12.7-5.24-19.54l20.65-35.76c3.95-6.84,12.68-9.2,19.54-5.23,6.84,3.95,9.18,12.7,5.24,19.54l-20.65,35.76c-2.65,4.59-7.46,7.16-12.4,7.16Z" style="fill:url(#New_Gradient_Swatch_copy);"/><path d="M184.19,377.54c-2.42,0-4.88-.62-7.14-1.92-6.84-3.95-9.18-12.7-5.24-19.54l20.65-35.76c3.95-6.84,12.68-9.2,19.54-5.23,6.84,3.95,9.18,12.7,5.24,19.54l-20.65,35.76c-2.65,4.59-7.46,7.16-12.4,7.16Z" style="fill:url(#New_Gradient_Swatch_copy-2);"/><path d="M299.43,377.54c-2.42,0-4.88-.62-7.14-1.92-6.84-3.95-9.18-12.7-5.24-19.54l20.65-35.76c3.95-6.84,12.68-9.2,19.54-5.23,6.84,3.95,9.18,12.7,5.24,19.54l-20.65,35.76c-2.65,4.59-7.46,7.16-12.4,7.16Z" style="fill:url(#New_Gradient_Swatch_copy-3);"/><path d="M104.72,428.89c-2.42,0-4.88-.62-7.14-1.92-6.84-3.95-9.18-12.7-5.24-19.54l20.65-35.76c3.95-6.84,12.68-9.2,19.54-5.23,6.84,3.95,9.18,12.7,5.24,19.54l-20.65,35.76c-2.65,4.59-7.46,7.16-12.4,7.16Z" style="fill:url(#New_Gradient_Swatch_copy-4);"/><path d="M223.54,428.89c-2.42,0-4.88-.62-7.14-1.92-6.84-3.95-9.18-12.7-5.24-19.54l20.65-35.76c3.95-6.84,12.68-9.2,19.54-5.23,6.84,3.95,9.18,12.7,5.24,19.54l-20.65,35.76c-2.65,4.59-7.46,7.16-12.4,7.16Z" style="fill:url(#New_Gradient_Swatch_copy-5);"/><path d="M342.34,428.89c-2.42,0-4.88-.62-7.14-1.92-6.84-3.95-9.18-12.7-5.24-19.54l20.65-35.76c3.95-6.84,12.68-9.2,19.54-5.23,6.84,3.95,9.18,12.7,5.24,19.54l-20.65,35.76c-2.65,4.59-7.46,7.16-12.4,7.16Z" style="fill:url(#New_Gradient_Swatch_copy-6);"/></g></svg>