<?xml version="1.0" encoding="UTF-8"?><svg id="Layer_1" xmlns="http://www.w3.org/2000/svg" xmlns:xlink="http://www.w3.org/1999/xlink" viewBox="0 0 432.54 387.61"><defs><linearGradient id="New_Gradient_Swatch_copy_2" x1="76.3" y1="261.86" x2="285.52" y2="52.64" gradientUnits="userSpaceOnUse"><stop offset="0" stop-color="#cfe7f7"/><stop offset="1" stop-color="#e1edf8"/></linearGradient><linearGradient id="New_Gradient_Swatch_copy_2-2" x1="202.53" y1="161.58" x2="432.54" y2="161.58" xlink:href="#New_Gradient_Swatch_copy_2"/><linearGradient id="New_Gradient_Swatch_copy" x1="65.56" y1="312.11" x2="110.08" y2="312.11" gradientUnits="userSpaceOnUse"><stop offset="0" stop-color="#00adee"/><stop offset="1" stop-color="#00bcf1"/></linearGradient><linearGradient id="New_Gradient_Swatch_copy-2" x1="169.71" x2="214.23" xlink:href="#New_Gradient_Swatch_copy"/><linearGradient id="New_Gradient_Swatch_copy-3" x1="273.85" x2="318.37" xlink:href="#New_Gradient_Swatch_copy"/><linearGradient id="New_Gradient_Swatch_copy-4" x1="97.88" y1="358.52" x2="142.4" y2="358.52" xlink:href="#New_Gradient_Swatch_copy"/><linearGradient id="New_Gradient_Swatch_copy-5" x1="205.26" y1="358.52" x2="249.78" y2="358.52" xlink:href="#New_Gradient_Swatch_copy"/><linearGradient id="New_Gradient_Swatch_copy-6" x1="312.63" y1="358.52" x2="357.15" y2="358.52" xlink:href="#New_Gradient_Swatch_copy"/></defs><g id="Drizzle_Night"><path d="M297.35,235.53c38.07,0,68.93-30.86,68.93-68.93s-30.86-68.93-68.93-68.93c-.24,0-.47,.03-.7,.04C290.52,42.74,243.92,0,187.31,0c-44.7,0-83.15,26.67-100.37,64.95-.54-.01-1.08-.04-1.63-.04C38.2,64.91,0,103.11,0,150.22s38.2,85.31,85.31,85.31" style="fill:url(#New_Gradient_Swatch_copy_2);"/><path d="M389.25,235.53c23.9,0,43.28-19.38,43.28-43.28s-19.38-43.28-43.28-43.28c-.15,0-.29,.02-.44,.02-3.85-34.52-33.11-61.36-68.66-61.36-28.07,0-52.21,16.75-63.03,40.79-.34,0-.68-.03-1.02-.03-29.59,0-53.57,23.98-53.57,53.57s23.98,53.57,53.57,53.57" style="fill:url(#New_Gradient_Swatch_copy_2-2);"/><path d="M78.48,341.2c-2.19,0-4.41-.56-6.45-1.74-6.19-3.57-8.3-11.48-4.73-17.66l18.66-32.32c3.57-6.18,11.46-8.32,17.66-4.73,6.19,3.57,8.3,11.48,4.73,17.66l-18.66,32.32c-2.4,4.15-6.74,6.47-11.21,6.47Z" style="fill:url(#New_Gradient_Swatch_copy);"/><path d="M182.63,341.2c-2.19,0-4.41-.56-6.45-1.74-6.19-3.57-8.3-11.48-4.73-17.66l18.66-32.32c3.57-6.18,11.46-8.32,17.66-4.73,6.19,3.57,8.3,11.48,4.73,17.66l-18.66,32.32c-2.4,4.15-6.74,6.47-11.21,6.47Z" style="fill:url(#New_Gradient_Swatch_copy-2);"/><path d="M286.77,341.2c-2.19,0-4.41-.56-6.45-1.74-6.19-3.57-8.3-11.48-4.73-17.66l18.66-32.32c3.57-6.18,11.46-8.32,17.66-4.73,6.19,3.57,8.3,11.48,4.73,17.66l-18.66,32.32c-2.4,4.15-6.74,6.47-11.21,6.47Z" style="fill:url(#New_Gradient_Swatch_copy-3);"/><path d="M110.8,387.61c-2.19,0-4.41-.56-6.45-1.74-6.19-3.57-8.3-11.48-4.73-17.66l18.66-32.32c3.57-6.18,11.46-8.31,17.66-4.73,6.19,3.57,8.3,11.48,4.73,17.66l-18.66,32.32c-2.4,4.15-6.74,6.47-11.21,6.47Z" style="fill:url(#New_Gradient_Swatch_copy-4);"/><path d="M218.18,387.61c-2.19,0-4.41-.56-6.45-1.74-6.19-3.57-8.3-11.48-4.73-17.66l18.66-32.32c3.57-6.18,11.46-8.31,17.66-4.73,6.19,3.57,8.3,11.48,4.73,17.66l-18.66,32.32c-2.4,4.15-6.74,6.47-11.21,6.47Z" style="fill:url(#New_Gradient_Swatch_copy-5);"/><path d="M325.55,387.61c-2.19,0-4.41-.56-6.45-1.74-6.19-3.57-8.3-11.48-4.73-17.66l18.66-32.32c3.57-6.18,11.46-8.31,17.66-4.73,6.19,3.57,8.3,11.48,4.73,17.66l-18.66,32.32c-2.4,4.15-6.74,6.47-11.21,6.47Z" style="fill:url(#New_Gradient_Swatch_copy-6);"/></g></svg>