<?xml version="1.0" encoding="UTF-8"?><svg id="Layer_1" xmlns="http://www.w3.org/2000/svg" xmlns:xlink="http://www.w3.org/1999/xlink" viewBox="0 0 419.31 228.33"><defs><linearGradient id="New_Gradient_Swatch_copy_2" x1="0" y1="114.17" x2="355.08" y2="114.17" gradientUnits="userSpaceOnUse"><stop offset="0" stop-color="#cfe7f7"/><stop offset="1" stop-color="#e1edf8"/></linearGradient><linearGradient id="New_Gradient_Swatch_copy_2-2" x1="242.79" y1="244.36" x2="370.14" y2="117" xlink:href="#New_Gradient_Swatch_copy_2"/></defs><g id="Mostly_Cloudy"><path d="M288.26,228.33c36.9,0,66.82-29.92,66.82-66.82s-29.92-66.82-66.82-66.82c-.23,0-.45,.03-.68,.03C281.63,41.44,236.46,0,181.59,0c-43.33,0-80.61,25.85-97.3,62.97-.53,0-1.05-.04-1.58-.04C37.03,62.93,0,99.95,0,145.63s37.03,82.7,82.7,82.7" style="fill:url(#New_Gradient_Swatch_copy_2);"/><path d="M377.35,228.33c23.17,0,41.96-18.79,41.96-41.96s-18.79-41.96-41.96-41.96c-.14,0-.28,.02-.43,.02-3.73-33.46-32.1-59.48-66.56-59.48-27.21,0-50.62,16.23-61.1,39.54-.33,0-.66-.03-.99-.03-28.68,0-51.93,23.25-51.93,51.93s23.25,51.93,51.93,51.93" style="fill:url(#New_Gradient_Swatch_copy_2-2);"/></g></svg>