<?xml version="1.0" encoding="UTF-8"?><svg id="Layer_1" xmlns="http://www.w3.org/2000/svg" xmlns:xlink="http://www.w3.org/1999/xlink" viewBox="0 0 451.05 410.79"><defs><linearGradient id="New_Gradient_Swatch_copy_2" x1="0" y1="122.81" x2="381.96" y2="122.81" gradientUnits="userSpaceOnUse"><stop offset="0" stop-color="#cfe7f7"/><stop offset="1" stop-color="#e1edf8"/></linearGradient><linearGradient id="New_Gradient_Swatch_copy_2-2" x1="261.17" y1="262.86" x2="398.17" y2="125.85" xlink:href="#New_Gradient_Swatch_copy_2"/><linearGradient id="New_Gradient_Swatch_copy" x1="90.51" y1="318.49" x2="161.28" y2="318.49" gradientUnits="userSpaceOnUse"><stop offset="0" stop-color="#00adee"/><stop offset="1" stop-color="#00bcf1"/></linearGradient><linearGradient id="New_Gradient_Swatch_copy-2" x1="138.64" y1="338.93" x2="233.01" y2="338.93" xlink:href="#New_Gradient_Swatch_copy"/><linearGradient id="New_Gradient_Swatch_copy-3" x1="305.68" y1="315.58" x2="373.08" y2="315.58" xlink:href="#New_Gradient_Swatch_copy"/><linearGradient id="New_Gradient_Swatch_copy-4" x1="225.53" y1="327.26" x2="306.42" y2="327.26" xlink:href="#New_Gradient_Swatch_copy"/></defs><g id="Heavy_Rain"><path d="M310.08,245.62c39.7,0,71.88-32.18,71.88-71.88s-32.18-71.88-71.88-71.88c-.25,0-.49,.03-.74,.04C302.95,44.57,254.36,0,195.33,0c-46.61,0-86.71,27.81-104.67,67.73-.57-.01-1.13-.04-1.7-.04C39.83,67.69,0,107.52,0,156.65s39.83,88.96,88.96,88.96" style="fill:url(#New_Gradient_Swatch_copy_2);"/><path d="M405.92,245.62c24.93,0,45.14-20.21,45.14-45.14s-20.21-45.14-45.14-45.14c-.16,0-.31,.02-.46,.02-4.01-35.99-34.53-63.98-71.59-63.98-29.27,0-54.45,17.46-65.73,42.53-.36,0-.71-.03-1.07-.03-30.85,0-55.86,25.01-55.86,55.86s25.01,55.86,55.86,55.86" style="fill:url(#New_Gradient_Swatch_copy_2-2);"/><path d="M103.98,369.91c-2.29,0-4.6-.58-6.73-1.81-6.45-3.72-8.66-11.97-4.93-18.41l43.81-75.87c3.72-6.45,11.97-8.66,18.41-4.93,6.45,3.72,8.66,11.97,4.93,18.41l-43.81,75.87c-2.49,4.32-7.03,6.74-11.69,6.74Z" style="fill:url(#New_Gradient_Swatch_copy);"/><path d="M152.11,410.79c-2.29,0-4.6-.58-6.73-1.81-6.45-3.72-8.66-11.97-4.93-18.41l67.41-116.75c3.72-6.45,11.97-8.66,18.41-4.93,6.45,3.72,8.66,11.97,4.93,18.41l-67.41,116.75c-2.49,4.32-7.03,6.74-11.69,6.74Z" style="fill:url(#New_Gradient_Swatch_copy-2);"/><path d="M319.14,364.09c-2.29,0-4.6-.58-6.73-1.81-6.45-3.72-8.66-11.97-4.93-18.41l40.44-70.05c3.72-6.45,11.96-8.66,18.41-4.93,6.45,3.72,8.66,11.97,4.93,18.41l-40.44,70.05c-2.49,4.32-7.03,6.74-11.69,6.74Z" style="fill:url(#New_Gradient_Swatch_copy-3);"/><path d="M239,387.44c-2.29,0-4.6-.58-6.73-1.81-6.45-3.72-8.66-11.97-4.93-18.41l53.92-93.4c3.72-6.45,11.97-8.66,18.41-4.93,6.45,3.72,8.66,11.97,4.93,18.41l-53.92,93.4c-2.49,4.32-7.03,6.74-11.69,6.74Z" style="fill:url(#New_Gradient_Swatch_copy-4);"/></g></svg>