<?xml version="1.0" encoding="UTF-8"?><svg id="Layer_1" xmlns="http://www.w3.org/2000/svg" xmlns:xlink="http://www.w3.org/1999/xlink" viewBox="0 0 473.23 408.03"><defs><linearGradient id="New_Gradient_Swatch_copy_2" x1="94.54" y1="302.13" x2="122.82" y2="302.13" gradientUnits="userSpaceOnUse"><stop offset="0" stop-color="#cfe7f7"/><stop offset="1" stop-color="#e1edf8"/></linearGradient><linearGradient id="New_Gradient_Swatch_copy_2-2" x1="165.26" x2="193.54" xlink:href="#New_Gradient_Swatch_copy_2"/><linearGradient id="New_Gradient_Swatch_copy_2-3" x1="235.98" x2="264.26" xlink:href="#New_Gradient_Swatch_copy_2"/><linearGradient id="New_Gradient_Swatch_copy_2-4" x1="306.7" x2="334.98" xlink:href="#New_Gradient_Swatch_copy_2"/><linearGradient id="New_Gradient_Swatch_copy_2-5" x1="122.82" y1="346.56" x2="151.11" y2="346.56" xlink:href="#New_Gradient_Swatch_copy_2"/><linearGradient id="New_Gradient_Swatch_copy_2-6" x1="94.54" y1="388.99" x2="122.82" y2="388.99" xlink:href="#New_Gradient_Swatch_copy_2"/><linearGradient id="New_Gradient_Swatch_copy_2-7" x1="156.31" y1="393.88" x2="184.6" y2="393.88" xlink:href="#New_Gradient_Swatch_copy_2"/><linearGradient id="New_Gradient_Swatch_copy_2-8" x1="235.98" y1="393.88" x2="264.26" y2="393.88" xlink:href="#New_Gradient_Swatch_copy_2"/><linearGradient id="New_Gradient_Swatch_copy_2-9" x1="199.37" y1="348.96" x2="227.66" y2="348.96" xlink:href="#New_Gradient_Swatch_copy_2"/><linearGradient id="New_Gradient_Swatch_copy_2-10" x1="267.26" y1="349.56" x2="295.55" y2="349.56" xlink:href="#New_Gradient_Swatch_copy_2"/><linearGradient id="New_Gradient_Swatch_copy_2-11" x1="0" y1="128.85" x2="400.75" y2="128.85" xlink:href="#New_Gradient_Swatch_copy_2"/><linearGradient id="New_Gradient_Swatch_copy_2-12" x1="274.01" y1="275.78" x2="417.75" y2="132.04" xlink:href="#New_Gradient_Swatch_copy_2"/><linearGradient id="New_Gradient_Swatch_copy_2-13" x1="381.2" x2="409.49" xlink:href="#New_Gradient_Swatch_copy_2"/><linearGradient id="New_Gradient_Swatch_copy_2-14" x1="306.7" y1="393.88" x2="334.98" y2="393.88" xlink:href="#New_Gradient_Swatch_copy_2"/><linearGradient id="New_Gradient_Swatch_copy_2-15" x1="335.98" y1="349.56" x2="364.27" y2="349.56" xlink:href="#New_Gradient_Swatch_copy_2"/></defs><g id="Snow"><circle cx="108.68" cy="302.13" r="14.14" style="fill:url(#New_Gradient_Swatch_copy_2);"/><circle cx="179.4" cy="302.13" r="14.14" style="fill:url(#New_Gradient_Swatch_copy_2-2);"/><circle cx="250.12" cy="302.13" r="14.14" style="fill:url(#New_Gradient_Swatch_copy_2-3);"/><circle cx="320.84" cy="302.13" r="14.14" style="fill:url(#New_Gradient_Swatch_copy_2-4);"/><circle cx="136.97" cy="346.56" r="14.14" style="fill:url(#New_Gradient_Swatch_copy_2-5);"/><circle cx="108.68" cy="388.99" r="14.14" style="fill:url(#New_Gradient_Swatch_copy_2-6);"/><circle cx="170.46" cy="393.88" r="14.14" style="fill:url(#New_Gradient_Swatch_copy_2-7);"/><circle cx="250.12" cy="393.88" r="14.14" style="fill:url(#New_Gradient_Swatch_copy_2-8);"/><circle cx="213.52" cy="348.96" r="14.14" style="fill:url(#New_Gradient_Swatch_copy_2-9);"/><circle cx="281.41" cy="349.56" r="14.14" style="fill:url(#New_Gradient_Swatch_copy_2-10);"/><path d="M325.33,257.69c41.65,0,75.41-33.76,75.41-75.41s-33.76-75.41-75.41-75.41c-.26,0-.51,.04-.77,.04C317.85,46.77,266.87,0,204.94,0c-48.91,0-90.97,29.18-109.82,71.06-.6-.01-1.19-.05-1.78-.05C41.79,71.02,0,112.81,0,164.36s41.79,93.34,93.34,93.34" style="fill:url(#New_Gradient_Swatch_copy_2-11);"/><path d="M425.88,257.69c26.15,0,47.36-21.2,47.36-47.36s-21.2-47.36-47.36-47.36c-.16,0-.32,.02-.48,.02-4.21-37.76-36.23-67.13-75.12-67.13-30.71,0-57.12,18.32-68.96,44.62-.37,0-.74-.03-1.12-.03-32.37,0-58.61,26.24-58.61,58.61s26.24,58.61,58.61,58.61" style="fill:url(#New_Gradient_Swatch_copy_2-12);"/><circle cx="395.34" cy="302.13" r="14.14" style="fill:url(#New_Gradient_Swatch_copy_2-13);"/><circle cx="320.84" cy="393.88" r="14.14" style="fill:url(#New_Gradient_Swatch_copy_2-14);"/><circle cx="350.13" cy="349.56" r="14.14" style="fill:url(#New_Gradient_Swatch_copy_2-15);"/></g></svg>