<?xml version="1.0" encoding="UTF-8"?><svg id="Layer_1" xmlns="http://www.w3.org/2000/svg" xmlns:xlink="http://www.w3.org/1999/xlink" viewBox="0 0 454.52 442.22"><defs><linearGradient id="New_Gradient_Swatch_copy_2" x1="0" y1="123.75" x2="384.9" y2="123.75" gradientUnits="userSpaceOnUse"><stop offset="0" stop-color="#cfe7f7"/><stop offset="1" stop-color="#e1edf8"/></linearGradient><linearGradient id="New_Gradient_Swatch_copy_2-2" x1="263.17" y1="264.87" x2="401.23" y2="126.82" xlink:href="#New_Gradient_Swatch_copy_2"/><linearGradient id="New_Gradient_Swatch_copy" x1="32.7" y1="349.22" x2="104.02" y2="349.22" gradientUnits="userSpaceOnUse"><stop offset="0" stop-color="#00adee"/><stop offset="1" stop-color="#00bcf1"/></linearGradient><linearGradient id="New_Gradient_Swatch_copy-2" x1="81.2" y1="369.81" x2="176.3" y2="369.81" xlink:href="#New_Gradient_Swatch_copy"/><linearGradient id="New_Gradient_Swatch_copy_2-3" x1="225.42" y1="310.98" x2="252.59" y2="310.98" xlink:href="#New_Gradient_Swatch_copy_2"/><linearGradient id="New_Gradient_Swatch_copy_2-4" x1="293.34" y1="310.98" x2="320.51" y2="310.98" xlink:href="#New_Gradient_Swatch_copy_2"/><linearGradient id="New_Gradient_Swatch_copy_2-5" x1="164.29" y1="423.78" x2="191.46" y2="423.78" xlink:href="#New_Gradient_Swatch_copy_2"/><linearGradient id="New_Gradient_Swatch_copy_2-6" x1="198.25" y1="366.05" x2="225.42" y2="366.05" xlink:href="#New_Gradient_Swatch_copy_2"/><linearGradient id="New_Gradient_Swatch_copy_2-7" x1="266.17" y1="366.05" x2="293.34" y2="366.05" xlink:href="#New_Gradient_Swatch_copy_2"/><linearGradient id="New_Gradient_Swatch_copy_2-8" x1="239.01" y1="423.78" x2="266.17" y2="423.78" xlink:href="#New_Gradient_Swatch_copy_2"/><linearGradient id="New_Gradient_Swatch_copy_2-9" x1="357.73" y1="310.98" y2="310.98" xlink:href="#New_Gradient_Swatch_copy_2"/><linearGradient id="New_Gradient_Swatch_copy_2-10" x1="338.9" y1="369.81" x2="366.07" y2="369.81" xlink:href="#New_Gradient_Swatch_copy_2"/><linearGradient id="New_Gradient_Swatch_copy_2-11" x1="311.73" y1="423.78" x2="338.9" y2="423.78" xlink:href="#New_Gradient_Swatch_copy_2"/></defs><g id="Sleet"><path d="M312.46,247.5c40,0,72.43-32.43,72.43-72.43s-32.43-72.43-72.43-72.43c-.25,0-.49,.03-.74,.04C305.28,44.92,256.31,0,196.83,0c-46.97,0-87.37,28.03-105.47,68.25-.57-.01-1.14-.04-1.71-.04C40.14,68.21,0,108.35,0,157.86s40.14,89.65,89.65,89.65" style="fill:url(#New_Gradient_Swatch_copy_2);"/><path d="M409.03,247.5c25.12,0,45.48-20.36,45.48-45.48s-20.36-45.48-45.48-45.48c-.16,0-.31,.02-.47,.02-4.05-36.27-34.79-64.47-72.14-64.47-29.5,0-54.87,17.6-66.23,42.86-.36,0-.71-.03-1.08-.03-31.09,0-56.29,25.2-56.29,56.29s25.2,56.29,56.29,56.29" style="fill:url(#New_Gradient_Swatch_copy_2-2);"/><path d="M46.28,401.03c-2.3,0-4.64-.59-6.78-1.82-6.5-3.75-8.72-12.06-4.97-18.56l44.14-76.46c3.75-6.49,12.04-8.74,18.56-4.97,6.5,3.75,8.72,12.06,4.97,18.56l-44.14,76.46c-2.52,4.36-7.08,6.8-11.78,6.8Z" style="fill:url(#New_Gradient_Swatch_copy);"/><path d="M94.77,442.22c-2.3,0-4.64-.59-6.78-1.82-6.5-3.75-8.72-12.06-4.97-18.56l67.92-117.64c3.75-6.49,12.04-8.74,18.56-4.97,6.5,3.75,8.72,12.06,4.97,18.56l-67.92,117.64c-2.52,4.36-7.08,6.8-11.78,6.8Z" style="fill:url(#New_Gradient_Swatch_copy-2);"/><circle cx="239.01" cy="310.98" r="13.58" style="fill:url(#New_Gradient_Swatch_copy_2-3);"/><circle cx="306.93" cy="310.98" r="13.58" style="fill:url(#New_Gradient_Swatch_copy_2-4);"/><circle cx="177.88" cy="423.78" r="13.58" style="fill:url(#New_Gradient_Swatch_copy_2-5);"/><circle cx="211.84" cy="366.05" r="13.58" style="fill:url(#New_Gradient_Swatch_copy_2-6);"/><circle cx="279.76" cy="366.05" r="13.58" style="fill:url(#New_Gradient_Swatch_copy_2-7);"/><circle cx="252.59" cy="423.78" r="13.58" style="fill:url(#New_Gradient_Swatch_copy_2-8);"/><circle cx="371.31" cy="310.98" r="13.58" style="fill:url(#New_Gradient_Swatch_copy_2-9);"/><circle cx="352.48" cy="369.81" r="13.58" style="fill:url(#New_Gradient_Swatch_copy_2-10);"/><circle cx="325.31" cy="423.78" r="13.58" style="fill:url(#New_Gradient_Swatch_copy_2-11);"/></g></svg>