<svg width="67" height="55" viewBox="0 0 67 55" fill="none" xmlns="http://www.w3.org/2000/svg">
<path d="M46 36.44C51.89 36.44 56.66 31.67 56.66 25.78C56.66 19.89 51.89 15.12 46 15.12C45.96 15.12 45.93 15.12 45.89 15.12C44.94 6.62 37.73 0 28.98 0C22.06 0 16.12 4.12999 13.45 10.05C13.37 10.05 13.28 10.05 13.2 10.05C5.91001 10.05 0 15.96 0 23.25C0 30.54 5.91001 36.45 13.2 36.45" fill="#A1CFEE"/>
<path d="M60.22 36.4401C63.92 36.4401 66.92 33.4401 66.92 29.7401C66.92 26.0401 63.92 23.0401 60.22 23.0401C60.2 23.0401 60.17 23.0401 60.15 23.0401C59.55 17.7001 55.03 13.55 49.53 13.55C45.19 13.55 41.45 16.1401 39.78 19.8601C39.73 19.8601 39.67 19.8601 39.62 19.8601C35.04 19.8601 31.33 23.5701 31.33 28.1501C31.33 32.7301 35.04 36.4401 39.62 36.4401" fill="url(#paint0_linear_2_81)"/>
<path d="M46.9986 54.263C46.6586 54.263 46.3186 54.173 45.9986 53.993C45.0386 53.443 44.7185 52.213 45.2685 51.263L51.7685 40.003C52.3185 39.043 53.5486 38.713 54.4986 39.273C55.4586 39.823 55.7785 41.053 55.2285 42.003L48.7285 53.263C48.3585 53.903 47.6886 54.263 46.9986 54.263Z" fill="url(#paint1_linear_2_81)"/>
<path d="M23.9985 48.003C23.6585 48.003 23.3185 47.913 22.9985 47.733C22.0385 47.183 21.7185 45.953 22.2685 45.003L25.1585 40.003C25.7085 39.043 26.9285 38.713 27.8885 39.273C28.8485 39.823 29.1685 41.053 28.6185 42.003L25.7285 47.003C25.3585 47.643 24.6885 48.003 23.9985 48.003Z" fill="url(#paint2_linear_2_81)"/>
<path d="M5.99852 48.003C5.65852 48.003 5.31852 47.913 4.99852 47.733C4.03852 47.183 3.71854 45.953 4.26854 45.003L7.15853 40.003C7.70853 39.043 8.92854 38.713 9.88854 39.273C10.8485 39.823 11.1685 41.053 10.6185 42.003L7.72853 47.003C7.35853 47.643 6.68852 48.003 5.99852 48.003Z" fill="url(#paint3_linear_2_81)"/>
<path d="M41.9985 48.003C41.6585 48.003 41.3185 47.913 40.9985 47.733C40.0385 47.183 39.7185 45.953 40.2685 45.003L43.1585 40.003C43.7085 39.043 44.9285 38.713 45.8885 39.273C46.8485 39.823 47.1685 41.053 46.6185 42.003L43.7285 47.003C43.3585 47.643 42.6885 48.003 41.9985 48.003Z" fill="url(#paint4_linear_2_81)"/>
<path d="M58.9985 48.003C58.6585 48.003 58.3185 47.913 57.9985 47.733C57.0385 47.183 56.7185 45.953 57.2685 45.003L60.1585 40.003C60.7085 39.043 61.9285 38.713 62.8885 39.273C63.8485 39.823 64.1685 41.053 63.6185 42.003L60.7285 47.003C60.3585 47.643 59.6885 48.003 58.9985 48.003Z" fill="url(#paint5_linear_2_81)"/>
<path d="M29.9986 53.393C29.6586 53.393 29.3186 53.303 28.9986 53.123C28.0386 52.573 27.7185 51.343 28.2685 50.393L34.2685 40.003C34.8185 39.043 36.0386 38.713 36.9986 39.273C37.9586 39.823 38.2785 41.053 37.7285 42.003L31.7285 52.393C31.3585 53.033 30.6886 53.393 29.9986 53.393Z" fill="url(#paint6_linear_2_81)"/>
<path d="M11.9986 53.393C11.6586 53.393 11.3186 53.303 10.9986 53.123C10.0386 52.573 9.71853 51.343 10.2685 50.393L16.2685 40.003C16.8185 39.043 18.0386 38.713 18.9986 39.273C19.9586 39.823 20.2785 41.053 19.7285 42.003L13.7285 52.393C13.3585 53.033 12.6886 53.393 11.9986 53.393Z" fill="url(#paint7_linear_2_81)"/>
<defs>
<linearGradient id="paint0_linear_2_81" x1="38.75" y1="39.0001" x2="59.07" y2="18.6701" gradientUnits="userSpaceOnUse">
<stop stop-color="#D0E8F8"/>
<stop offset="1" stop-color="#E1EEF9"/>
</linearGradient>
<linearGradient id="paint1_linear_2_81" x1="45.0085" y1="46.633" x2="55.4986" y2="46.633" gradientUnits="userSpaceOnUse">
<stop stop-color="#00AEEF"/>
<stop offset="1" stop-color="#00BDF2"/>
</linearGradient>
<linearGradient id="paint2_linear_2_81" x1="21.9985" y1="43.503" x2="28.8885" y2="43.503" gradientUnits="userSpaceOnUse">
<stop stop-color="#00AEEF"/>
<stop offset="1" stop-color="#00BDF2"/>
</linearGradient>
<linearGradient id="paint3_linear_2_81" x1="3.99854" y1="43.503" x2="10.8885" y2="43.503" gradientUnits="userSpaceOnUse">
<stop stop-color="#00AEEF"/>
<stop offset="1" stop-color="#00BDF2"/>
</linearGradient>
<linearGradient id="paint4_linear_2_81" x1="39.9985" y1="43.503" x2="46.8885" y2="43.503" gradientUnits="userSpaceOnUse">
<stop stop-color="#00AEEF"/>
<stop offset="1" stop-color="#00BDF2"/>
</linearGradient>
<linearGradient id="paint5_linear_2_81" x1="56.9985" y1="43.503" x2="63.8885" y2="43.503" gradientUnits="userSpaceOnUse">
<stop stop-color="#00AEEF"/>
<stop offset="1" stop-color="#00BDF2"/>
</linearGradient>
<linearGradient id="paint6_linear_2_81" x1="28.0085" y1="46.193" x2="38.0086" y2="46.193" gradientUnits="userSpaceOnUse">
<stop stop-color="#00AEEF"/>
<stop offset="1" stop-color="#00BDF2"/>
</linearGradient>
<linearGradient id="paint7_linear_2_81" x1="10.0085" y1="46.193" x2="20.0086" y2="46.193" gradientUnits="userSpaceOnUse">
<stop stop-color="#00AEEF"/>
<stop offset="1" stop-color="#00BDF2"/>
</linearGradient>
</defs>
</svg>
