<svg width="67" height="55" viewBox="0 0 67 55" fill="none" xmlns="http://www.w3.org/2000/svg">
<path d="M46 36.44C51.89 36.44 56.66 31.67 56.66 25.78C56.66 19.89 51.89 15.12 46 15.12C45.96 15.12 45.93 15.12 45.89 15.12C44.94 6.62 37.73 0 28.98 0C22.06 0 16.12 4.12999 13.45 10.05C13.37 10.05 13.28 10.05 13.2 10.05C5.91001 10.05 0 15.96 0 23.25C0 30.54 5.91001 36.45 13.2 36.45" fill="#A1CFEE"/>
<path d="M60.22 36.4401C63.92 36.4401 66.92 33.4401 66.92 29.7401C66.92 26.0401 63.92 23.0401 60.22 23.0401C60.2 23.0401 60.17 23.0401 60.15 23.0401C59.55 17.7001 55.03 13.55 49.53 13.55C45.19 13.55 41.45 16.1401 39.78 19.8601C39.73 19.8601 39.67 19.8601 39.62 19.8601C35.04 19.8601 31.33 23.5701 31.33 28.1501C31.33 32.7301 35.04 36.4401 39.62 36.4401" fill="url(#paint0_linear_2_42)"/>
<path d="M44.9986 54.263C44.6586 54.263 44.3186 54.173 43.9986 53.993C43.0386 53.443 42.7185 52.213 43.2685 51.263L49.7685 40.003C50.3185 39.043 51.5486 38.713 52.4986 39.273C53.4586 39.823 53.7785 41.053 53.2285 42.003L46.7285 53.263C46.3585 53.903 45.6886 54.263 44.9986 54.263Z" fill="url(#paint1_linear_2_42)"/>
<path d="M21.9985 48.003C21.6585 48.003 21.3185 47.913 20.9985 47.733C20.0385 47.183 19.7185 45.953 20.2685 45.003L23.1585 40.003C23.7085 39.043 24.9285 38.713 25.8885 39.273C26.8485 39.823 27.1685 41.053 26.6185 42.003L23.7285 47.003C23.3585 47.643 22.6885 48.003 21.9985 48.003Z" fill="url(#paint2_linear_2_42)"/>
<path d="M39.9985 48.003C39.6585 48.003 39.3185 47.913 38.9985 47.733C38.0385 47.183 37.7185 45.953 38.2685 45.003L41.1585 40.003C41.7085 39.043 42.9285 38.713 43.8885 39.273C44.8485 39.823 45.1685 41.053 44.6185 42.003L41.7285 47.003C41.3585 47.643 40.6885 48.003 39.9985 48.003Z" fill="url(#paint3_linear_2_42)"/>
<path d="M27.9986 53.393C27.6586 53.393 27.3186 53.303 26.9986 53.123C26.0386 52.573 25.7185 51.343 26.2685 50.393L32.2685 40.003C32.8185 39.043 34.0386 38.713 34.9986 39.273C35.9586 39.823 36.2785 41.053 35.7285 42.003L29.7285 52.393C29.3585 53.033 28.6886 53.393 27.9986 53.393Z" fill="url(#paint4_linear_2_42)"/>
<path d="M9.99857 53.393C9.65857 53.393 9.31857 53.303 8.99857 53.123C8.03857 52.573 7.71853 51.343 8.26853 50.393L14.2685 40.003C14.8185 39.043 16.0386 38.713 16.9986 39.273C17.9586 39.823 18.2785 41.053 17.7285 42.003L11.7285 52.393C11.3585 53.033 10.6886 53.393 9.99857 53.393Z" fill="url(#paint5_linear_2_42)"/>
<defs>
<linearGradient id="paint0_linear_2_42" x1="38.75" y1="39.0001" x2="59.07" y2="18.6701" gradientUnits="userSpaceOnUse">
<stop stop-color="#D0E8F8"/>
<stop offset="1" stop-color="#E1EEF9"/>
</linearGradient>
<linearGradient id="paint1_linear_2_42" x1="43.0085" y1="46.633" x2="53.4986" y2="46.633" gradientUnits="userSpaceOnUse">
<stop stop-color="#00AEEF"/>
<stop offset="1" stop-color="#00BDF2"/>
</linearGradient>
<linearGradient id="paint2_linear_2_42" x1="19.9985" y1="43.503" x2="26.8885" y2="43.503" gradientUnits="userSpaceOnUse">
<stop stop-color="#00AEEF"/>
<stop offset="1" stop-color="#00BDF2"/>
</linearGradient>
<linearGradient id="paint3_linear_2_42" x1="37.9985" y1="43.503" x2="44.8885" y2="43.503" gradientUnits="userSpaceOnUse">
<stop stop-color="#00AEEF"/>
<stop offset="1" stop-color="#00BDF2"/>
</linearGradient>
<linearGradient id="paint4_linear_2_42" x1="26.0085" y1="46.193" x2="36.0086" y2="46.193" gradientUnits="userSpaceOnUse">
<stop stop-color="#00AEEF"/>
<stop offset="1" stop-color="#00BDF2"/>
</linearGradient>
<linearGradient id="paint5_linear_2_42" x1="8.00854" y1="46.193" x2="18.0086" y2="46.193" gradientUnits="userSpaceOnUse">
<stop stop-color="#00AEEF"/>
<stop offset="1" stop-color="#00BDF2"/>
</linearGradient>
</defs>
</svg>
