<svg width="67" height="61" viewBox="0 0 67 61" fill="none" xmlns="http://www.w3.org/2000/svg">
<path d="M46 36.44C51.89 36.44 56.66 31.67 56.66 25.78C56.66 19.89 51.89 15.12 46 15.12C45.96 15.12 45.93 15.12 45.89 15.12C44.94 6.62 37.73 0 28.98 0C22.06 0 16.12 4.12999 13.45 10.05C13.37 10.05 13.28 10.05 13.2 10.05C5.91001 10.05 0 15.96 0 23.25C0 30.54 5.91001 36.45 13.2 36.45" fill="#A1CFEE"/>
<path d="M60.22 36.4401C63.92 36.4401 66.92 33.4401 66.92 29.7401C66.92 26.0401 63.92 23.0401 60.22 23.0401C60.2 23.0401 60.17 23.0401 60.15 23.0401C59.55 17.7001 55.03 13.55 49.53 13.55C45.19 13.55 41.45 16.1401 39.78 19.8601C39.73 19.8601 39.67 19.8601 39.62 19.8601C35.04 19.8601 31.33 23.5701 31.33 28.1501C31.33 32.7301 35.04 36.4401 39.62 36.4401" fill="url(#paint0_linear_1_416)"/>
<path d="M12.9985 53.003C12.6585 53.003 12.3185 52.913 11.9985 52.733C11.0385 52.183 10.7185 50.953 11.2685 50.003L14.1585 45.003C14.7085 44.043 15.9285 43.713 16.8885 44.273C17.8485 44.823 18.1685 46.053 17.6185 47.003L14.7285 52.003C14.3585 52.643 13.6885 53.003 12.9985 53.003Z" fill="url(#paint1_linear_1_416)"/>
<path d="M29.1086 53.003C28.7686 53.003 28.4286 52.913 28.1086 52.733C27.1486 52.183 26.8286 50.953 27.3786 50.003L30.2686 45.003C30.8186 44.043 32.0385 43.713 32.9985 44.273C33.9585 44.823 34.2786 46.053 33.7286 47.003L30.8385 52.003C30.4685 52.643 29.7986 53.003 29.1086 53.003Z" fill="url(#paint2_linear_1_416)"/>
<path d="M45.2185 53.003C44.8785 53.003 44.5385 52.913 44.2185 52.733C43.2585 52.183 42.9385 50.953 43.4885 50.003L46.3785 45.003C46.9285 44.043 48.1485 43.713 49.1085 44.273C50.0685 44.823 50.3885 46.053 49.8385 47.003L46.9485 52.003C46.5785 52.643 45.9085 53.003 45.2185 53.003Z" fill="url(#paint3_linear_1_416)"/>
<path d="M17.9985 60.1829C17.6585 60.1829 17.3185 60.0929 16.9985 59.9129C16.0385 59.3629 15.7185 58.1329 16.2685 57.1829L19.1585 52.1829C19.7085 51.2229 20.9285 50.8929 21.8885 51.4529C22.8485 52.0029 23.1685 53.2329 22.6185 54.1829L19.7285 59.1829C19.3585 59.8229 18.6885 60.1829 17.9985 60.1829Z" fill="url(#paint4_linear_1_416)"/>
<path d="M34.6086 60.1829C34.2686 60.1829 33.9286 60.0929 33.6086 59.9129C32.6486 59.3629 32.3286 58.1329 32.8786 57.1829L35.7686 52.1829C36.3186 51.2229 37.5385 50.8929 38.4985 51.4529C39.4585 52.0029 39.7786 53.2329 39.2286 54.1829L36.3385 59.1829C35.9685 59.8229 35.2986 60.1829 34.6086 60.1829Z" fill="url(#paint5_linear_1_416)"/>
<path d="M51.2185 60.1829C50.8785 60.1829 50.5385 60.0929 50.2185 59.9129C49.2585 59.3629 48.9385 58.1329 49.4885 57.1829L52.3785 52.1829C52.9285 51.2229 54.1485 50.8929 55.1085 51.4529C56.0685 52.0029 56.3885 53.2329 55.8385 54.1829L52.9485 59.1829C52.5785 59.8229 51.9085 60.1829 51.2185 60.1829Z" fill="url(#paint6_linear_1_416)"/>
<defs>
<linearGradient id="paint0_linear_1_416" x1="38.75" y1="39.0001" x2="59.07" y2="18.6701" gradientUnits="userSpaceOnUse">
<stop stop-color="#D0E8F8"/>
<stop offset="1" stop-color="#E1EEF9"/>
</linearGradient>
<linearGradient id="paint1_linear_1_416" x1="10.9985" y1="48.503" x2="17.8885" y2="48.503" gradientUnits="userSpaceOnUse">
<stop stop-color="#00AEEF"/>
<stop offset="1" stop-color="#00BDF2"/>
</linearGradient>
<linearGradient id="paint2_linear_1_416" x1="27.1086" y1="48.503" x2="33.9986" y2="48.503" gradientUnits="userSpaceOnUse">
<stop stop-color="#00AEEF"/>
<stop offset="1" stop-color="#00BDF2"/>
</linearGradient>
<linearGradient id="paint3_linear_1_416" x1="43.2185" y1="48.503" x2="50.1085" y2="48.503" gradientUnits="userSpaceOnUse">
<stop stop-color="#00AEEF"/>
<stop offset="1" stop-color="#00BDF2"/>
</linearGradient>
<linearGradient id="paint4_linear_1_416" x1="15.9985" y1="55.6829" x2="22.8885" y2="55.6829" gradientUnits="userSpaceOnUse">
<stop stop-color="#00AEEF"/>
<stop offset="1" stop-color="#00BDF2"/>
</linearGradient>
<linearGradient id="paint5_linear_1_416" x1="32.6086" y1="55.6829" x2="39.4986" y2="55.6829" gradientUnits="userSpaceOnUse">
<stop stop-color="#00AEEF"/>
<stop offset="1" stop-color="#00BDF2"/>
</linearGradient>
<linearGradient id="paint6_linear_1_416" x1="49.2185" y1="55.6829" x2="56.1085" y2="55.6829" gradientUnits="userSpaceOnUse">
<stop stop-color="#00AEEF"/>
<stop offset="1" stop-color="#00BDF2"/>
</linearGradient>
</defs>
</svg>
