<svg width="67" height="61" viewBox="0 0 67 61" fill="none" xmlns="http://www.w3.org/2000/svg">
<path d="M46 36.44C51.89 36.44 56.66 31.67 56.66 25.78C56.66 19.89 51.89 15.12 46 15.12C45.96 15.12 45.93 15.12 45.89 15.12C44.94 6.62 37.73 0 28.98 0C22.06 0 16.12 4.12999 13.45 10.05C13.37 10.05 13.28 10.05 13.2 10.05C5.91001 10.05 0 15.96 0 23.25C0 30.54 5.91001 36.45 13.2 36.45" fill="#A1CFEE"/>
<path d="M60.22 36.4401C63.92 36.4401 66.92 33.4401 66.92 29.7401C66.92 26.0401 63.92 23.0401 60.22 23.0401C60.2 23.0401 60.17 23.0401 60.15 23.0401C59.55 17.7001 55.03 13.55 49.53 13.55C45.19 13.55 41.45 16.1401 39.78 19.8601C39.73 19.8601 39.67 19.8601 39.62 19.8601C35.04 19.8601 31.33 23.5701 31.33 28.1501C31.33 32.7301 35.04 36.4401 39.62 36.4401" fill="url(#paint0_linear_1_478)"/>
<path d="M8.99857 54.533C8.65857 54.533 8.31857 54.443 7.99857 54.263C7.03857 53.713 6.71853 52.483 7.26853 51.533L13.7685 40.273C14.3185 39.313 15.5486 38.983 16.4986 39.543C17.4586 40.093 17.7785 41.323 17.2285 42.273L10.7285 53.533C10.3585 54.173 9.68857 54.533 8.99857 54.533Z" fill="url(#paint1_linear_1_478)"/>
<path d="M16.1385 60.323C15.7985 60.323 15.4585 60.233 15.1385 60.053C14.1785 59.503 13.8586 58.273 14.4086 57.323L24.4086 40.003C24.9586 39.043 26.1885 38.713 27.1385 39.273C28.0985 39.823 28.4186 41.053 27.8686 42.003L17.8686 59.323C17.4986 59.963 16.8285 60.323 16.1385 60.323Z" fill="url(#paint2_linear_1_478)"/>
<path d="M47.9985 60.323C47.6585 60.323 47.3185 60.233 46.9985 60.053C46.0385 59.503 45.7185 58.273 46.2685 57.323L56.2685 40.003C56.8185 39.043 58.0485 38.713 58.9985 39.273C59.9585 39.823 60.2786 41.053 59.7286 42.003L49.7286 59.323C49.3586 59.963 48.6885 60.323 47.9985 60.323Z" fill="url(#paint3_linear_1_478)"/>
<path d="M40.9986 53.393C40.6586 53.393 40.3186 53.303 39.9986 53.123C39.0386 52.573 38.7185 51.343 39.2685 50.393L45.2685 40.003C45.8185 39.043 47.0386 38.713 47.9986 39.273C48.9586 39.823 49.2785 41.053 48.7285 42.003L42.7285 52.393C42.3585 53.033 41.6886 53.393 40.9986 53.393Z" fill="url(#paint4_linear_1_478)"/>
<path d="M29.0286 57.133C28.6886 57.133 28.3486 57.043 28.0286 56.863C27.0686 56.313 26.7486 55.083 27.2986 54.133L35.2986 40.273C35.8486 39.313 37.0786 38.983 38.0286 39.543C38.9886 40.093 39.3085 41.323 38.7585 42.273L30.7585 56.133C30.3885 56.773 29.7186 57.133 29.0286 57.133Z" fill="url(#paint5_linear_1_478)"/>
<defs>
<linearGradient id="paint0_linear_1_478" x1="38.75" y1="39.0001" x2="59.07" y2="18.6701" gradientUnits="userSpaceOnUse">
<stop stop-color="#D0E8F8"/>
<stop offset="1" stop-color="#E1EEF9"/>
</linearGradient>
<linearGradient id="paint1_linear_1_478" x1="7.00854" y1="46.903" x2="17.4986" y2="46.903" gradientUnits="userSpaceOnUse">
<stop stop-color="#00AEEF"/>
<stop offset="1" stop-color="#00BDF2"/>
</linearGradient>
<linearGradient id="paint2_linear_1_478" x1="14.1486" y1="49.933" x2="28.1486" y2="49.933" gradientUnits="userSpaceOnUse">
<stop stop-color="#00AEEF"/>
<stop offset="1" stop-color="#00BDF2"/>
</linearGradient>
<linearGradient id="paint3_linear_1_478" x1="46.0085" y1="49.933" x2="60.0086" y2="49.933" gradientUnits="userSpaceOnUse">
<stop stop-color="#00AEEF"/>
<stop offset="1" stop-color="#00BDF2"/>
</linearGradient>
<linearGradient id="paint4_linear_1_478" x1="39.0085" y1="46.193" x2="49.0086" y2="46.193" gradientUnits="userSpaceOnUse">
<stop stop-color="#00AEEF"/>
<stop offset="1" stop-color="#00BDF2"/>
</linearGradient>
<linearGradient id="paint5_linear_1_478" x1="27.0386" y1="48.203" x2="39.0385" y2="48.203" gradientUnits="userSpaceOnUse">
<stop stop-color="#00AEEF"/>
<stop offset="1" stop-color="#00BDF2"/>
</linearGradient>
</defs>
</svg>
