<svg width="67" height="55" viewBox="0 0 67 55" fill="none" xmlns="http://www.w3.org/2000/svg">
<path d="M46 36.44C51.89 36.44 56.66 31.67 56.66 25.78C56.66 19.89 51.89 15.12 46 15.12C45.96 15.12 45.93 15.12 45.89 15.12C44.94 6.62 37.73 0 28.98 0C22.06 0 16.12 4.12999 13.45 10.05C13.37 10.05 13.28 10.05 13.2 10.05C5.91001 10.05 0 15.96 0 23.25C0 30.54 5.91001 36.45 13.2 36.45" fill="#A1CFEE"/>
<path d="M60.22 36.4401C63.92 36.4401 66.92 33.4401 66.92 29.7401C66.92 26.0401 63.92 23.0401 60.22 23.0401C60.2 23.0401 60.17 23.0401 60.15 23.0401C59.55 17.7001 55.03 13.55 49.53 13.55C45.19 13.55 41.45 16.1401 39.78 19.8601C39.73 19.8601 39.67 19.8601 39.62 19.8601C35.04 19.8601 31.33 23.5701 31.33 28.1501C31.33 32.7301 35.04 36.4401 39.62 36.4401" fill="url(#paint0_linear_2_68)"/>
<path d="M51.9986 54.263C51.6586 54.263 51.3186 54.173 50.9986 53.993C50.0386 53.443 49.7185 52.213 50.2685 51.263L56.7685 40.003C57.3185 39.043 58.5486 38.713 59.4986 39.273C60.4586 39.823 60.7785 41.053 60.2285 42.003L53.7285 53.263C53.3585 53.903 52.6886 54.263 51.9986 54.263Z" fill="url(#paint1_linear_2_68)"/>
<path d="M28.9985 48.003C28.6585 48.003 28.3185 47.913 27.9985 47.733C27.0385 47.183 26.7185 45.953 27.2685 45.003L30.1585 40.003C30.7085 39.043 31.9285 38.713 32.8885 39.273C33.8485 39.823 34.1685 41.053 33.6185 42.003L30.7285 47.003C30.3585 47.643 29.6885 48.003 28.9985 48.003Z" fill="url(#paint2_linear_2_68)"/>
<path d="M10.9985 48.003C10.6585 48.003 10.3185 47.913 9.99852 47.733C9.03852 47.183 8.71854 45.953 9.26854 45.003L12.1585 40.003C12.7085 39.043 13.9285 38.713 14.8885 39.273C15.8485 39.823 16.1685 41.053 15.6185 42.003L12.7285 47.003C12.3585 47.643 11.6885 48.003 10.9985 48.003Z" fill="url(#paint3_linear_2_68)"/>
<path d="M46.9985 48.003C46.6585 48.003 46.3185 47.913 45.9985 47.733C45.0385 47.183 44.7185 45.953 45.2685 45.003L48.1585 40.003C48.7085 39.043 49.9285 38.713 50.8885 39.273C51.8485 39.823 52.1685 41.053 51.6185 42.003L48.7285 47.003C48.3585 47.643 47.6885 48.003 46.9985 48.003Z" fill="url(#paint4_linear_2_68)"/>
<path d="M34.9986 53.393C34.6586 53.393 34.3186 53.303 33.9986 53.123C33.0386 52.573 32.7185 51.343 33.2685 50.393L39.2685 40.003C39.8185 39.043 41.0386 38.713 41.9986 39.273C42.9586 39.823 43.2785 41.053 42.7285 42.003L36.7285 52.393C36.3585 53.033 35.6886 53.393 34.9986 53.393Z" fill="url(#paint5_linear_2_68)"/>
<path d="M16.9986 53.393C16.6586 53.393 16.3186 53.303 15.9986 53.123C15.0386 52.573 14.7185 51.343 15.2685 50.393L21.2685 40.003C21.8185 39.043 23.0386 38.713 23.9986 39.273C24.9586 39.823 25.2785 41.053 24.7285 42.003L18.7285 52.393C18.3585 53.033 17.6886 53.393 16.9986 53.393Z" fill="url(#paint6_linear_2_68)"/>
<defs>
<linearGradient id="paint0_linear_2_68" x1="38.75" y1="39.0001" x2="59.07" y2="18.6701" gradientUnits="userSpaceOnUse">
<stop stop-color="#D0E8F8"/>
<stop offset="1" stop-color="#E1EEF9"/>
</linearGradient>
<linearGradient id="paint1_linear_2_68" x1="50.0085" y1="46.633" x2="60.4986" y2="46.633" gradientUnits="userSpaceOnUse">
<stop stop-color="#00AEEF"/>
<stop offset="1" stop-color="#00BDF2"/>
</linearGradient>
<linearGradient id="paint2_linear_2_68" x1="26.9985" y1="43.503" x2="33.8885" y2="43.503" gradientUnits="userSpaceOnUse">
<stop stop-color="#00AEEF"/>
<stop offset="1" stop-color="#00BDF2"/>
</linearGradient>
<linearGradient id="paint3_linear_2_68" x1="8.99854" y1="43.503" x2="15.8885" y2="43.503" gradientUnits="userSpaceOnUse">
<stop stop-color="#00AEEF"/>
<stop offset="1" stop-color="#00BDF2"/>
</linearGradient>
<linearGradient id="paint4_linear_2_68" x1="44.9985" y1="43.503" x2="51.8885" y2="43.503" gradientUnits="userSpaceOnUse">
<stop stop-color="#00AEEF"/>
<stop offset="1" stop-color="#00BDF2"/>
</linearGradient>
<linearGradient id="paint5_linear_2_68" x1="33.0085" y1="46.193" x2="43.0086" y2="46.193" gradientUnits="userSpaceOnUse">
<stop stop-color="#00AEEF"/>
<stop offset="1" stop-color="#00BDF2"/>
</linearGradient>
<linearGradient id="paint6_linear_2_68" x1="15.0085" y1="46.193" x2="25.0086" y2="46.193" gradientUnits="userSpaceOnUse">
<stop stop-color="#00AEEF"/>
<stop offset="1" stop-color="#00BDF2"/>
</linearGradient>
</defs>
</svg>
