<svg width="67" height="60" viewBox="0 0 67 60" fill="none" xmlns="http://www.w3.org/2000/svg">
<path d="M46 36.44C51.89 36.44 56.66 31.67 56.66 25.78C56.66 19.89 51.89 15.12 46 15.12C45.96 15.12 45.93 15.12 45.89 15.12C44.94 6.62 37.73 0 28.98 0C22.06 0 16.12 4.12999 13.45 10.05C13.37 10.05 13.28 10.05 13.2 10.05C5.91001 10.05 0 15.96 0 23.25C0 30.54 5.91001 36.45 13.2 36.45" fill="#A1CFEE"/>
<path d="M60.22 36.4401C63.92 36.4401 66.92 33.4401 66.92 29.7401C66.92 26.0401 63.92 23.0401 60.22 23.0401C60.2 23.0401 60.17 23.0401 60.15 23.0401C59.55 17.7001 55.03 13.55 49.53 13.55C45.19 13.55 41.45 16.1401 39.78 19.8601C39.73 19.8601 39.67 19.8601 39.62 19.8601C35.04 19.8601 31.33 23.5701 31.33 28.1501C31.33 32.7301 35.04 36.4401 39.62 36.4401" fill="url(#paint0_linear_2_205)"/>
<path d="M12.83 49.66C15.4975 49.66 17.66 47.4976 17.66 44.83C17.66 42.1625 15.4975 40 12.83 40C10.1625 40 8 42.1625 8 44.83C8 47.4976 10.1625 49.66 12.83 49.66Z" fill="url(#paint1_linear_2_205)"/>
<path d="M32.83 49.66C35.4975 49.66 37.66 47.4976 37.66 44.83C37.66 42.1625 35.4975 40 32.83 40C30.1625 40 28 42.1625 28 44.83C28 47.4976 30.1625 49.66 32.83 49.66Z" fill="url(#paint2_linear_2_205)"/>
<path d="M42.83 59.66C45.4975 59.66 47.66 57.4976 47.66 54.83C47.66 52.1625 45.4975 50 42.83 50C40.1625 50 38 52.1625 38 54.83C38 57.4976 40.1625 59.66 42.83 59.66Z" fill="url(#paint3_linear_2_205)"/>
<path d="M48.7416 34.2708C47.7268 34.2708 46.9049 33.449 46.9049 32.4341C46.9049 32.1876 46.955 31.9517 47.0443 31.7373H36.5208C36.2064 31.7373 35.9491 31.4801 35.9491 31.1656C35.9491 30.8512 36.2064 30.5939 36.5208 30.5939H48.6988C48.6988 30.5939 48.7131 30.5939 48.7202 30.5939C48.7274 30.5939 48.7345 30.5939 48.7416 30.5939C49.7565 30.5939 50.5783 31.4157 50.5783 32.4306C50.5783 33.4454 49.7565 34.2673 48.7416 34.2673V34.2708Z" fill="url(#paint4_linear_2_205)"/>
<path d="M52.5473 31.1156C51.5324 31.1156 50.7106 30.2937 50.7106 29.2789C50.7106 29.0323 50.7606 28.7965 50.8499 28.5821H31.5717C31.2573 28.5821 31 28.3248 31 28.0103C31 27.6959 31.2573 27.4386 31.5717 27.4386H52.5044C52.5044 27.4386 52.5187 27.4386 52.5258 27.4386C52.533 27.4386 52.5401 27.4386 52.5473 27.4386C53.5621 27.4386 54.384 28.2605 54.384 29.2753C54.384 30.2901 53.5621 31.112 52.5473 31.112V31.1156Z" fill="url(#paint5_linear_2_205)"/>
<path d="M48.7417 22C47.7268 22 46.9049 22.8219 46.9049 23.8367C46.9049 24.0833 46.955 24.3191 47.0443 24.5335H40.3264C40.012 24.5335 39.7547 24.7908 39.7547 25.1052C39.7547 25.4197 40.012 25.677 40.3264 25.677H48.6988C48.6988 25.677 48.7131 25.677 48.7202 25.677C48.7274 25.677 48.7345 25.677 48.7417 25.677C49.7565 25.677 50.5783 24.8551 50.5783 23.8403C50.5783 22.8254 49.7565 22.0036 48.7417 22.0036V22Z" fill="url(#paint6_linear_2_205)"/>
<path d="M53.83 49.66C56.4975 49.66 58.66 47.4976 58.66 44.83C58.66 42.1625 56.4975 40 53.83 40C51.1625 40 49 42.1625 49 44.83C49 47.4976 51.1625 49.66 53.83 49.66Z" fill="url(#paint7_linear_2_205)"/>
<path d="M22.83 59.66C25.4975 59.66 27.66 57.4976 27.66 54.83C27.66 52.1625 25.4975 50 22.83 50C20.1625 50 18 52.1625 18 54.83C18 57.4976 20.1625 59.66 22.83 59.66Z" fill="url(#paint8_linear_2_205)"/>
<defs>
<linearGradient id="paint0_linear_2_205" x1="38.75" y1="39.0001" x2="59.07" y2="18.6701" gradientUnits="userSpaceOnUse">
<stop stop-color="#D0E8F8"/>
<stop offset="1" stop-color="#E1EEF9"/>
</linearGradient>
<linearGradient id="paint1_linear_2_205" x1="8" y1="44.83" x2="17.66" y2="44.83" gradientUnits="userSpaceOnUse">
<stop stop-color="#D0E8F8"/>
<stop offset="1" stop-color="#E1EEF9"/>
</linearGradient>
<linearGradient id="paint2_linear_2_205" x1="27.99" y1="44.83" x2="37.66" y2="44.83" gradientUnits="userSpaceOnUse">
<stop stop-color="#D0E8F8"/>
<stop offset="1" stop-color="#E1EEF9"/>
</linearGradient>
<linearGradient id="paint3_linear_2_205" x1="37.99" y1="54.83" x2="47.66" y2="54.83" gradientUnits="userSpaceOnUse">
<stop stop-color="#D0E8F8"/>
<stop offset="1" stop-color="#E1EEF9"/>
</linearGradient>
<linearGradient id="paint4_linear_2_205" x1="35.9455" y1="32.4341" x2="50.5783" y2="32.4341" gradientUnits="userSpaceOnUse">
<stop stop-color="#A1CFEE"/>
<stop offset="1" stop-color="#6AC0FB"/>
</linearGradient>
<linearGradient id="paint5_linear_2_205" x1="30.9964" y1="29.2789" x2="50" y2="29.2789" gradientUnits="userSpaceOnUse">
<stop stop-color="#A1CFEE"/>
<stop offset="0.9998" stop-color="#6AC0FB"/>
</linearGradient>
<linearGradient id="paint6_linear_2_205" x1="39.7511" y1="23.8403" x2="50.5783" y2="23.8403" gradientUnits="userSpaceOnUse">
<stop stop-color="#A1CFEE"/>
<stop offset="1" stop-color="#6AC0FB"/>
</linearGradient>
<linearGradient id="paint7_linear_2_205" x1="48.99" y1="44.83" x2="58.66" y2="44.83" gradientUnits="userSpaceOnUse">
<stop stop-color="#D0E8F8"/>
<stop offset="1" stop-color="#E1EEF9"/>
</linearGradient>
<linearGradient id="paint8_linear_2_205" x1="18" y1="54.83" x2="27.66" y2="54.83" gradientUnits="userSpaceOnUse">
<stop stop-color="#D0E8F8"/>
<stop offset="1" stop-color="#E1EEF9"/>
</linearGradient>
</defs>
</svg>
