<svg width="67" height="61" viewBox="0 0 67 61" fill="none" xmlns="http://www.w3.org/2000/svg">
<path d="M46 36.44C51.89 36.44 56.66 31.67 56.66 25.78C56.66 19.89 51.89 15.12 46 15.12C45.96 15.12 45.93 15.12 45.89 15.12C44.94 6.62 37.73 0 28.98 0C22.06 0 16.12 4.12999 13.45 10.05C13.37 10.05 13.28 10.05 13.2 10.05C5.91001 10.05 0 15.96 0 23.25C0 30.54 5.91001 36.45 13.2 36.45" fill="#A1CFEE"/>
<path d="M60.22 36.4401C63.92 36.4401 66.92 33.4401 66.92 29.7401C66.92 26.0401 63.92 23.0401 60.22 23.0401C60.2 23.0401 60.17 23.0401 60.15 23.0401C59.55 17.7001 55.03 13.55 49.53 13.55C45.19 13.55 41.45 16.1401 39.78 19.8601C39.73 19.8601 39.67 19.8601 39.62 19.8601C35.04 19.8601 31.33 23.5701 31.33 28.1501C31.33 32.7301 35.04 36.4401 39.62 36.4401" fill="url(#paint0_linear_1_432)"/>
<path d="M5.99852 53.003C5.65852 53.003 5.31852 52.913 4.99852 52.733C4.03852 52.183 3.71854 50.953 4.26854 50.003L7.15853 45.003C7.70853 44.043 8.92854 43.713 9.88854 44.273C10.8485 44.823 11.1685 46.053 10.6185 47.003L7.72853 52.003C7.35853 52.643 6.68852 53.003 5.99852 53.003Z" fill="url(#paint1_linear_1_432)"/>
<path d="M22.1086 53.003C21.7686 53.003 21.4286 52.913 21.1086 52.733C20.1486 52.183 19.8286 50.953 20.3786 50.003L23.2686 45.003C23.8186 44.043 25.0385 43.713 25.9985 44.273C26.9585 44.823 27.2786 46.053 26.7286 47.003L23.8385 52.003C23.4685 52.643 22.7986 53.003 22.1086 53.003Z" fill="url(#paint2_linear_1_432)"/>
<path d="M38.2185 53.003C37.8785 53.003 37.5385 52.913 37.2185 52.733C36.2585 52.183 35.9385 50.953 36.4885 50.003L39.3785 45.003C39.9285 44.043 41.1485 43.713 42.1085 44.273C43.0685 44.823 43.3885 46.053 42.8385 47.003L39.9485 52.003C39.5785 52.643 38.9085 53.003 38.2185 53.003Z" fill="url(#paint3_linear_1_432)"/>
<path d="M10.9985 60.1829C10.6585 60.1829 10.3185 60.0929 9.99852 59.9129C9.03852 59.3629 8.71854 58.1329 9.26854 57.1829L12.1585 52.1829C12.7085 51.2229 13.9285 50.8929 14.8885 51.4529C15.8485 52.0029 16.1685 53.2329 15.6185 54.1829L12.7285 59.1829C12.3585 59.8229 11.6885 60.1829 10.9985 60.1829Z" fill="url(#paint4_linear_1_432)"/>
<path d="M27.6086 60.1829C27.2686 60.1829 26.9286 60.0929 26.6086 59.9129C25.6486 59.3629 25.3286 58.1329 25.8786 57.1829L28.7686 52.1829C29.3186 51.2229 30.5385 50.8929 31.4985 51.4529C32.4585 52.0029 32.7786 53.2329 32.2286 54.1829L29.3385 59.1829C28.9685 59.8229 28.2986 60.1829 27.6086 60.1829Z" fill="url(#paint5_linear_1_432)"/>
<path d="M44.2185 60.1829C43.8785 60.1829 43.5385 60.0929 43.2185 59.9129C42.2585 59.3629 41.9385 58.1329 42.4885 57.1829L45.3785 52.1829C45.9285 51.2229 47.1485 50.8929 48.1085 51.4529C49.0685 52.0029 49.3885 53.2329 48.8385 54.1829L45.9485 59.1829C45.5785 59.8229 44.9085 60.1829 44.2185 60.1829Z" fill="url(#paint6_linear_1_432)"/>
<path d="M54.9985 53.003C54.6585 53.003 54.3185 52.913 53.9985 52.733C53.0385 52.183 52.7185 50.953 53.2685 50.003L56.1585 45.003C56.7085 44.043 57.9285 43.713 58.8885 44.273C59.8485 44.823 60.1685 46.053 59.6185 47.003L56.7285 52.003C56.3585 52.643 55.6885 53.003 54.9985 53.003Z" fill="url(#paint7_linear_1_432)"/>
<defs>
<linearGradient id="paint0_linear_1_432" x1="38.75" y1="39.0001" x2="59.07" y2="18.6701" gradientUnits="userSpaceOnUse">
<stop stop-color="#D0E8F8"/>
<stop offset="1" stop-color="#E1EEF9"/>
</linearGradient>
<linearGradient id="paint1_linear_1_432" x1="3.99854" y1="48.503" x2="10.8885" y2="48.503" gradientUnits="userSpaceOnUse">
<stop stop-color="#00AEEF"/>
<stop offset="1" stop-color="#00BDF2"/>
</linearGradient>
<linearGradient id="paint2_linear_1_432" x1="20.1086" y1="48.503" x2="26.9986" y2="48.503" gradientUnits="userSpaceOnUse">
<stop stop-color="#00AEEF"/>
<stop offset="1" stop-color="#00BDF2"/>
</linearGradient>
<linearGradient id="paint3_linear_1_432" x1="36.2185" y1="48.503" x2="43.1085" y2="48.503" gradientUnits="userSpaceOnUse">
<stop stop-color="#00AEEF"/>
<stop offset="1" stop-color="#00BDF2"/>
</linearGradient>
<linearGradient id="paint4_linear_1_432" x1="8.99854" y1="55.6829" x2="15.8885" y2="55.6829" gradientUnits="userSpaceOnUse">
<stop stop-color="#00AEEF"/>
<stop offset="1" stop-color="#00BDF2"/>
</linearGradient>
<linearGradient id="paint5_linear_1_432" x1="25.6086" y1="55.6829" x2="32.4986" y2="55.6829" gradientUnits="userSpaceOnUse">
<stop stop-color="#00AEEF"/>
<stop offset="1" stop-color="#00BDF2"/>
</linearGradient>
<linearGradient id="paint6_linear_1_432" x1="42.2185" y1="55.6829" x2="49.1085" y2="55.6829" gradientUnits="userSpaceOnUse">
<stop stop-color="#00AEEF"/>
<stop offset="1" stop-color="#00BDF2"/>
</linearGradient>
<linearGradient id="paint7_linear_1_432" x1="52.9985" y1="48.503" x2="59.8885" y2="48.503" gradientUnits="userSpaceOnUse">
<stop stop-color="#00AEEF"/>
<stop offset="1" stop-color="#00BDF2"/>
</linearGradient>
</defs>
</svg>
