<svg width="67" height="62" viewBox="0 0 67 62" fill="none" xmlns="http://www.w3.org/2000/svg">
<path d="M46 36.44C51.89 36.44 56.66 31.67 56.66 25.78C56.66 19.89 51.89 15.12 46 15.12C45.96 15.12 45.93 15.12 45.89 15.12C44.94 6.62 37.73 0 28.98 0C22.06 0 16.12 4.12999 13.45 10.05C13.37 10.05 13.28 10.05 13.2 10.05C5.91001 10.05 0 15.96 0 23.25C0 30.54 5.91001 36.45 13.2 36.45" fill="#A1CFEE"/>
<path d="M60.22 36.4401C63.92 36.4401 66.92 33.4401 66.92 29.7401C66.92 26.0401 63.92 23.0401 60.22 23.0401C60.2 23.0401 60.17 23.0401 60.15 23.0401C59.55 17.7001 55.03 13.55 49.53 13.55C45.19 13.55 41.45 16.1401 39.78 19.8601C39.73 19.8601 39.67 19.8601 39.62 19.8601C35.04 19.8601 31.33 23.5701 31.33 28.1501C31.33 32.7301 35.04 36.4401 39.62 36.4401" fill="url(#paint0_linear_2_349)"/>
<path d="M10.5 45C11.8807 45 13 43.8807 13 42.5C13 41.1193 11.8807 40 10.5 40C9.11929 40 8 41.1193 8 42.5C8 43.8807 9.11929 45 10.5 45Z" fill="url(#paint1_linear_2_349)"/>
<path d="M20.5 45C21.8807 45 23 43.8807 23 42.5C23 41.1193 21.8807 40 20.5 40C19.1193 40 18 41.1193 18 42.5C18 43.8807 19.1193 45 20.5 45Z" fill="url(#paint2_linear_2_349)"/>
<path d="M30.5 45C31.8807 45 33 43.8807 33 42.5C33 41.1193 31.8807 40 30.5 40C29.1193 40 28 41.1193 28 42.5C28 43.8807 29.1193 45 30.5 45Z" fill="url(#paint3_linear_2_349)"/>
<path d="M40.5 45C41.8807 45 43 43.8807 43 42.5C43 41.1193 41.8807 40 40.5 40C39.1193 40 38 41.1193 38 42.5C38 43.8807 39.1193 45 40.5 45Z" fill="url(#paint4_linear_2_349)"/>
<path d="M50.5 45C51.8807 45 53 43.8807 53 42.5C53 41.1193 51.8807 40 50.5 40C49.1193 40 48 41.1193 48 42.5C48 43.8807 49.1193 45 50.5 45Z" fill="url(#paint5_linear_2_349)"/>
<path d="M60.5 45C61.8807 45 63 43.8807 63 42.5C63 41.1193 61.8807 40 60.5 40C59.1193 40 58 41.1193 58 42.5C58 43.8807 59.1193 45 60.5 45Z" fill="url(#paint6_linear_2_349)"/>
<path d="M9 56.28C10.1046 56.28 11 55.3846 11 54.28C11 53.1755 10.1046 52.28 9 52.28C7.89543 52.28 7 53.1755 7 54.28C7 55.3846 7.89543 56.28 9 56.28Z" fill="url(#paint7_linear_2_349)"/>
<path d="M19 56.28C20.1046 56.28 21 55.3846 21 54.28C21 53.1755 20.1046 52.28 19 52.28C17.8954 52.28 17 53.1755 17 54.28C17 55.3846 17.8954 56.28 19 56.28Z" fill="url(#paint8_linear_2_349)"/>
<path d="M14.25 50.5C15.4926 50.5 16.5 49.4926 16.5 48.25C16.5 47.0074 15.4926 46 14.25 46C13.0074 46 12 47.0074 12 48.25C12 49.4926 13.0074 50.5 14.25 50.5Z" fill="url(#paint9_linear_2_349)"/>
<path d="M24.25 50.5C25.4926 50.5 26.5 49.4926 26.5 48.25C26.5 47.0074 25.4926 46 24.25 46C23.0074 46 22 47.0074 22 48.25C22 49.4926 23.0074 50.5 24.25 50.5Z" fill="url(#paint10_linear_2_349)"/>
<path d="M39 56.28C40.1046 56.28 41 55.3846 41 54.28C41 53.1755 40.1046 52.28 39 52.28C37.8954 52.28 37 53.1755 37 54.28C37 55.3846 37.8954 56.28 39 56.28Z" fill="url(#paint11_linear_2_349)"/>
<path d="M29 56C30.1046 56 31 55.1046 31 54C31 52.8954 30.1046 52 29 52C27.8954 52 27 52.8954 27 54C27 55.1046 27.8954 56 29 56Z" fill="url(#paint12_linear_2_349)"/>
<path d="M49 56.28C50.1046 56.28 51 55.3846 51 54.28C51 53.1755 50.1046 52.28 49 52.28C47.8954 52.28 47 53.1755 47 54.28C47 55.3846 47.8954 56.28 49 56.28Z" fill="url(#paint13_linear_2_349)"/>
<path d="M15 61.28C16.1046 61.28 17 60.3846 17 59.28C17 58.1755 16.1046 57.28 15 57.28C13.8954 57.28 13 58.1755 13 59.28C13 60.3846 13.8954 61.28 15 61.28Z" fill="url(#paint14_linear_2_349)"/>
<path d="M25 61.28C26.1046 61.28 27 60.3846 27 59.28C27 58.1755 26.1046 57.28 25 57.28C23.8954 57.28 23 58.1755 23 59.28C23 60.3846 23.8954 61.28 25 61.28Z" fill="url(#paint15_linear_2_349)"/>
<path d="M45 61.28C46.1046 61.28 47 60.3846 47 59.28C47 58.1755 46.1046 57.28 45 57.28C43.8954 57.28 43 58.1755 43 59.28C43 60.3846 43.8954 61.28 45 61.28Z" fill="url(#paint16_linear_2_349)"/>
<path d="M35 61C36.1046 61 37 60.1046 37 59C37 57.8954 36.1046 57 35 57C33.8954 57 33 57.8954 33 59C33 60.1046 33.8954 61 35 61Z" fill="url(#paint17_linear_2_349)"/>
<path d="M55 61.28C56.1046 61.28 57 60.3846 57 59.28C57 58.1755 56.1046 57.28 55 57.28C53.8954 57.28 53 58.1755 53 59.28C53 60.3846 53.8954 61.28 55 61.28Z" fill="url(#paint18_linear_2_349)"/>
<path d="M44.25 50.5C45.4926 50.5 46.5 49.4926 46.5 48.25C46.5 47.0074 45.4926 46 44.25 46C43.0074 46 42 47.0074 42 48.25C42 49.4926 43.0074 50.5 44.25 50.5Z" fill="url(#paint19_linear_2_349)"/>
<path d="M34.25 51.22C35.4926 51.22 36.5 50.2126 36.5 48.97C36.5 47.7273 35.4926 46.72 34.25 46.72C33.0074 46.72 32 47.7273 32 48.97C32 50.2126 33.0074 51.22 34.25 51.22Z" fill="url(#paint20_linear_2_349)"/>
<path d="M54.25 50.5C55.4926 50.5 56.5 49.4926 56.5 48.25C56.5 47.0074 55.4926 46 54.25 46C53.0074 46 52 47.0074 52 48.25C52 49.4926 53.0074 50.5 54.25 50.5Z" fill="url(#paint21_linear_2_349)"/>
<defs>
<linearGradient id="paint0_linear_2_349" x1="38.75" y1="39.0001" x2="59.07" y2="18.6701" gradientUnits="userSpaceOnUse">
<stop stop-color="#D0E8F8"/>
<stop offset="1" stop-color="#E1EEF9"/>
</linearGradient>
<linearGradient id="paint1_linear_2_349" x1="8" y1="42.5" x2="13" y2="42.5" gradientUnits="userSpaceOnUse">
<stop stop-color="#A1CFEE"/>
<stop offset="1" stop-color="#E1EEF9"/>
</linearGradient>
<linearGradient id="paint2_linear_2_349" x1="18" y1="42.5" x2="23" y2="42.5" gradientUnits="userSpaceOnUse">
<stop stop-color="#A1CFEE"/>
<stop offset="1" stop-color="#E1EEF9"/>
</linearGradient>
<linearGradient id="paint3_linear_2_349" x1="28" y1="42.5" x2="33" y2="42.5" gradientUnits="userSpaceOnUse">
<stop stop-color="#A1CFEE"/>
<stop offset="1" stop-color="#E1EEF9"/>
</linearGradient>
<linearGradient id="paint4_linear_2_349" x1="38" y1="42.5" x2="43" y2="42.5" gradientUnits="userSpaceOnUse">
<stop stop-color="#A1CFEE"/>
<stop offset="1" stop-color="#E1EEF9"/>
</linearGradient>
<linearGradient id="paint5_linear_2_349" x1="48" y1="42.5" x2="53" y2="42.5" gradientUnits="userSpaceOnUse">
<stop stop-color="#A1CFEE"/>
<stop offset="1" stop-color="#E1EEF9"/>
</linearGradient>
<linearGradient id="paint6_linear_2_349" x1="58" y1="42.5" x2="63" y2="42.5" gradientUnits="userSpaceOnUse">
<stop stop-color="#A1CFEE"/>
<stop offset="1" stop-color="#E1EEF9"/>
</linearGradient>
<linearGradient id="paint7_linear_2_349" x1="7" y1="54.28" x2="11" y2="54.28" gradientUnits="userSpaceOnUse">
<stop stop-color="#A1CFEE"/>
<stop offset="1" stop-color="#E1EEF9"/>
</linearGradient>
<linearGradient id="paint8_linear_2_349" x1="17" y1="54.28" x2="21" y2="54.28" gradientUnits="userSpaceOnUse">
<stop stop-color="#A1CFEE"/>
<stop offset="1" stop-color="#E1EEF9"/>
</linearGradient>
<linearGradient id="paint9_linear_2_349" x1="12" y1="48.25" x2="16.5" y2="48.25" gradientUnits="userSpaceOnUse">
<stop stop-color="#A1CFEE"/>
<stop offset="1" stop-color="#E1EEF9"/>
</linearGradient>
<linearGradient id="paint10_linear_2_349" x1="22" y1="48.25" x2="26.5" y2="48.25" gradientUnits="userSpaceOnUse">
<stop stop-color="#A1CFEE"/>
<stop offset="1" stop-color="#E1EEF9"/>
</linearGradient>
<linearGradient id="paint11_linear_2_349" x1="37" y1="54.28" x2="41" y2="54.28" gradientUnits="userSpaceOnUse">
<stop stop-color="#A1CFEE"/>
<stop offset="1" stop-color="#E1EEF9"/>
</linearGradient>
<linearGradient id="paint12_linear_2_349" x1="27" y1="54" x2="31" y2="54" gradientUnits="userSpaceOnUse">
<stop stop-color="#A1CFEE"/>
<stop offset="1" stop-color="#E1EEF9"/>
</linearGradient>
<linearGradient id="paint13_linear_2_349" x1="47" y1="54.28" x2="51" y2="54.28" gradientUnits="userSpaceOnUse">
<stop stop-color="#A1CFEE"/>
<stop offset="1" stop-color="#E1EEF9"/>
</linearGradient>
<linearGradient id="paint14_linear_2_349" x1="13" y1="59.28" x2="17" y2="59.28" gradientUnits="userSpaceOnUse">
<stop stop-color="#A1CFEE"/>
<stop offset="1" stop-color="#E1EEF9"/>
</linearGradient>
<linearGradient id="paint15_linear_2_349" x1="23" y1="59.28" x2="27" y2="59.28" gradientUnits="userSpaceOnUse">
<stop stop-color="#A1CFEE"/>
<stop offset="1" stop-color="#E1EEF9"/>
</linearGradient>
<linearGradient id="paint16_linear_2_349" x1="43" y1="59.28" x2="47" y2="59.28" gradientUnits="userSpaceOnUse">
<stop stop-color="#A1CFEE"/>
<stop offset="1" stop-color="#E1EEF9"/>
</linearGradient>
<linearGradient id="paint17_linear_2_349" x1="33" y1="59" x2="37" y2="59" gradientUnits="userSpaceOnUse">
<stop stop-color="#A1CFEE"/>
<stop offset="1" stop-color="#E1EEF9"/>
</linearGradient>
<linearGradient id="paint18_linear_2_349" x1="53" y1="59.28" x2="57" y2="59.28" gradientUnits="userSpaceOnUse">
<stop stop-color="#A1CFEE"/>
<stop offset="1" stop-color="#E1EEF9"/>
</linearGradient>
<linearGradient id="paint19_linear_2_349" x1="42" y1="48.25" x2="46.5" y2="48.25" gradientUnits="userSpaceOnUse">
<stop stop-color="#A1CFEE"/>
<stop offset="1" stop-color="#E1EEF9"/>
</linearGradient>
<linearGradient id="paint20_linear_2_349" x1="32" y1="48.97" x2="36.5" y2="48.97" gradientUnits="userSpaceOnUse">
<stop stop-color="#A1CFEE"/>
<stop offset="1" stop-color="#E1EEF9"/>
</linearGradient>
<linearGradient id="paint21_linear_2_349" x1="52" y1="48.25" x2="56.5" y2="48.25" gradientUnits="userSpaceOnUse">
<stop stop-color="#A1CFEE"/>
<stop offset="1" stop-color="#E1EEF9"/>
</linearGradient>
</defs>
</svg>
