<svg width="67" height="55" viewBox="0 0 67 55" fill="none" xmlns="http://www.w3.org/2000/svg">
<path d="M48.96 25.92C56.1176 25.92 61.92 20.1176 61.92 12.96C61.92 5.80241 56.1176 0 48.96 0C41.8024 0 36 5.80241 36 12.96C36 20.1176 41.8024 25.92 48.96 25.92Z" fill="url(#paint0_linear_2_402)"/>
<path d="M46 36.44C51.89 36.44 56.66 31.67 56.66 25.78C56.66 19.89 51.89 15.12 46 15.12C45.96 15.12 45.93 15.12 45.89 15.12C44.94 6.62 37.73 0 28.98 0C22.06 0 16.12 4.12999 13.45 10.05C13.37 10.05 13.28 10.05 13.2 10.05C5.91001 10.05 0 15.96 0 23.25C0 30.54 5.91001 36.45 13.2 36.45" fill="#A1CFEE"/>
<path d="M60.22 36.4401C63.92 36.4401 66.92 33.4401 66.92 29.7401C66.92 26.0401 63.92 23.0401 60.22 23.0401C60.2 23.0401 60.17 23.0401 60.15 23.0401C59.55 17.7001 55.03 13.55 49.53 13.55C45.19 13.55 41.45 16.1401 39.78 19.8601C39.73 19.8601 39.67 19.8601 39.62 19.8601C35.04 19.8601 31.33 23.5701 31.33 28.1501C31.33 32.7301 35.04 36.4401 39.62 36.4401" fill="url(#paint1_linear_2_402)"/>
<path d="M20.89 46.5808H10.89C10.06 46.5808 9.39001 45.9108 9.39001 45.0808C9.39001 44.2508 10.06 43.5808 10.89 43.5808H20.89C21.72 43.5808 22.39 44.2508 22.39 45.0808C22.39 45.9108 21.72 46.5808 20.89 46.5808Z" fill="url(#paint2_linear_2_402)"/>
<path d="M42.39 46.5808H27.39C26.56 46.5808 25.89 45.9108 25.89 45.0808C25.89 44.2508 26.56 43.5808 27.39 43.5808H42.39C43.22 43.5808 43.89 44.2508 43.89 45.0808C43.89 45.9108 43.22 46.5808 42.39 46.5808Z" fill="url(#paint3_linear_2_402)"/>
<path d="M30.89 54.5808H10.89C10.06 54.5808 9.39001 53.9108 9.39001 53.0808C9.39001 52.2508 10.06 51.5808 10.89 51.5808H30.89C31.72 51.5808 32.39 52.2508 32.39 53.0808C32.39 53.9108 31.72 54.5808 30.89 54.5808Z" fill="url(#paint4_linear_2_402)"/>
<path d="M52.39 54.5808H37.39C36.56 54.5808 35.89 53.9108 35.89 53.0808C35.89 52.2508 36.56 51.5808 37.39 51.5808H52.39C53.22 51.5808 53.89 52.2508 53.89 53.0808C53.89 53.9108 53.22 54.5808 52.39 54.5808Z" fill="url(#paint5_linear_2_402)"/>
<defs>
<linearGradient id="paint0_linear_2_402" x1="39.79" y1="22.13" x2="58.12" y2="3.80002" gradientUnits="userSpaceOnUse">
<stop stop-color="#FDB728"/>
<stop offset="1" stop-color="#FFCD23"/>
</linearGradient>
<linearGradient id="paint1_linear_2_402" x1="38.75" y1="39.0001" x2="59.07" y2="18.6701" gradientUnits="userSpaceOnUse">
<stop stop-color="#D0E8F8"/>
<stop offset="1" stop-color="#E1EEF9"/>
</linearGradient>
<linearGradient id="paint2_linear_2_402" x1="9.39001" y1="45.0808" x2="22.39" y2="45.0808" gradientUnits="userSpaceOnUse">
<stop stop-color="#00AEEF"/>
<stop offset="1" stop-color="#00BDF2"/>
</linearGradient>
<linearGradient id="paint3_linear_2_402" x1="25.89" y1="45.0808" x2="43.89" y2="45.0808" gradientUnits="userSpaceOnUse">
<stop stop-color="#00AEEF"/>
<stop offset="1" stop-color="#00BDF2"/>
</linearGradient>
<linearGradient id="paint4_linear_2_402" x1="9.39001" y1="53.0808" x2="32.39" y2="53.0808" gradientUnits="userSpaceOnUse">
<stop stop-color="#00AEEF"/>
<stop offset="1" stop-color="#00BDF2"/>
</linearGradient>
<linearGradient id="paint5_linear_2_402" x1="35.89" y1="53.0808" x2="53.89" y2="53.0808" gradientUnits="userSpaceOnUse">
<stop stop-color="#00AEEF"/>
<stop offset="1" stop-color="#00BDF2"/>
</linearGradient>
</defs>
</svg>
