<svg width="67" height="61" viewBox="0 0 67 61" fill="none" xmlns="http://www.w3.org/2000/svg">
<path d="M46 36.44C51.89 36.44 56.66 31.67 56.66 25.78C56.66 19.89 51.89 15.12 46 15.12C45.96 15.12 45.93 15.12 45.89 15.12C44.94 6.62 37.73 0 28.98 0C22.06 0 16.12 4.12999 13.45 10.05C13.37 10.05 13.28 10.05 13.2 10.05C5.91001 10.05 0 15.96 0 23.25C0 30.54 5.91001 36.45 13.2 36.45" fill="#A1CFEE"/>
<path d="M60.22 36.4401C63.92 36.4401 66.92 33.4401 66.92 29.7401C66.92 26.0401 63.92 23.0401 60.22 23.0401C60.2 23.0401 60.17 23.0401 60.15 23.0401C59.55 17.7001 55.03 13.55 49.53 13.55C45.19 13.55 41.45 16.1401 39.78 19.8601C39.73 19.8601 39.67 19.8601 39.62 19.8601C35.04 19.8601 31.33 23.5701 31.33 28.1501C31.33 32.7301 35.04 36.4401 39.62 36.4401" fill="url(#paint0_linear_1_444)"/>
<path d="M5.99852 53.003C5.65852 53.003 5.31852 52.913 4.99852 52.733C4.03852 52.183 3.71854 50.953 4.26854 50.003L7.15853 45.003C7.70853 44.043 8.92854 43.713 9.88854 44.273C10.8485 44.823 11.1685 46.053 10.6185 47.003L7.72853 52.003C7.35853 52.643 6.68852 53.003 5.99852 53.003Z" fill="url(#paint1_linear_1_444)"/>
<path d="M19.9985 53.003C19.6585 53.003 19.3185 52.913 18.9985 52.733C18.0385 52.183 17.7185 50.953 18.2685 50.003L21.1585 45.003C21.7085 44.043 22.9285 43.713 23.8885 44.273C24.8485 44.823 25.1685 46.053 24.6185 47.003L21.7285 52.003C21.3585 52.643 20.6885 53.003 19.9985 53.003Z" fill="url(#paint2_linear_1_444)"/>
<path d="M36.9985 53.003C36.6585 53.003 36.3185 52.913 35.9985 52.733C35.0385 52.183 34.7185 50.953 35.2685 50.003L38.1585 45.003C38.7085 44.043 39.9285 43.713 40.8885 44.273C41.8485 44.823 42.1685 46.053 41.6185 47.003L38.7285 52.003C38.3585 52.643 37.6885 53.003 36.9985 53.003Z" fill="url(#paint3_linear_1_444)"/>
<path d="M9.99852 60.003C9.65852 60.003 9.31852 59.913 8.99852 59.733C8.03852 59.183 7.71854 57.953 8.26854 57.003L11.1585 52.003C11.7085 51.043 12.9285 50.713 13.8885 51.273C14.8485 51.823 15.1685 53.053 14.6185 54.003L11.7285 59.003C11.3585 59.643 10.6885 60.003 9.99852 60.003Z" fill="url(#paint4_linear_1_444)"/>
<path d="M25.9985 60.003C25.6585 60.003 25.3185 59.913 24.9985 59.733C24.0385 59.183 23.7185 57.953 24.2685 57.003L27.1585 52.003C27.7085 51.043 28.9285 50.713 29.8885 51.273C30.8485 51.823 31.1685 53.053 30.6185 54.003L27.7285 59.003C27.3585 59.643 26.6885 60.003 25.9985 60.003Z" fill="url(#paint5_linear_1_444)"/>
<path d="M41.9985 60.003C41.6585 60.003 41.3185 59.913 40.9985 59.733C40.0385 59.183 39.7185 57.953 40.2685 57.003L43.1585 52.003C43.7085 51.043 44.9285 50.713 45.8885 51.273C46.8485 51.823 47.1685 53.053 46.6185 54.003L43.7285 59.003C43.3585 59.643 42.6885 60.003 41.9985 60.003Z" fill="url(#paint6_linear_1_444)"/>
<path d="M56.9985 60.003C56.6585 60.003 56.3185 59.913 55.9985 59.733C55.0385 59.183 54.7185 57.953 55.2685 57.003L58.1585 52.003C58.7085 51.043 59.9285 50.713 60.8885 51.273C61.8485 51.823 62.1685 53.053 61.6185 54.003L58.7285 59.003C58.3585 59.643 57.6885 60.003 56.9985 60.003Z" fill="url(#paint7_linear_1_444)"/>
<path d="M51.9985 53.003C51.6585 53.003 51.3185 52.913 50.9985 52.733C50.0385 52.183 49.7185 50.953 50.2685 50.003L53.1585 45.003C53.7085 44.043 54.9285 43.713 55.8885 44.273C56.8485 44.823 57.1685 46.053 56.6185 47.003L53.7285 52.003C53.3585 52.643 52.6885 53.003 51.9985 53.003Z" fill="url(#paint8_linear_1_444)"/>
<defs>
<linearGradient id="paint0_linear_1_444" x1="38.75" y1="39.0001" x2="59.07" y2="18.6701" gradientUnits="userSpaceOnUse">
<stop stop-color="#D0E8F8"/>
<stop offset="1" stop-color="#E1EEF9"/>
</linearGradient>
<linearGradient id="paint1_linear_1_444" x1="3.99854" y1="48.503" x2="10.8885" y2="48.503" gradientUnits="userSpaceOnUse">
<stop stop-color="#00AEEF"/>
<stop offset="1" stop-color="#00BDF2"/>
</linearGradient>
<linearGradient id="paint2_linear_1_444" x1="17.9985" y1="48.503" x2="24.8885" y2="48.503" gradientUnits="userSpaceOnUse">
<stop stop-color="#00AEEF"/>
<stop offset="1" stop-color="#00BDF2"/>
</linearGradient>
<linearGradient id="paint3_linear_1_444" x1="34.9985" y1="48.503" x2="41.8885" y2="48.503" gradientUnits="userSpaceOnUse">
<stop stop-color="#00AEEF"/>
<stop offset="1" stop-color="#00BDF2"/>
</linearGradient>
<linearGradient id="paint4_linear_1_444" x1="7.99854" y1="55.503" x2="14.8885" y2="55.503" gradientUnits="userSpaceOnUse">
<stop stop-color="#00AEEF"/>
<stop offset="1" stop-color="#00BDF2"/>
</linearGradient>
<linearGradient id="paint5_linear_1_444" x1="23.9985" y1="55.503" x2="30.8885" y2="55.503" gradientUnits="userSpaceOnUse">
<stop stop-color="#00AEEF"/>
<stop offset="1" stop-color="#00BDF2"/>
</linearGradient>
<linearGradient id="paint6_linear_1_444" x1="39.9985" y1="55.503" x2="46.8885" y2="55.503" gradientUnits="userSpaceOnUse">
<stop stop-color="#00AEEF"/>
<stop offset="1" stop-color="#00BDF2"/>
</linearGradient>
<linearGradient id="paint7_linear_1_444" x1="54.9985" y1="55.503" x2="61.8885" y2="55.503" gradientUnits="userSpaceOnUse">
<stop stop-color="#00AEEF"/>
<stop offset="1" stop-color="#00BDF2"/>
</linearGradient>
<linearGradient id="paint8_linear_1_444" x1="49.9985" y1="48.503" x2="56.8885" y2="48.503" gradientUnits="userSpaceOnUse">
<stop stop-color="#00AEEF"/>
<stop offset="1" stop-color="#00BDF2"/>
</linearGradient>
</defs>
</svg>
