<svg width="67" height="61" viewBox="0 0 67 61" fill="none" xmlns="http://www.w3.org/2000/svg">
<path d="M46 36.44C51.89 36.44 56.66 31.67 56.66 25.78C56.66 19.89 51.89 15.12 46 15.12C45.96 15.12 45.93 15.12 45.89 15.12C44.94 6.62 37.73 0 28.98 0C22.06 0 16.12 4.12999 13.45 10.05C13.37 10.05 13.28 10.05 13.2 10.05C5.91001 10.05 0 15.96 0 23.25C0 30.54 5.91001 36.45 13.2 36.45" fill="#A1CFEE"/>
<path d="M60.22 36.4401C63.92 36.4401 66.92 33.4401 66.92 29.7401C66.92 26.0401 63.92 23.0401 60.22 23.0401C60.2 23.0401 60.17 23.0401 60.15 23.0401C59.55 17.7001 55.03 13.55 49.53 13.55C45.19 13.55 41.45 16.1401 39.78 19.8601C39.73 19.8601 39.67 19.8601 39.62 19.8601C35.04 19.8601 31.33 23.5701 31.33 28.1501C31.33 32.7301 35.04 36.4401 39.62 36.4401" fill="url(#paint0_linear_2_327)"/>
<path d="M10.5 45C11.8807 45 13 43.8807 13 42.5C13 41.1193 11.8807 40 10.5 40C9.11929 40 8 41.1193 8 42.5C8 43.8807 9.11929 45 10.5 45Z" fill="url(#paint1_linear_2_327)"/>
<path d="M20.5 45C21.8807 45 23 43.8807 23 42.5C23 41.1193 21.8807 40 20.5 40C19.1193 40 18 41.1193 18 42.5C18 43.8807 19.1193 45 20.5 45Z" fill="url(#paint2_linear_2_327)"/>
<path d="M30.5 45C31.8807 45 33 43.8807 33 42.5C33 41.1193 31.8807 40 30.5 40C29.1193 40 28 41.1193 28 42.5C28 43.8807 29.1193 45 30.5 45Z" fill="url(#paint3_linear_2_327)"/>
<path d="M40.5 45C41.8807 45 43 43.8807 43 42.5C43 41.1193 41.8807 40 40.5 40C39.1193 40 38 41.1193 38 42.5C38 43.8807 39.1193 45 40.5 45Z" fill="url(#paint4_linear_2_327)"/>
<path d="M50.5 45C51.8807 45 53 43.8807 53 42.5C53 41.1193 51.8807 40 50.5 40C49.1193 40 48 41.1193 48 42.5C48 43.8807 49.1193 45 50.5 45Z" fill="url(#paint5_linear_2_327)"/>
<path d="M60.5 45C61.8807 45 63 43.8807 63 42.5C63 41.1193 61.8807 40 60.5 40C59.1193 40 58 41.1193 58 42.5C58 43.8807 59.1193 45 60.5 45Z" fill="url(#paint6_linear_2_327)"/>
<path d="M9 60.28C10.1046 60.28 11 59.3846 11 58.28C11 57.1755 10.1046 56.28 9 56.28C7.89543 56.28 7 57.1755 7 58.28C7 59.3846 7.89543 60.28 9 60.28Z" fill="url(#paint7_linear_2_327)"/>
<path d="M19 60.28C20.1046 60.28 21 59.3846 21 58.28C21 57.1755 20.1046 56.28 19 56.28C17.8954 56.28 17 57.1755 17 58.28C17 59.3846 17.8954 60.28 19 60.28Z" fill="url(#paint8_linear_2_327)"/>
<path d="M14.25 52.78C15.4926 52.78 16.5 51.7727 16.5 50.53C16.5 49.2874 15.4926 48.28 14.25 48.28C13.0074 48.28 12 49.2874 12 50.53C12 51.7727 13.0074 52.78 14.25 52.78Z" fill="url(#paint9_linear_2_327)"/>
<path d="M24.25 52.78C25.4926 52.78 26.5 51.7727 26.5 50.53C26.5 49.2874 25.4926 48.28 24.25 48.28C23.0074 48.28 22 49.2874 22 50.53C22 51.7727 23.0074 52.78 24.25 52.78Z" fill="url(#paint10_linear_2_327)"/>
<path d="M39 60.28C40.1046 60.28 41 59.3846 41 58.28C41 57.1755 40.1046 56.28 39 56.28C37.8954 56.28 37 57.1755 37 58.28C37 59.3846 37.8954 60.28 39 60.28Z" fill="url(#paint11_linear_2_327)"/>
<path d="M29 60C30.1046 60 31 59.1046 31 58C31 56.8954 30.1046 56 29 56C27.8954 56 27 56.8954 27 58C27 59.1046 27.8954 60 29 60Z" fill="url(#paint12_linear_2_327)"/>
<path d="M49 60.28C50.1046 60.28 51 59.3846 51 58.28C51 57.1755 50.1046 56.28 49 56.28C47.8954 56.28 47 57.1755 47 58.28C47 59.3846 47.8954 60.28 49 60.28Z" fill="url(#paint13_linear_2_327)"/>
<path d="M44.25 52.78C45.4926 52.78 46.5 51.7727 46.5 50.53C46.5 49.2874 45.4926 48.28 44.25 48.28C43.0074 48.28 42 49.2874 42 50.53C42 51.7727 43.0074 52.78 44.25 52.78Z" fill="url(#paint14_linear_2_327)"/>
<path d="M34.25 53.5C35.4926 53.5 36.5 52.4926 36.5 51.25C36.5 50.0074 35.4926 49 34.25 49C33.0074 49 32 50.0074 32 51.25C32 52.4926 33.0074 53.5 34.25 53.5Z" fill="url(#paint15_linear_2_327)"/>
<path d="M54.25 52.78C55.4926 52.78 56.5 51.7727 56.5 50.53C56.5 49.2874 55.4926 48.28 54.25 48.28C53.0074 48.28 52 49.2874 52 50.53C52 51.7727 53.0074 52.78 54.25 52.78Z" fill="url(#paint16_linear_2_327)"/>
<defs>
<linearGradient id="paint0_linear_2_327" x1="38.75" y1="39.0001" x2="59.07" y2="18.6701" gradientUnits="userSpaceOnUse">
<stop stop-color="#D0E8F8"/>
<stop offset="1" stop-color="#E1EEF9"/>
</linearGradient>
<linearGradient id="paint1_linear_2_327" x1="8" y1="42.5" x2="13" y2="42.5" gradientUnits="userSpaceOnUse">
<stop stop-color="#A1CFEE"/>
<stop offset="1" stop-color="#E1EEF9"/>
</linearGradient>
<linearGradient id="paint2_linear_2_327" x1="18" y1="42.5" x2="23" y2="42.5" gradientUnits="userSpaceOnUse">
<stop stop-color="#A1CFEE"/>
<stop offset="1" stop-color="#E1EEF9"/>
</linearGradient>
<linearGradient id="paint3_linear_2_327" x1="28" y1="42.5" x2="33" y2="42.5" gradientUnits="userSpaceOnUse">
<stop stop-color="#A1CFEE"/>
<stop offset="1" stop-color="#E1EEF9"/>
</linearGradient>
<linearGradient id="paint4_linear_2_327" x1="38" y1="42.5" x2="43" y2="42.5" gradientUnits="userSpaceOnUse">
<stop stop-color="#A1CFEE"/>
<stop offset="1" stop-color="#E1EEF9"/>
</linearGradient>
<linearGradient id="paint5_linear_2_327" x1="48" y1="42.5" x2="53" y2="42.5" gradientUnits="userSpaceOnUse">
<stop stop-color="#A1CFEE"/>
<stop offset="1" stop-color="#E1EEF9"/>
</linearGradient>
<linearGradient id="paint6_linear_2_327" x1="58" y1="42.5" x2="63" y2="42.5" gradientUnits="userSpaceOnUse">
<stop stop-color="#A1CFEE"/>
<stop offset="1" stop-color="#E1EEF9"/>
</linearGradient>
<linearGradient id="paint7_linear_2_327" x1="7" y1="58.28" x2="11" y2="58.28" gradientUnits="userSpaceOnUse">
<stop stop-color="#A1CFEE"/>
<stop offset="1" stop-color="#E1EEF9"/>
</linearGradient>
<linearGradient id="paint8_linear_2_327" x1="17" y1="58.28" x2="21" y2="58.28" gradientUnits="userSpaceOnUse">
<stop stop-color="#A1CFEE"/>
<stop offset="1" stop-color="#E1EEF9"/>
</linearGradient>
<linearGradient id="paint9_linear_2_327" x1="12" y1="50.53" x2="16.5" y2="50.53" gradientUnits="userSpaceOnUse">
<stop stop-color="#A1CFEE"/>
<stop offset="1" stop-color="#E1EEF9"/>
</linearGradient>
<linearGradient id="paint10_linear_2_327" x1="22" y1="50.53" x2="26.5" y2="50.53" gradientUnits="userSpaceOnUse">
<stop stop-color="#A1CFEE"/>
<stop offset="1" stop-color="#E1EEF9"/>
</linearGradient>
<linearGradient id="paint11_linear_2_327" x1="37" y1="58.28" x2="41" y2="58.28" gradientUnits="userSpaceOnUse">
<stop stop-color="#A1CFEE"/>
<stop offset="1" stop-color="#E1EEF9"/>
</linearGradient>
<linearGradient id="paint12_linear_2_327" x1="27" y1="58" x2="31" y2="58" gradientUnits="userSpaceOnUse">
<stop stop-color="#A1CFEE"/>
<stop offset="1" stop-color="#E1EEF9"/>
</linearGradient>
<linearGradient id="paint13_linear_2_327" x1="47" y1="58.28" x2="51" y2="58.28" gradientUnits="userSpaceOnUse">
<stop stop-color="#A1CFEE"/>
<stop offset="1" stop-color="#E1EEF9"/>
</linearGradient>
<linearGradient id="paint14_linear_2_327" x1="42" y1="50.53" x2="46.5" y2="50.53" gradientUnits="userSpaceOnUse">
<stop stop-color="#A1CFEE"/>
<stop offset="1" stop-color="#E1EEF9"/>
</linearGradient>
<linearGradient id="paint15_linear_2_327" x1="32" y1="51.25" x2="36.5" y2="51.25" gradientUnits="userSpaceOnUse">
<stop stop-color="#A1CFEE"/>
<stop offset="1" stop-color="#E1EEF9"/>
</linearGradient>
<linearGradient id="paint16_linear_2_327" x1="52" y1="50.53" x2="56.5" y2="50.53" gradientUnits="userSpaceOnUse">
<stop stop-color="#A1CFEE"/>
<stop offset="1" stop-color="#E1EEF9"/>
</linearGradient>
</defs>
</svg>
