<svg width="67" height="61" viewBox="0 0 67 61" fill="none" xmlns="http://www.w3.org/2000/svg">
<path d="M46 36.44C51.89 36.44 56.66 31.67 56.66 25.78C56.66 19.89 51.89 15.12 46 15.12C45.96 15.12 45.93 15.12 45.89 15.12C44.94 6.62 37.73 0 28.98 0C22.06 0 16.12 4.12999 13.45 10.05C13.37 10.05 13.28 10.05 13.2 10.05C5.91001 10.05 0 15.96 0 23.25C0 30.54 5.91001 36.45 13.2 36.45" fill="#A1CFEE"/>
<path d="M60.22 36.4401C63.92 36.4401 66.92 33.4401 66.92 29.7401C66.92 26.0401 63.92 23.0401 60.22 23.0401C60.2 23.0401 60.17 23.0401 60.15 23.0401C59.55 17.7001 55.03 13.55 49.53 13.55C45.19 13.55 41.45 16.1401 39.78 19.8601C39.73 19.8601 39.67 19.8601 39.62 19.8601C35.04 19.8601 31.33 23.5701 31.33 28.1501C31.33 32.7301 35.04 36.4401 39.62 36.4401" fill="url(#paint0_linear_2_5)"/>
<path d="M2.99857 54.533C2.65857 54.533 2.31857 54.443 1.99857 54.263C1.03857 53.713 0.718527 52.483 1.26853 51.533L7.76853 40.273C8.31853 39.313 9.54857 38.983 10.4986 39.543C11.4586 40.093 11.7785 41.323 11.2285 42.273L4.72855 53.533C4.35855 54.173 3.68857 54.533 2.99857 54.533Z" fill="url(#paint1_linear_2_5)"/>
<path d="M10.1385 60.323C9.79854 60.323 9.45854 60.233 9.13854 60.053C8.17854 59.503 7.85856 58.273 8.40856 57.323L18.4086 40.003C18.9586 39.043 20.1885 38.713 21.1385 39.273C22.0985 39.823 22.4186 41.053 21.8686 42.003L11.8686 59.323C11.4986 59.963 10.8285 60.323 10.1385 60.323Z" fill="url(#paint2_linear_2_5)"/>
<path d="M31.9985 60.323C31.6585 60.323 31.3185 60.233 30.9985 60.053C30.0385 59.503 29.7185 58.273 30.2685 57.323L40.2685 40.003C40.8185 39.043 42.0485 38.713 42.9985 39.273C43.9585 39.823 44.2786 41.053 43.7286 42.003L33.7286 59.323C33.3586 59.963 32.6885 60.323 31.9985 60.323Z" fill="url(#paint3_linear_2_5)"/>
<path d="M52.9985 60.323C52.6585 60.323 52.3185 60.233 51.9985 60.053C51.0385 59.503 50.7185 58.273 51.2685 57.323L61.2685 40.003C61.8185 39.043 63.0485 38.713 63.9985 39.273C64.9585 39.823 65.2786 41.053 64.7286 42.003L54.7286 59.323C54.3586 59.963 53.6885 60.323 52.9985 60.323Z" fill="url(#paint4_linear_2_5)"/>
<path d="M45.9986 53.393C45.6586 53.393 45.3186 53.303 44.9986 53.123C44.0386 52.573 43.7185 51.343 44.2685 50.393L50.2685 40.003C50.8185 39.043 52.0386 38.713 52.9986 39.273C53.9586 39.823 54.2785 41.053 53.7285 42.003L47.7285 52.393C47.3585 53.033 46.6886 53.393 45.9986 53.393Z" fill="url(#paint5_linear_2_5)"/>
<path d="M23.0286 57.133C22.6886 57.133 22.3486 57.043 22.0286 56.863C21.0686 56.313 20.7486 55.083 21.2986 54.133L29.2986 40.273C29.8486 39.313 31.0786 38.983 32.0286 39.543C32.9886 40.093 33.3085 41.323 32.7585 42.273L24.7585 56.133C24.3885 56.773 23.7186 57.133 23.0286 57.133Z" fill="url(#paint6_linear_2_5)"/>
<defs>
<linearGradient id="paint0_linear_2_5" x1="38.75" y1="39.0001" x2="59.07" y2="18.6701" gradientUnits="userSpaceOnUse">
<stop stop-color="#D0E8F8"/>
<stop offset="1" stop-color="#E1EEF9"/>
</linearGradient>
<linearGradient id="paint1_linear_2_5" x1="1.00854" y1="46.903" x2="11.4986" y2="46.903" gradientUnits="userSpaceOnUse">
<stop stop-color="#00AEEF"/>
<stop offset="1" stop-color="#00BDF2"/>
</linearGradient>
<linearGradient id="paint2_linear_2_5" x1="8.14855" y1="49.933" x2="22.1486" y2="49.933" gradientUnits="userSpaceOnUse">
<stop stop-color="#00AEEF"/>
<stop offset="1" stop-color="#00BDF2"/>
</linearGradient>
<linearGradient id="paint3_linear_2_5" x1="30.0085" y1="49.933" x2="44.0086" y2="49.933" gradientUnits="userSpaceOnUse">
<stop stop-color="#00AEEF"/>
<stop offset="1" stop-color="#00BDF2"/>
</linearGradient>
<linearGradient id="paint4_linear_2_5" x1="51.0085" y1="49.933" x2="65.0086" y2="49.933" gradientUnits="userSpaceOnUse">
<stop stop-color="#00AEEF"/>
<stop offset="1" stop-color="#00BDF2"/>
</linearGradient>
<linearGradient id="paint5_linear_2_5" x1="44.0085" y1="46.193" x2="54.0086" y2="46.193" gradientUnits="userSpaceOnUse">
<stop stop-color="#00AEEF"/>
<stop offset="1" stop-color="#00BDF2"/>
</linearGradient>
<linearGradient id="paint6_linear_2_5" x1="21.0386" y1="48.203" x2="33.0385" y2="48.203" gradientUnits="userSpaceOnUse">
<stop stop-color="#00AEEF"/>
<stop offset="1" stop-color="#00BDF2"/>
</linearGradient>
</defs>
</svg>
