<svg width="67" height="62" viewBox="0 0 67 62" fill="none" xmlns="http://www.w3.org/2000/svg">
<path d="M48.96 25.92C56.1176 25.92 61.92 20.1176 61.92 12.96C61.92 5.80241 56.1176 0 48.96 0C41.8024 0 36 5.80241 36 12.96C36 20.1176 41.8024 25.92 48.96 25.92Z" fill="url(#paint0_linear_2_95)"/>
<path d="M46 37.44C51.89 37.44 56.66 32.67 56.66 26.78C56.66 20.89 51.89 16.12 46 16.12C45.96 16.12 45.93 16.12 45.89 16.12C44.94 7.62 37.73 1 28.98 1C22.06 1 16.12 5.12999 13.45 11.05C13.37 11.05 13.28 11.05 13.2 11.05C5.91001 11.05 0 16.96 0 24.25C0 31.54 5.91001 37.45 13.2 37.45" fill="#A1CFEE"/>
<path d="M60.22 37.4401C63.92 37.4401 66.92 34.4401 66.92 30.7401C66.92 27.0401 63.92 24.0401 60.22 24.0401C60.2 24.0401 60.17 24.0401 60.15 24.0401C59.55 18.7001 55.03 14.55 49.53 14.55C45.19 14.55 41.45 17.1401 39.78 20.8601C39.73 20.8601 39.67 20.8601 39.62 20.8601C35.04 20.8601 31.33 24.5701 31.33 29.1501C31.33 33.7301 35.04 37.4401 39.62 37.4401" fill="url(#paint1_linear_2_95)"/>
<path d="M16 45C17.1046 45 18 44.1046 18 43C18 41.8954 17.1046 41 16 41C14.8954 41 14 41.8954 14 43C14 44.1046 14.8954 45 16 45Z" fill="url(#paint2_linear_2_95)"/>
<path d="M26 45C27.1046 45 28 44.1046 28 43C28 41.8954 27.1046 41 26 41C24.8954 41 24 41.8954 24 43C24 44.1046 24.8954 45 26 45Z" fill="url(#paint3_linear_2_95)"/>
<path d="M6 61C7.10457 61 8 60.1046 8 59C8 57.8954 7.10457 57 6 57C4.89543 57 4 57.8954 4 59C4 60.1046 4.89543 61 6 61Z" fill="url(#paint4_linear_2_95)"/>
<path d="M16 61.28C17.1046 61.28 18 60.3846 18 59.28C18 58.1755 17.1046 57.28 16 57.28C14.8954 57.28 14 58.1755 14 59.28C14 60.3846 14.8954 61.28 16 61.28Z" fill="url(#paint5_linear_2_95)"/>
<path d="M11 53.28C12.1046 53.28 13 52.3846 13 51.28C13 50.1755 12.1046 49.28 11 49.28C9.89543 49.28 9 50.1755 9 51.28C9 52.3846 9.89543 53.28 11 53.28Z" fill="url(#paint6_linear_2_95)"/>
<path d="M21 53.28C22.1046 53.28 23 52.3846 23 51.28C23 50.1755 22.1046 49.28 21 49.28C19.8954 49.28 19 50.1755 19 51.28C19 52.3846 19.8954 53.28 21 53.28Z" fill="url(#paint7_linear_2_95)"/>
<path d="M36 45C37.1046 45 38 44.1046 38 43C38 41.8954 37.1046 41 36 41C34.8954 41 34 41.8954 34 43C34 44.1046 34.8954 45 36 45Z" fill="url(#paint8_linear_2_95)"/>
<path d="M46 45C47.1046 45 48 44.1046 48 43C48 41.8954 47.1046 41 46 41C44.8954 41 44 41.8954 44 43C44 44.1046 44.8954 45 46 45Z" fill="url(#paint9_linear_2_95)"/>
<path d="M56 45C57.1046 45 58 44.1046 58 43C58 41.8954 57.1046 41 56 41C54.8954 41 54 41.8954 54 43C54 44.1046 54.8954 45 56 45Z" fill="url(#paint10_linear_2_95)"/>
<path d="M36 61.28C37.1046 61.28 38 60.3846 38 59.28C38 58.1755 37.1046 57.28 36 57.28C34.8954 57.28 34 58.1755 34 59.28C34 60.3846 34.8954 61.28 36 61.28Z" fill="url(#paint11_linear_2_95)"/>
<path d="M26 61C27.1046 61 28 60.1046 28 59C28 57.8954 27.1046 57 26 57C24.8954 57 24 57.8954 24 59C24 60.1046 24.8954 61 26 61Z" fill="url(#paint12_linear_2_95)"/>
<path d="M46 61.28C47.1046 61.28 48 60.3846 48 59.28C48 58.1755 47.1046 57.28 46 57.28C44.8954 57.28 44 58.1755 44 59.28C44 60.3846 44.8954 61.28 46 61.28Z" fill="url(#paint13_linear_2_95)"/>
<path d="M41 53.28C42.1046 53.28 43 52.3846 43 51.28C43 50.1755 42.1046 49.28 41 49.28C39.8954 49.28 39 50.1755 39 51.28C39 52.3846 39.8954 53.28 41 53.28Z" fill="url(#paint14_linear_2_95)"/>
<path d="M31 54C32.1046 54 33 53.1046 33 52C33 50.8954 32.1046 50 31 50C29.8954 50 29 50.8954 29 52C29 53.1046 29.8954 54 31 54Z" fill="url(#paint15_linear_2_95)"/>
<path d="M51 53.28C52.1046 53.28 53 52.3846 53 51.28C53 50.1755 52.1046 49.28 51 49.28C49.8954 49.28 49 50.1755 49 51.28C49 52.3846 49.8954 53.28 51 53.28Z" fill="url(#paint16_linear_2_95)"/>
<defs>
<linearGradient id="paint0_linear_2_95" x1="39.79" y1="22.13" x2="58.12" y2="3.80002" gradientUnits="userSpaceOnUse">
<stop stop-color="#FDB728"/>
<stop offset="1" stop-color="#FFCD23"/>
</linearGradient>
<linearGradient id="paint1_linear_2_95" x1="38.75" y1="40.0001" x2="59.07" y2="19.6701" gradientUnits="userSpaceOnUse">
<stop stop-color="#D0E8F8"/>
<stop offset="1" stop-color="#E1EEF9"/>
</linearGradient>
<linearGradient id="paint2_linear_2_95" x1="14" y1="43" x2="18" y2="43" gradientUnits="userSpaceOnUse">
<stop stop-color="#A1CFEE"/>
<stop offset="1" stop-color="#E1EEF9"/>
</linearGradient>
<linearGradient id="paint3_linear_2_95" x1="24" y1="43" x2="28" y2="43" gradientUnits="userSpaceOnUse">
<stop stop-color="#A1CFEE"/>
<stop offset="1" stop-color="#E1EEF9"/>
</linearGradient>
<linearGradient id="paint4_linear_2_95" x1="4" y1="59" x2="8" y2="59" gradientUnits="userSpaceOnUse">
<stop stop-color="#A1CFEE"/>
<stop offset="1" stop-color="#E1EEF9"/>
</linearGradient>
<linearGradient id="paint5_linear_2_95" x1="14" y1="59.28" x2="18" y2="59.28" gradientUnits="userSpaceOnUse">
<stop stop-color="#A1CFEE"/>
<stop offset="1" stop-color="#E1EEF9"/>
</linearGradient>
<linearGradient id="paint6_linear_2_95" x1="9" y1="51.28" x2="13" y2="51.28" gradientUnits="userSpaceOnUse">
<stop stop-color="#A1CFEE"/>
<stop offset="1" stop-color="#E1EEF9"/>
</linearGradient>
<linearGradient id="paint7_linear_2_95" x1="19" y1="51.28" x2="23" y2="51.28" gradientUnits="userSpaceOnUse">
<stop stop-color="#A1CFEE"/>
<stop offset="1" stop-color="#E1EEF9"/>
</linearGradient>
<linearGradient id="paint8_linear_2_95" x1="34" y1="43" x2="38" y2="43" gradientUnits="userSpaceOnUse">
<stop stop-color="#A1CFEE"/>
<stop offset="1" stop-color="#E1EEF9"/>
</linearGradient>
<linearGradient id="paint9_linear_2_95" x1="44" y1="43" x2="48" y2="43" gradientUnits="userSpaceOnUse">
<stop stop-color="#A1CFEE"/>
<stop offset="1" stop-color="#E1EEF9"/>
</linearGradient>
<linearGradient id="paint10_linear_2_95" x1="54" y1="43" x2="58" y2="43" gradientUnits="userSpaceOnUse">
<stop stop-color="#A1CFEE"/>
<stop offset="1" stop-color="#E1EEF9"/>
</linearGradient>
<linearGradient id="paint11_linear_2_95" x1="34" y1="59.28" x2="38" y2="59.28" gradientUnits="userSpaceOnUse">
<stop stop-color="#A1CFEE"/>
<stop offset="1" stop-color="#E1EEF9"/>
</linearGradient>
<linearGradient id="paint12_linear_2_95" x1="24" y1="59" x2="28" y2="59" gradientUnits="userSpaceOnUse">
<stop stop-color="#A1CFEE"/>
<stop offset="1" stop-color="#E1EEF9"/>
</linearGradient>
<linearGradient id="paint13_linear_2_95" x1="44" y1="59.28" x2="48" y2="59.28" gradientUnits="userSpaceOnUse">
<stop stop-color="#A1CFEE"/>
<stop offset="1" stop-color="#E1EEF9"/>
</linearGradient>
<linearGradient id="paint14_linear_2_95" x1="39" y1="51.28" x2="43" y2="51.28" gradientUnits="userSpaceOnUse">
<stop stop-color="#A1CFEE"/>
<stop offset="1" stop-color="#E1EEF9"/>
</linearGradient>
<linearGradient id="paint15_linear_2_95" x1="29" y1="52" x2="33" y2="52" gradientUnits="userSpaceOnUse">
<stop stop-color="#A1CFEE"/>
<stop offset="1" stop-color="#E1EEF9"/>
</linearGradient>
<linearGradient id="paint16_linear_2_95" x1="49" y1="51.28" x2="53" y2="51.28" gradientUnits="userSpaceOnUse">
<stop stop-color="#A1CFEE"/>
<stop offset="1" stop-color="#E1EEF9"/>
</linearGradient>
</defs>
</svg>
