<svg width="67" height="61" viewBox="0 0 67 61" fill="none" xmlns="http://www.w3.org/2000/svg">
<path d="M46 36.44C51.89 36.44 56.66 31.67 56.66 25.78C56.66 19.89 51.89 15.12 46 15.12C45.96 15.12 45.93 15.12 45.89 15.12C44.94 6.62 37.73 0 28.98 0C22.06 0 16.12 4.12999 13.45 10.05C13.37 10.05 13.28 10.05 13.2 10.05C5.91001 10.05 0 15.96 0 23.25C0 30.54 5.91001 36.45 13.2 36.45" fill="#A1CFEE"/>
<path d="M60.22 36.4401C63.92 36.4401 66.92 33.4401 66.92 29.7401C66.92 26.0401 63.92 23.0401 60.22 23.0401C60.2 23.0401 60.17 23.0401 60.15 23.0401C59.55 17.7001 55.03 13.55 49.53 13.55C45.19 13.55 41.45 16.1401 39.78 19.8601C39.73 19.8601 39.67 19.8601 39.62 19.8601C35.04 19.8601 31.33 23.5701 31.33 28.1501C31.33 32.7301 35.04 36.4401 39.62 36.4401" fill="url(#paint0_linear_1_458)"/>
<path d="M13.9986 54.533C13.6586 54.533 13.3186 54.443 12.9986 54.263C12.0386 53.713 11.7185 52.483 12.2685 51.533L18.7685 40.273C19.3185 39.313 20.5486 38.983 21.4986 39.543C22.4586 40.093 22.7785 41.323 22.2285 42.273L15.7285 53.533C15.3585 54.173 14.6886 54.533 13.9986 54.533Z" fill="url(#paint1_linear_1_458)"/>
<path d="M21.1385 60.323C20.7985 60.323 20.4585 60.233 20.1385 60.053C19.1785 59.503 18.8586 58.273 19.4086 57.323L29.4086 40.003C29.9586 39.043 31.1885 38.713 32.1385 39.273C33.0985 39.823 33.4186 41.053 32.8686 42.003L22.8686 59.323C22.4986 59.963 21.8285 60.323 21.1385 60.323Z" fill="url(#paint2_linear_1_458)"/>
<path d="M45.9186 53.673C45.5786 53.673 45.2386 53.583 44.9186 53.403C43.9586 52.853 43.6385 51.623 44.1885 50.673L50.1885 40.283C50.7385 39.323 51.9586 38.993 52.9186 39.553C53.8786 40.103 54.1985 41.333 53.6485 42.283L47.6485 52.673C47.2785 53.313 46.6086 53.673 45.9186 53.673Z" fill="url(#paint3_linear_1_458)"/>
<path d="M34.0286 57.133C33.6886 57.133 33.3486 57.043 33.0286 56.863C32.0686 56.313 31.7486 55.083 32.2986 54.133L40.2986 40.273C40.8486 39.313 42.0786 38.983 43.0286 39.543C43.9886 40.093 44.3085 41.323 43.7585 42.273L35.7585 56.133C35.3885 56.773 34.7186 57.133 34.0286 57.133Z" fill="url(#paint4_linear_1_458)"/>
<defs>
<linearGradient id="paint0_linear_1_458" x1="38.75" y1="39.0001" x2="59.07" y2="18.6701" gradientUnits="userSpaceOnUse">
<stop stop-color="#D0E8F8"/>
<stop offset="1" stop-color="#E1EEF9"/>
</linearGradient>
<linearGradient id="paint1_linear_1_458" x1="12.0085" y1="46.903" x2="22.4986" y2="46.903" gradientUnits="userSpaceOnUse">
<stop stop-color="#00AEEF"/>
<stop offset="1" stop-color="#00BDF2"/>
</linearGradient>
<linearGradient id="paint2_linear_1_458" x1="19.1486" y1="49.933" x2="33.1486" y2="49.933" gradientUnits="userSpaceOnUse">
<stop stop-color="#00AEEF"/>
<stop offset="1" stop-color="#00BDF2"/>
</linearGradient>
<linearGradient id="paint3_linear_1_458" x1="43.9285" y1="46.473" x2="53.9285" y2="46.473" gradientUnits="userSpaceOnUse">
<stop stop-color="#00AEEF"/>
<stop offset="1" stop-color="#00BDF2"/>
</linearGradient>
<linearGradient id="paint4_linear_1_458" x1="32.0386" y1="48.203" x2="44.0385" y2="48.203" gradientUnits="userSpaceOnUse">
<stop stop-color="#00AEEF"/>
<stop offset="1" stop-color="#00BDF2"/>
</linearGradient>
</defs>
</svg>
