<svg width="67" height="37" viewBox="0 0 67 37" fill="none" xmlns="http://www.w3.org/2000/svg">
<path d="M48.96 26.92C56.1176 26.92 61.92 21.1176 61.92 13.96C61.92 6.80241 56.1176 1 48.96 1C41.8024 1 36 6.80241 36 13.96C36 21.1176 41.8024 26.92 48.96 26.92Z" fill="url(#paint0_linear_2_375)"/>
<path d="M46 36.44C51.89 36.44 56.66 31.67 56.66 25.78C56.66 19.89 51.89 15.12 46 15.12C45.96 15.12 45.93 15.12 45.89 15.12C44.94 6.62 37.73 0 28.98 0C22.06 0 16.12 4.12999 13.45 10.05C13.37 10.05 13.28 10.05 13.2 10.05C5.91001 10.05 0 15.96 0 23.25C0 30.54 5.91001 36.45 13.2 36.45" fill="#A1CFEE"/>
<path d="M59.89 36.89C63.59 36.89 66.59 33.89 66.59 30.19C66.59 26.49 63.59 23.49 59.89 23.49C59.87 23.49 59.8399 23.49 59.8199 23.49C59.2199 18.15 54.7 14 49.2 14C44.86 14 41.12 16.59 39.45 20.31C39.4 20.31 39.34 20.31 39.29 20.31C34.71 20.31 31 24.02 31 28.6C31 33.18 34.71 36.89 39.29 36.89" fill="url(#paint1_linear_2_375)"/>
<path d="M29.5 27H19.5C18.67 27 18 26.33 18 25.5C18 24.67 18.67 24 19.5 24H29.5C30.33 24 31 24.67 31 25.5C31 26.33 30.33 27 29.5 27Z" fill="url(#paint2_linear_2_375)"/>
<path d="M51 27H36C35.17 27 34.5 26.33 34.5 25.5C34.5 24.67 35.17 24 36 24H51C51.83 24 52.5 24.67 52.5 25.5C52.5 26.33 51.83 27 51 27Z" fill="url(#paint3_linear_2_375)"/>
<path d="M39.5 35H19.5C18.67 35 18 34.33 18 33.5C18 32.67 18.67 32 19.5 32H39.5C40.33 32 41 32.67 41 33.5C41 34.33 40.33 35 39.5 35Z" fill="url(#paint4_linear_2_375)"/>
<path d="M61 35H46C45.17 35 44.5 34.33 44.5 33.5C44.5 32.67 45.17 32 46 32H61C61.83 32 62.5 32.67 62.5 33.5C62.5 34.33 61.83 35 61 35Z" fill="url(#paint5_linear_2_375)"/>
<defs>
<linearGradient id="paint0_linear_2_375" x1="39.79" y1="23.13" x2="58.12" y2="4.80002" gradientUnits="userSpaceOnUse">
<stop stop-color="#FDB728"/>
<stop offset="1" stop-color="#FFCD23"/>
</linearGradient>
<linearGradient id="paint1_linear_2_375" x1="38.42" y1="39.45" x2="58.74" y2="19.12" gradientUnits="userSpaceOnUse">
<stop stop-color="#D0E8F8"/>
<stop offset="1" stop-color="#E1EEF9"/>
</linearGradient>
<linearGradient id="paint2_linear_2_375" x1="18" y1="25.5" x2="31" y2="25.5" gradientUnits="userSpaceOnUse">
<stop stop-color="#A1CFEE"/>
<stop offset="1" stop-color="white"/>
</linearGradient>
<linearGradient id="paint3_linear_2_375" x1="34.5" y1="25.5" x2="52.5" y2="25.5" gradientUnits="userSpaceOnUse">
<stop stop-color="#DDEDF9"/>
<stop offset="1" stop-color="white"/>
</linearGradient>
<linearGradient id="paint4_linear_2_375" x1="18" y1="33.5" x2="41" y2="33.5" gradientUnits="userSpaceOnUse">
<stop stop-color="#A1CFEE"/>
<stop offset="0.5" stop-color="white"/>
<stop offset="1" stop-color="white"/>
</linearGradient>
<linearGradient id="paint5_linear_2_375" x1="44.5" y1="33.5" x2="62.5" y2="33.5" gradientUnits="userSpaceOnUse">
<stop stop-color="#DEEDF9"/>
<stop offset="1" stop-color="white"/>
</linearGradient>
</defs>
</svg>
