<svg width="67" height="61" viewBox="0 0 67 61" fill="none" xmlns="http://www.w3.org/2000/svg">
<path d="M46 36.44C51.89 36.44 56.66 31.67 56.66 25.78C56.66 19.89 51.89 15.12 46 15.12C45.96 15.12 45.93 15.12 45.89 15.12C44.94 6.62 37.73 0 28.98 0C22.06 0 16.12 4.12999 13.45 10.05C13.37 10.05 13.28 10.05 13.2 10.05C5.91001 10.05 0 15.96 0 23.25C0 30.54 5.91001 36.45 13.2 36.45" fill="#A1CFEE"/>
<path d="M60.22 36.4401C63.92 36.4401 66.92 33.4401 66.92 29.7401C66.92 26.0401 63.92 23.0401 60.22 23.0401C60.2 23.0401 60.17 23.0401 60.15 23.0401C59.55 17.7001 55.03 13.55 49.53 13.55C45.19 13.55 41.45 16.1401 39.78 19.8601C39.73 19.8601 39.67 19.8601 39.62 19.8601C35.04 19.8601 31.33 23.5701 31.33 28.1501C31.33 32.7301 35.04 36.4401 39.62 36.4401" fill="url(#paint0_linear_2_124)"/>
<path d="M9 44C10.1046 44 11 43.1046 11 42C11 40.8954 10.1046 40 9 40C7.89543 40 7 40.8954 7 42C7 43.1046 7.89543 44 9 44Z" fill="url(#paint1_linear_2_124)"/>
<path d="M19 44C20.1046 44 21 43.1046 21 42C21 40.8954 20.1046 40 19 40C17.8954 40 17 40.8954 17 42C17 43.1046 17.8954 44 19 44Z" fill="url(#paint2_linear_2_124)"/>
<path d="M29 44C30.1046 44 31 43.1046 31 42C31 40.8954 30.1046 40 29 40C27.8954 40 27 40.8954 27 42C27 43.1046 27.8954 44 29 44Z" fill="url(#paint3_linear_2_124)"/>
<path d="M9 60.28C10.1046 60.28 11 59.3846 11 58.28C11 57.1755 10.1046 56.28 9 56.28C7.89543 56.28 7 57.1755 7 58.28C7 59.3846 7.89543 60.28 9 60.28Z" fill="url(#paint4_linear_2_124)"/>
<path d="M19 60.28C20.1046 60.28 21 59.3846 21 58.28C21 57.1755 20.1046 56.28 19 56.28C17.8954 56.28 17 57.1755 17 58.28C17 59.3846 17.8954 60.28 19 60.28Z" fill="url(#paint5_linear_2_124)"/>
<path d="M14 52.28C15.1046 52.28 16 51.3846 16 50.28C16 49.1755 15.1046 48.28 14 48.28C12.8954 48.28 12 49.1755 12 50.28C12 51.3846 12.8954 52.28 14 52.28Z" fill="url(#paint6_linear_2_124)"/>
<path d="M24 52.28C25.1046 52.28 26 51.3846 26 50.28C26 49.1755 25.1046 48.28 24 48.28C22.8954 48.28 22 49.1755 22 50.28C22 51.3846 22.8954 52.28 24 52.28Z" fill="url(#paint7_linear_2_124)"/>
<path d="M39 44C40.1046 44 41 43.1046 41 42C41 40.8954 40.1046 40 39 40C37.8954 40 37 40.8954 37 42C37 43.1046 37.8954 44 39 44Z" fill="url(#paint8_linear_2_124)"/>
<path d="M49 44C50.1046 44 51 43.1046 51 42C51 40.8954 50.1046 40 49 40C47.8954 40 47 40.8954 47 42C47 43.1046 47.8954 44 49 44Z" fill="url(#paint9_linear_2_124)"/>
<path d="M59 44C60.1046 44 61 43.1046 61 42C61 40.8954 60.1046 40 59 40C57.8954 40 57 40.8954 57 42C57 43.1046 57.8954 44 59 44Z" fill="url(#paint10_linear_2_124)"/>
<path d="M39 60.28C40.1046 60.28 41 59.3846 41 58.28C41 57.1755 40.1046 56.28 39 56.28C37.8954 56.28 37 57.1755 37 58.28C37 59.3846 37.8954 60.28 39 60.28Z" fill="url(#paint11_linear_2_124)"/>
<path d="M29 60C30.1046 60 31 59.1046 31 58C31 56.8954 30.1046 56 29 56C27.8954 56 27 56.8954 27 58C27 59.1046 27.8954 60 29 60Z" fill="url(#paint12_linear_2_124)"/>
<path d="M49 60.28C50.1046 60.28 51 59.3846 51 58.28C51 57.1755 50.1046 56.28 49 56.28C47.8954 56.28 47 57.1755 47 58.28C47 59.3846 47.8954 60.28 49 60.28Z" fill="url(#paint13_linear_2_124)"/>
<path d="M44 52.28C45.1046 52.28 46 51.3846 46 50.28C46 49.1755 45.1046 48.28 44 48.28C42.8954 48.28 42 49.1755 42 50.28C42 51.3846 42.8954 52.28 44 52.28Z" fill="url(#paint14_linear_2_124)"/>
<path d="M34 52C35.1046 52 36 51.1046 36 50C36 48.8954 35.1046 48 34 48C32.8954 48 32 48.8954 32 50C32 51.1046 32.8954 52 34 52Z" fill="url(#paint15_linear_2_124)"/>
<path d="M54 52.28C55.1046 52.28 56 51.3846 56 50.28C56 49.1755 55.1046 48.28 54 48.28C52.8954 48.28 52 49.1755 52 50.28C52 51.3846 52.8954 52.28 54 52.28Z" fill="url(#paint16_linear_2_124)"/>
<defs>
<linearGradient id="paint0_linear_2_124" x1="38.75" y1="39.0001" x2="59.07" y2="18.6701" gradientUnits="userSpaceOnUse">
<stop stop-color="#D0E8F8"/>
<stop offset="1" stop-color="#E1EEF9"/>
</linearGradient>
<linearGradient id="paint1_linear_2_124" x1="7" y1="42" x2="11" y2="42" gradientUnits="userSpaceOnUse">
<stop stop-color="#A1CFEE"/>
<stop offset="1" stop-color="#E1EEF9"/>
</linearGradient>
<linearGradient id="paint2_linear_2_124" x1="17" y1="42" x2="21" y2="42" gradientUnits="userSpaceOnUse">
<stop stop-color="#A1CFEE"/>
<stop offset="1" stop-color="#E1EEF9"/>
</linearGradient>
<linearGradient id="paint3_linear_2_124" x1="27" y1="42" x2="31" y2="42" gradientUnits="userSpaceOnUse">
<stop stop-color="#A1CFEE"/>
<stop offset="1" stop-color="#E1EEF9"/>
</linearGradient>
<linearGradient id="paint4_linear_2_124" x1="7" y1="58.28" x2="11" y2="58.28" gradientUnits="userSpaceOnUse">
<stop stop-color="#A1CFEE"/>
<stop offset="1" stop-color="#E1EEF9"/>
</linearGradient>
<linearGradient id="paint5_linear_2_124" x1="17" y1="58.28" x2="21" y2="58.28" gradientUnits="userSpaceOnUse">
<stop stop-color="#A1CFEE"/>
<stop offset="1" stop-color="#E1EEF9"/>
</linearGradient>
<linearGradient id="paint6_linear_2_124" x1="12" y1="50.28" x2="16" y2="50.28" gradientUnits="userSpaceOnUse">
<stop stop-color="#A1CFEE"/>
<stop offset="1" stop-color="#E1EEF9"/>
</linearGradient>
<linearGradient id="paint7_linear_2_124" x1="22" y1="50.28" x2="26" y2="50.28" gradientUnits="userSpaceOnUse">
<stop stop-color="#A1CFEE"/>
<stop offset="1" stop-color="#E1EEF9"/>
</linearGradient>
<linearGradient id="paint8_linear_2_124" x1="37" y1="42" x2="41" y2="42" gradientUnits="userSpaceOnUse">
<stop stop-color="#A1CFEE"/>
<stop offset="1" stop-color="#E1EEF9"/>
</linearGradient>
<linearGradient id="paint9_linear_2_124" x1="47" y1="42" x2="51" y2="42" gradientUnits="userSpaceOnUse">
<stop stop-color="#A1CFEE"/>
<stop offset="1" stop-color="#E1EEF9"/>
</linearGradient>
<linearGradient id="paint10_linear_2_124" x1="57" y1="42" x2="61" y2="42" gradientUnits="userSpaceOnUse">
<stop stop-color="#A1CFEE"/>
<stop offset="1" stop-color="#E1EEF9"/>
</linearGradient>
<linearGradient id="paint11_linear_2_124" x1="37" y1="58.28" x2="41" y2="58.28" gradientUnits="userSpaceOnUse">
<stop stop-color="#A1CFEE"/>
<stop offset="1" stop-color="#E1EEF9"/>
</linearGradient>
<linearGradient id="paint12_linear_2_124" x1="27" y1="58" x2="31" y2="58" gradientUnits="userSpaceOnUse">
<stop stop-color="#A1CFEE"/>
<stop offset="1" stop-color="#E1EEF9"/>
</linearGradient>
<linearGradient id="paint13_linear_2_124" x1="47" y1="58.28" x2="51" y2="58.28" gradientUnits="userSpaceOnUse">
<stop stop-color="#A1CFEE"/>
<stop offset="1" stop-color="#E1EEF9"/>
</linearGradient>
<linearGradient id="paint14_linear_2_124" x1="42" y1="50.28" x2="46" y2="50.28" gradientUnits="userSpaceOnUse">
<stop stop-color="#A1CFEE"/>
<stop offset="1" stop-color="#E1EEF9"/>
</linearGradient>
<linearGradient id="paint15_linear_2_124" x1="32" y1="50" x2="36" y2="50" gradientUnits="userSpaceOnUse">
<stop stop-color="#A1CFEE"/>
<stop offset="1" stop-color="#E1EEF9"/>
</linearGradient>
<linearGradient id="paint16_linear_2_124" x1="52" y1="50.28" x2="56" y2="50.28" gradientUnits="userSpaceOnUse">
<stop stop-color="#A1CFEE"/>
<stop offset="1" stop-color="#E1EEF9"/>
</linearGradient>
</defs>
</svg>
