<svg width="67" height="59" viewBox="0 0 67 59" fill="none" xmlns="http://www.w3.org/2000/svg">
<path d="M48.96 25.92C56.1176 25.92 61.92 20.1176 61.92 12.96C61.92 5.80241 56.1176 0 48.96 0C41.8024 0 36 5.80241 36 12.96C36 20.1176 41.8024 25.92 48.96 25.92Z" fill="url(#paint0_linear_1_343)"/>
<path d="M51.1028 30C49.2926 30 47.0764 31.2874 46.1658 32.861L40.3842 42.8965C39.4845 44.4701 40.2196 45.6475 42.0188 45.5155L46.7363 45.1633C48.5466 45.0313 49.3145 46.2307 48.4478 47.8263L43.1927 57.5207C42.326 59.1163 42.7649 59.4794 44.1582 58.324L63.138 42.6655C64.5313 41.5101 64.2022 40.6407 62.392 40.7398L55.1401 41.1139C53.3299 41.2019 52.5948 39.9915 53.4944 38.429L56.687 32.883C57.5867 31.3095 56.8516 30.022 55.0414 30.022H51.0809L51.1028 30Z" fill="url(#paint1_linear_1_343)"/>
<path d="M46 36.44C51.89 36.44 56.66 31.67 56.66 25.78C56.66 19.89 51.89 15.12 46 15.12C45.96 15.12 45.93 15.12 45.89 15.12C44.94 6.62 37.73 0 28.98 0C22.06 0 16.12 4.12999 13.45 10.05C13.37 10.05 13.28 10.05 13.2 10.05C5.91001 10.05 0 15.96 0 23.25C0 30.54 5.91001 36.45 13.2 36.45" fill="#A1CFEE"/>
<path d="M60.22 36.4401C63.92 36.4401 66.92 33.4401 66.92 29.7401C66.92 26.0401 63.92 23.0401 60.22 23.0401C60.2 23.0401 60.17 23.0401 60.15 23.0401C59.55 17.7001 55.03 13.55 49.53 13.55C45.19 13.55 41.45 16.1401 39.78 19.8601C39.73 19.8601 39.67 19.8601 39.62 19.8601C35.04 19.8601 31.33 23.5701 31.33 28.1501C31.33 32.7301 35.04 36.4401 39.62 36.4401" fill="url(#paint2_linear_1_343)"/>
<path d="M10.9039 59C10.58 59 10.2561 58.9115 9.95124 58.7346C9.0367 58.1939 8.73187 56.9847 9.25583 56.0508L15.448 44.9816C15.972 44.0379 17.1437 43.7233 18.0488 44.264C18.9633 44.8047 19.2681 46.0138 18.7442 46.9477L12.552 58.0169C12.1995 58.6461 11.5612 59 10.9039 59Z" fill="url(#paint3_linear_1_343)"/>
<path d="M1.90389 59C1.57999 59 1.25609 58.9115 0.951242 58.7346C0.0366986 58.1939 -0.268131 56.9847 0.255826 56.0508L6.44805 44.9816C6.972 44.0379 8.14374 43.7233 9.04876 44.264C9.9633 44.8047 10.2681 46.0138 9.74417 46.9477L3.55195 58.0169C3.19947 58.6461 2.56122 59 1.90389 59Z" fill="url(#paint4_linear_1_343)"/>
<path d="M19.0943 59C18.738 59 18.3817 58.9115 18.0464 58.7346C17.0404 58.1939 16.705 56.9847 17.2814 56.0508L24.0928 44.9816C24.6692 44.0379 25.9581 43.7233 26.9536 44.264C27.9596 44.8047 28.2949 46.0138 27.7186 46.9477L20.9072 58.0169C20.5195 58.6461 19.8174 59 19.0943 59Z" fill="url(#paint5_linear_1_343)"/>
<path d="M28.0943 59C27.738 59 27.3817 58.9115 27.0464 58.7346C26.0404 58.1939 25.7051 56.9847 26.2814 56.0508L33.0928 44.9816C33.6692 44.0379 34.9581 43.7233 35.9536 44.264C36.9596 44.8047 37.2949 46.0138 36.7186 46.9477L29.9072 58.0169C29.5194 58.6461 28.8173 59 28.0943 59Z" fill="url(#paint6_linear_1_343)"/>
<defs>
<linearGradient id="paint0_linear_1_343" x1="39.79" y1="22.13" x2="58.12" y2="3.80002" gradientUnits="userSpaceOnUse">
<stop stop-color="#FDB728"/>
<stop offset="1" stop-color="#FFCD23"/>
</linearGradient>
<linearGradient id="paint1_linear_1_343" x1="38.1461" y1="54.2306" x2="59.2844" y2="33.1554" gradientUnits="userSpaceOnUse">
<stop stop-color="#FDB728"/>
<stop offset="1" stop-color="#FFCD23"/>
</linearGradient>
<linearGradient id="paint2_linear_1_343" x1="38.75" y1="39.0001" x2="59.07" y2="18.6701" gradientUnits="userSpaceOnUse">
<stop stop-color="#D0E8F8"/>
<stop offset="1" stop-color="#E1EEF9"/>
</linearGradient>
<linearGradient id="paint3_linear_1_343" x1="9.00813" y1="51.5091" x2="19.0109" y2="51.5091" gradientUnits="userSpaceOnUse">
<stop stop-color="#00AEEF"/>
<stop offset="1" stop-color="#00BDF2"/>
</linearGradient>
<linearGradient id="paint4_linear_1_343" x1="0.00813292" y1="51.5091" x2="10.0109" y2="51.5091" gradientUnits="userSpaceOnUse">
<stop stop-color="#00AEEF"/>
<stop offset="1" stop-color="#00BDF2"/>
</linearGradient>
<linearGradient id="paint5_linear_1_343" x1="16.9985" y1="51.5091" x2="28.0015" y2="51.5091" gradientUnits="userSpaceOnUse">
<stop stop-color="#00AEEF"/>
<stop offset="1" stop-color="#00BDF2"/>
</linearGradient>
<linearGradient id="paint6_linear_1_343" x1="26.0089" y1="51.5091" x2="37.012" y2="51.5091" gradientUnits="userSpaceOnUse">
<stop stop-color="#00AEEF"/>
<stop offset="1" stop-color="#00BDF2"/>
</linearGradient>
</defs>
</svg>
